<?xml version="1.0" encoding="UTF-8"?> <svg xmlns="http://www.w3.org/2000/svg" width="150" height="91" viewBox="0 0 150 91" fill="none"><rect width="150" height="90" transform="translate(0 0.0634766)" fill="white"></rect><g clip-path="url(#clip0_36_606)"><path d="M37.069 47.2344C37.069 46.8482 37.2345 46.793 37.6207 47.0137C38.2828 47.3999 38.9448 47.7309 38.9448 47.7309C38.9448 47.5102 39.1655 47.3447 39.5517 47.4551C39.9379 47.5654 40.3241 47.6206 40.3241 47.6206C40.3241 47.6206 40.1034 47.124 39.9931 46.9033C39.8276 46.5171 39.9931 46.2964 40.1586 46.2413C40.1586 46.2413 39.9379 46.0757 39.7724 45.9654C39.4414 45.7447 39.4966 45.4688 39.8276 45.3585C40.269 45.1378 40.8759 44.9171 40.8759 44.9171C40.7103 44.8068 40.4897 44.5309 40.7103 44.1447C40.931 43.8137 41.3172 43.3171 41.3172 43.3171C41.3172 43.3171 40.7103 43.3171 40.269 43.3171C39.8828 43.3171 39.7724 42.9861 39.7724 42.7654C39.7724 42.7654 39.1655 43.2068 38.7241 43.4826C38.3379 43.7585 38.0069 43.4826 38.0621 43.0413C38.1724 42.3792 38.2276 41.6068 38.2276 41.6068C38.0069 41.8275 37.6207 41.7723 37.4 41.4413C37.1241 40.8895 36.8483 40.2275 36.8483 40.2275C36.8483 40.2275 36.5724 40.8895 36.2966 41.4413C36.131 41.7723 35.7448 41.8275 35.5241 41.662C35.5241 41.662 35.5793 42.4344 35.6897 43.0964C35.7448 43.4826 35.4138 43.7585 35.0276 43.4826C34.5862 43.2068 33.9241 42.7654 33.9241 42.7654C33.9241 42.9861 33.8138 43.262 33.4276 43.3171C32.9862 43.3171 32.3793 43.3171 32.3793 43.3171C32.3793 43.3171 32.7655 43.8137 32.9862 44.1447C33.2069 44.4757 32.9862 44.8068 32.8207 44.9171C32.8207 44.9171 33.3724 45.193 33.869 45.3585C34.2 45.524 34.3103 45.7447 33.9241 45.9654C33.8138 46.0757 33.5379 46.2413 33.5379 46.2413C33.7586 46.2964 33.9241 46.5171 33.7586 46.9033C33.6483 47.124 33.4276 47.6206 33.4276 47.6206C33.4276 47.6206 33.8138 47.5102 34.2 47.4551C34.5862 47.3447 34.7517 47.5654 34.8069 47.7309C34.8069 47.7309 35.469 47.3447 36.131 47.0137C36.4621 46.793 36.6828 46.9033 36.6828 47.2344V48.1723C36.6828 48.724 36.5724 49.2757 36.4069 49.6068C33.9241 49.3309 31.8276 47.3447 31.8276 44.6964C31.8276 41.993 34.0897 39.7861 36.9034 39.7861C39.7172 39.7861 41.9793 41.993 41.9793 44.6964C41.9793 47.2344 39.9931 49.3309 37.4552 49.6068V50.2688C40.4345 49.993 42.7517 47.6206 42.7517 44.6964C42.7517 41.5516 40.1034 39.0688 36.8483 39.0688C33.6483 39.0688 31 41.5516 31 44.6413C31 47.3447 33.0414 49.6068 35.7448 50.1033C36.1862 50.2137 36.4621 50.2688 36.7379 50.5447C37.0138 49.993 37.069 48.8895 37.069 48.2826V47.2344Z" fill="#F01428"></path><path d="M60.738 47.6206V41.662H63.6622C65.207 41.662 65.9242 42.3241 65.9794 43.1516C65.9794 43.5378 65.9242 43.9241 65.6484 44.1999C65.3725 44.4758 65.2622 44.5861 64.7656 44.862L66.9725 47.6758H65.3725L63.3863 45.1378H62.0622V47.6206H60.738ZM62.0622 44.3654H62.6691C64.2691 44.3654 64.6001 44.0896 64.6001 43.3172C64.6001 42.5447 63.8829 42.4344 62.8346 42.4344H62.0622V44.3654Z" fill="#2E2A25"></path><path d="M47.6621 47.6206L50.2552 41.662H51.8552L54.4483 47.6206H52.8483L52.1311 46.0206H49.3725L48.6552 47.6206H47.6621ZM49.7035 45.2482H51.7449L50.6966 42.8758L49.7035 45.2482Z" fill="#2E2A25"></path><path d="M57.6484 41.662H56.269V47.6206H57.6484V41.662Z" fill="#2E2A25"></path><path d="M76.9037 47.3995C76.2416 47.6754 75.414 47.7857 74.4209 47.7857C73.2623 47.7857 72.3244 47.5099 71.6623 46.9582C71.0002 46.4064 70.6692 45.634 70.6692 44.6409C70.6692 43.6478 71.0002 42.8202 71.6623 42.3237C72.3244 41.772 73.2623 41.4961 74.5313 41.4961C75.3037 41.4961 76.0761 41.5513 76.9037 41.7168V42.7099C76.0209 42.434 75.1933 42.3237 74.5864 42.3237C73.814 42.3237 73.2623 42.5444 72.8209 42.9306C72.4347 43.3168 72.214 43.9237 72.214 44.6409C72.214 45.3582 72.4347 45.9099 72.8761 46.3513C73.3175 46.7375 73.9244 46.9582 74.6968 46.9582C75.414 46.9582 76.1864 46.7926 76.9037 46.5168V47.3995Z" fill="#2E2A25"></path><path d="M78.614 47.6206L81.2071 41.662H82.8071L85.4002 47.6206H83.8002L83.083 46.0206H80.3244L79.6071 47.6206H78.614ZM80.7106 45.2482H82.7519L81.7588 42.8758L80.7106 45.2482Z" fill="#2E2A25"></path><path d="M95.8828 47.6206L98.4759 41.662H100.076L102.669 47.6206H101.069L100.352 46.0206H97.5932L96.8759 47.6206H95.8828ZM97.9242 45.2482H99.9656L98.9173 42.8758L97.9242 45.2482Z" fill="#2E2A25"></path><path d="M115.304 42.8758L116.352 45.2482H114.31L115.304 42.8758ZM114.862 41.662L112.269 47.6206H113.262L113.979 46.0206H116.738L117.455 47.6206H119.055L116.462 41.662H114.862Z" fill="#2E2A25"></path><path d="M87.3862 47.6206V41.662H88.9862L92.738 45.9103V41.662H93.8966V47.6206H92.4069L88.5449 43.1516V47.6206H87.3862Z" fill="#2E2A25"></path><path d="M104.6 47.6207V41.6621H107.469C108.517 41.6621 109.29 41.938 109.841 42.3794C110.393 42.8759 110.669 43.5931 110.669 44.4759C110.669 45.469 110.393 46.2414 109.786 46.738C109.179 47.2897 108.407 47.5656 107.359 47.5656H104.6V47.6207ZM105.979 46.7931H107.028C107.745 46.7931 108.297 46.6276 108.683 46.2414C109.069 45.8552 109.235 45.3587 109.235 44.5862C109.235 44.0345 109.069 43.538 108.793 43.1518C108.573 42.8759 108.352 42.7104 108.076 42.6C107.8 42.4897 107.414 42.4345 106.862 42.4345H106.035V46.7931H105.979Z" fill="#2E2A25"></path></g><defs><clipPath id="clip0_36_606"><rect width="88" height="11.4759" fill="white" transform="translate(31 39.0687)"></rect></clipPath></defs></svg> 