<?xml version="1.0" encoding="UTF-8"?> <svg xmlns="http://www.w3.org/2000/svg" width="24" height="24" viewBox="0 0 24 24" fill="none"><circle cx="12" cy="12" r="12" fill="#FF5E00"></circle><path d="M12.4702 16.1698C12.4479 16.1475 12.4302 16.121 12.4181 16.0919C12.406 16.0628 12.3998 16.0315 12.3998 16C12.3998 15.9685 12.406 15.9372 12.4181 15.9081C12.4302 15.879 12.4479 15.8525 12.4702 15.8302L16.3804 11.92L6.40001 11.92C6.33636 11.92 6.27531 11.8947 6.2303 11.8497C6.18529 11.8047 6.16001 11.7437 6.16001 11.68C6.16001 11.6164 6.18529 11.5553 6.2303 11.5103C6.27531 11.4653 6.33636 11.44 6.40001 11.44L16.3804 11.44L12.4702 7.52981C12.4479 7.50751 12.4302 7.48104 12.4182 7.4519C12.4061 7.42277 12.3999 7.39154 12.3999 7.36001C12.3999 7.32847 12.4061 7.29725 12.4182 7.26811C12.4302 7.23898 12.4479 7.2125 12.4702 7.19021C12.4925 7.16791 12.519 7.15022 12.5481 7.13815C12.5772 7.12608 12.6085 7.11987 12.64 7.11987C12.6715 7.11987 12.7028 7.12608 12.7319 7.13815C12.761 7.15022 12.7875 7.16791 12.8098 7.19021L17.1298 11.5102C17.1521 11.5325 17.1698 11.559 17.1819 11.5881C17.194 11.6172 17.2002 11.6485 17.2002 11.68C17.2002 11.7115 17.194 11.7428 17.1819 11.7719C17.1698 11.801 17.1521 11.8275 17.1298 11.8498L12.8098 16.1698C12.7875 16.1921 12.761 16.2098 12.7319 16.2219C12.7028 16.234 12.6715 16.2402 12.64 16.2402C12.6085 16.2402 12.5772 16.234 12.5481 16.2219C12.519 16.2098 12.4925 16.1921 12.4702 16.1698Z" fill="white"></path></svg> 