<?xml version="1.0" encoding="UTF-8"?> <svg xmlns="http://www.w3.org/2000/svg" width="150" height="91" viewBox="0 0 150 91" fill="none"><rect width="150" height="90" transform="translate(0 0.0634766)" fill="white"></rect><path fill-rule="evenodd" clip-rule="evenodd" d="M70.4408 48.8562V42.587C70.4408 41.4867 70.4819 41.549 71.0015 40.9472H68.8215C69.3405 41.549 69.3816 41.4874 69.3816 42.587V49.6032C68.842 49.977 67.7835 50.6412 66.0601 50.6412C64.1916 50.6412 63.2577 49.6238 63.2577 47.9421V42.5864C63.2577 41.4861 63.2988 41.5484 63.8178 40.9466H61.9493H56.9051C57.0714 40.698 58.3786 38.7048 58.3786 38.7048C58.8147 38.0612 59.3543 37.2108 59.5617 36.359C59.6446 36.0475 59.6863 35.7154 59.6863 35.3622C59.6863 34.1584 59.1673 33.0376 58.254 32.207C57.4234 31.4388 56.2403 31.0862 54.6627 31.0862C54.2471 31.0862 53.583 31.1279 53.1269 31.1902C52.7948 31.2525 52.7531 31.3977 52.7531 31.5018C52.7531 31.5223 52.753 31.6887 53.0016 31.6887L53.583 31.6264L54.0396 31.6052L54.7456 31.5641C55.1605 31.5641 55.4926 31.6052 56.0322 31.6887C54.953 33.0999 54.33 33.8475 51.1954 37.1478C50.3649 38.0201 49.5556 38.7466 48.7045 39.5142C48.7045 39.5142 47.1886 40.9048 47.1475 40.9466H41.8335C41.7712 40.4899 41.6883 40.0332 40.7332 39.2861C39.3008 38.1441 36.3949 37.4176 33.1563 37.4176C27.7389 37.4176 23.6081 39.4519 21.5526 41.3615C20.8261 42.0051 19.4978 43.2088 19.4978 45.4718C19.4978 47.278 20.4735 48.7104 22.4043 49.7272C23.0685 50.0798 24.4591 50.8063 27.3445 50.8063C31.6211 50.8063 35.6267 49.1465 38.2846 47.9004C41.3774 46.4269 44.2216 44.7453 48.1032 41.4238H54.1231C53.9362 41.7141 46.8578 52.82 46.8578 52.82C46.4216 53.5054 45.9444 54.2729 45.9444 55.1247C45.9444 56.2038 46.9412 57.3664 48.5599 57.3664C48.5599 57.3664 48.5394 57.3253 48.5394 57.263H48.5599L48.5188 57.1583C48.5394 57.1583 48.5394 57.1789 48.5599 57.1789L48.5188 57.1377L48.4976 57.0966C48.4771 56.9726 48.4565 56.868 48.4565 56.868C48.249 56.8268 47.6054 56.6611 47.5849 56.1838V56.1427C47.5849 55.6231 47.8546 55.1458 48.1867 54.5851C49.3911 52.5714 55.12 43.625 56.5935 41.4244H61.8246C61.9698 41.4244 62.0944 41.549 62.1362 41.6531V41.6737C62.1985 41.8606 62.1985 42.1303 62.1985 42.587V47.7559C62.1985 49.9976 63.4228 51.0773 65.976 51.0773C67.8445 51.0773 68.6539 50.5178 69.3804 50.1222V50.8705H71.3941C70.8769 50.5172 70.4408 50.4125 70.4408 48.8562ZM37.0827 47.4443C36.0242 47.8182 33.575 48.6487 29.5681 48.6487C26.2884 48.6487 24.7732 48.1502 23.9632 47.8599H23.9009C23.3613 47.6524 21.9289 47.154 21.0779 46.116C20.6006 45.5552 20.3302 44.9328 20.3302 44.3515C20.3302 43.106 21.4928 41.736 23.4442 40.6774C25.8105 39.4114 29.5675 38.6226 33.2628 38.6226C37.4142 38.6226 39.7805 39.4319 40.4447 39.8475C40.6522 39.9721 41.0883 40.3248 41.2129 40.6568C41.2129 40.6568 41.2335 40.7814 41.2541 40.8643H32.6186C30.9999 40.8643 29.256 40.9684 28.1557 41.1135C27.8859 41.1547 27.0143 41.2587 26.4747 41.7565C26.3501 41.8606 25.9968 42.255 25.9968 42.7322C25.9968 43.0226 26.1214 44.04 27.9694 44.6624C29.4635 45.202 31.6641 45.2437 32.3077 45.2437C34.7781 45.2437 36.9993 44.8288 38.9089 44.0188C41.0883 43.126 41.545 41.9846 41.7942 41.3409H46.5481C41.2759 46.0119 38.8472 46.8425 37.0827 47.4443ZM41.2136 41.321C41.1513 41.5285 40.9849 41.7777 40.1756 42.2755C39.6977 42.587 38.8472 43.0232 37.332 43.4587C34.7787 44.2263 32.9314 44.2892 31.4155 44.2892C30.689 44.2892 28.4884 44.2892 27.1395 43.521C26.7451 43.293 26.5794 43.0437 26.5794 42.7322C26.5794 42.0886 27.5551 41.7976 30.2124 41.5902C32.122 41.445 33.7201 41.4238 35.4223 41.4032H36.1282C36.1276 41.4039 40.9643 41.321 41.2136 41.321ZM56.201 37.7921C56.201 37.7921 54.416 40.7814 54.3537 40.8643H48.583C48.8322 40.6363 49.4135 40.0967 49.4135 40.0967C50.4098 39.2039 51.3443 38.3322 53.0671 36.3603C54.6652 34.4918 55.5786 33.2257 56.5748 31.7728C57.5923 32.1254 58.1318 32.7279 58.1318 33.5373C58.1312 34.5541 57.5293 35.6749 56.201 37.7921ZM79.4295 40.9472H77.5193C78.371 41.4251 78.371 41.8606 78.371 42.587V49.2088C78.371 49.9764 78.371 50.3708 77.5193 50.8699H80.1977C82.9161 50.8699 87.3591 50.3708 87.3591 46.1989C87.3591 43.5422 85.5117 40.9472 79.4295 40.9472ZM80.9448 50.4337C79.4295 50.4337 79.4295 49.8742 79.4295 48.4618V41.3833C82.4183 41.3833 86.1759 42.1933 86.1759 46.3029C86.1765 49.0848 83.913 50.4337 80.9448 50.4337ZM95.455 48.8144V42.587C95.455 41.4867 95.5173 41.549 96.0356 40.9472H93.8562C94.3553 41.549 94.417 41.4874 94.417 42.587V49.2088C94.417 49.9764 94.417 50.3708 93.5447 50.8699H100.333L101.164 48.8973C100.687 49.2711 100.023 50.4331 97.2824 50.4331C95.579 50.4337 95.455 49.9359 95.455 48.8144ZM108.428 48.8144V45.5764H111.313C112.186 45.5764 112.227 45.6593 112.704 46.0119V44.6836C112.227 45.0574 112.06 45.1403 111.375 45.1403H108.428V41.3827H110.318C112.227 41.3827 112.289 41.6113 112.809 42.3173V40.9472H106.519C107.37 41.4251 107.37 41.8606 107.37 42.587V49.2088C107.37 49.9764 107.37 50.3708 106.519 50.8699H113.286L114.116 48.8973C113.639 49.2711 112.974 50.4331 110.255 50.4331C108.554 50.4337 108.428 49.9359 108.428 48.8144ZM127.256 40.9472C127.339 41.0512 127.464 41.0923 127.464 41.3628C127.464 41.6332 127.256 41.8194 127.029 42.0892L124.454 45.0163L122.088 42.1522C121.859 41.8817 121.735 41.6332 121.735 41.3216C121.735 41.1765 121.859 41.0724 121.942 40.9478H119.534C120.198 41.3634 120.262 41.3839 120.821 42.0687L123.603 45.5559V49.4798C123.603 50.3097 123.395 50.4132 123.021 50.8705H125.243C124.911 50.4337 124.723 50.268 124.723 49.4587V45.4518L127.692 42.0475C128.108 41.5702 128.585 41.2587 129 40.9472H127.256Z" fill="black"></path></svg> 