<?xml version="1.0" encoding="UTF-8"?> <svg xmlns="http://www.w3.org/2000/svg" width="60" height="61" viewBox="0 0 60 61" fill="none"><path fill-rule="evenodd" clip-rule="evenodd" d="M24.4318 6.1947C24.4318 5.67694 24.8515 5.2572 25.3693 5.2572H33.8068C34.3245 5.2572 34.7443 5.67694 34.7443 6.1947V10.8822H44.1193C44.637 10.8822 45.0568 11.3019 45.0568 11.8197V26.3178C48.9832 29.9988 52.5954 34.003 54.9145 36.818C55.1461 37.0991 55.1939 37.4889 55.0371 37.8176L47.2617 54.1233C47.5587 54.282 47.8836 54.425 48.2781 54.5472C49.0159 54.7757 50.044 54.9447 51.6193 54.9447C53.5245 54.9447 54.9326 54.6869 55.9476 54.341C56.4377 54.1739 56.9704 54.4358 57.1374 54.9259C57.3044 55.416 57.0425 55.9487 56.5524 56.1157C55.308 56.5398 53.6901 56.8197 51.6193 56.8197C49.9133 56.8197 48.6885 56.6372 47.7234 56.3383C46.765 56.0415 46.109 55.6432 45.5499 55.2805C45.5419 55.2754 45.5339 55.2702 45.526 55.2649C45.5244 55.2639 45.5228 55.2629 45.5213 55.2618C45.4698 55.2284 45.4196 55.1956 45.3704 55.1634C44.8786 54.8421 44.4894 54.5878 43.9522 54.3877C43.3727 54.1719 42.5771 54.0072 41.3068 54.0072C38.7983 54.0072 37.3034 54.6452 35.689 55.3376L35.676 55.3431C34.0156 56.0552 32.2331 56.8197 29.3391 56.8197C27.8005 56.8197 26.6639 56.6343 25.7323 56.3354C24.803 56.0373 24.1187 55.6378 23.5163 55.2847L23.5068 55.2791C22.9054 54.9266 22.3932 54.6263 21.7082 54.3989C21.0257 54.1724 20.1319 54.0072 18.8068 54.0072C16.3775 54.0072 14.5056 54.5614 12.7881 55.1875C12.7822 55.1897 12.7763 55.1919 12.7704 55.194C12.6256 55.2468 12.4819 55.3002 12.3391 55.3538C12.1512 55.4242 11.963 55.4959 11.7744 55.5678C10.1498 56.1866 8.48782 56.8197 6.61925 56.8197C5.47459 56.8197 4.43505 56.6585 3.50282 56.4037C3.00337 56.2671 2.70915 55.7516 2.84566 55.2522C2.98217 54.7527 3.49772 54.4585 3.99717 54.595C4.77974 54.8089 5.65304 54.9447 6.61925 54.9447C8.12311 54.9447 9.45441 54.4405 11.1311 53.8056C11.1427 53.8012 11.1544 53.7968 11.1661 53.7923L3.4201 37.8233C3.25916 37.4915 3.30767 37.0962 3.54406 36.8131C6.19377 33.6406 10.5076 28.9522 15.0568 24.9198V11.8197C15.0568 11.3019 15.4765 10.8822 15.9943 10.8822H24.4318V6.1947ZM26.3068 10.8822H32.8693V7.1322H26.3068V10.8822ZM16.9318 23.3085C18.8599 21.7058 20.8077 20.2608 22.6675 19.1424C25.0012 17.739 27.3182 16.7741 29.3391 16.7741C31.5706 16.7741 34.1613 17.9516 36.7493 19.6201C38.8516 20.9755 41.0459 22.7176 43.1818 24.6082V12.7572H16.9318V23.3085ZM12.9373 53.1476C14.5662 52.5992 16.4541 52.1322 18.8068 52.1322C20.2941 52.1322 21.3925 52.3186 22.2989 52.6194C23.1729 52.9095 23.8314 53.2957 24.4124 53.6366L24.4646 53.6672C25.0616 54.0172 25.5905 54.3208 26.305 54.5501C26.8433 54.7227 27.5105 54.8598 28.4016 54.9165V18.7349C27.0617 18.9661 25.4463 19.6593 23.6338 20.7492C21.404 22.0901 18.9935 23.9585 16.6126 26.0476C12.2526 29.8733 8.06416 34.3749 5.37255 37.5522L12.9373 53.1476ZM30.2766 18.735V54.913C32.2372 54.7761 33.5474 54.2159 34.95 53.6143L34.9586 53.6107C36.6207 52.8978 38.4059 52.1322 41.3068 52.1322C42.7436 52.1322 43.7703 52.3191 44.6066 52.6306C45.0046 52.7788 45.3496 52.9527 45.6579 53.1306L53.0867 37.5516C50.7437 34.7478 47.2425 30.9079 43.481 27.4118C40.9049 25.0174 38.2282 22.8045 35.7333 21.196C33.6534 19.855 31.7951 18.9977 30.2766 18.735Z" fill="#194F94"></path></svg> 