<?xml version="1.0" encoding="UTF-8"?> <svg xmlns="http://www.w3.org/2000/svg" width="150" height="91" viewBox="0 0 150 91" fill="none"><rect width="150" height="90" transform="translate(0 0.0634766)" fill="white"></rect><g clip-path="url(#clip0_36_610)"><path d="M39.003 38.4775L35.2524 32.844L37.9712 31.7746L34.2657 29.9444L30.5678 28.1143L30.8239 32.234L31.095 36.3612L33.1737 34.2223L36.9394 39.8558L39.003 38.4775ZM33.2565 27.9862C33.1912 27.9873 33.1267 27.972 33.0688 27.9417C33.0109 27.9115 32.9616 27.8672 32.9251 27.813C32.8959 27.7703 32.8757 27.7222 32.8655 27.6714C32.8554 27.6207 32.8556 27.5685 32.8661 27.5178C32.8767 27.4672 32.8974 27.4192 32.9269 27.3767C32.9565 27.3343 32.9943 27.2982 33.0381 27.2707L35.2298 25.7645C35.2728 25.7363 35.3209 25.7168 35.3715 25.7072C35.422 25.6977 35.4739 25.6981 35.5243 25.7086C35.5746 25.7191 35.6224 25.7394 35.6649 25.7684C35.7075 25.7973 35.7438 25.8344 35.772 25.8774C35.8002 25.9204 35.8197 25.9686 35.8292 26.0191C35.8388 26.0697 35.8383 26.1216 35.8278 26.172C35.8174 26.2223 35.7971 26.2701 35.7681 26.3126C35.7391 26.3551 35.7021 26.3915 35.6591 26.4197L33.4674 27.926C33.404 27.965 33.331 27.9858 33.2565 27.9862ZM26.8171 32.1059C26.7506 32.1083 26.6845 32.0936 26.6252 32.0633C26.5659 32.033 26.5153 31.988 26.4782 31.9327C26.4492 31.8906 26.429 31.843 26.419 31.7929C26.4089 31.7428 26.4092 31.6911 26.4198 31.6411C26.4303 31.591 26.451 31.5437 26.4805 31.5019C26.5099 31.4601 26.5476 31.4247 26.5912 31.398L28.7753 29.8917C28.818 29.8625 28.8662 29.8422 28.9169 29.8321C28.9676 29.8219 29.0199 29.8221 29.0705 29.8327C29.1211 29.8432 29.1691 29.8639 29.2116 29.8935C29.254 29.923 29.2901 29.9608 29.3176 30.0047C29.3469 30.0463 29.3676 30.0935 29.3782 30.1433C29.3888 30.1931 29.3892 30.2446 29.3793 30.2946C29.3695 30.3446 29.3496 30.3921 29.3208 30.4341C29.2921 30.4762 29.2551 30.512 29.2121 30.5394L27.0205 32.0457C26.957 32.0847 26.8841 32.1055 26.8096 32.1059H26.8171ZM31.9611 26.7209C31.9172 26.7714 31.8602 26.8086 31.7963 26.8286C31.7325 26.8485 31.6644 26.8504 31.5996 26.8339C31.4991 26.8122 31.4113 26.7518 31.3549 26.6659C31.2985 26.5799 31.2782 26.4753 31.2983 26.3745L31.7879 23.7837C31.8063 23.682 31.8641 23.5917 31.9487 23.5325C32.0333 23.4732 32.138 23.4498 32.2398 23.4674C32.2899 23.4764 32.3377 23.4953 32.3805 23.523C32.4232 23.5507 32.46 23.5866 32.4888 23.6287C32.5175 23.6707 32.5376 23.7181 32.5479 23.7679C32.5581 23.8178 32.5584 23.8693 32.5486 23.9192L32.059 26.5251C32.0453 26.5982 32.0114 26.6661 31.9611 26.7209ZM29.9653 26.5703C29.9678 26.6359 29.9531 26.7009 29.9227 26.759C29.8923 26.8172 29.8473 26.8663 29.7921 26.9017C29.7504 26.9311 29.7033 26.9517 29.6534 26.9623C29.6036 26.9729 29.5521 26.9733 29.5021 26.9635C29.4521 26.9536 29.4046 26.9337 29.3626 26.905C29.3205 26.8762 29.2847 26.8392 29.2573 26.7963L27.751 24.6046C27.7225 24.561 27.7031 24.512 27.6941 24.4607C27.6851 24.4093 27.6866 24.3567 27.6986 24.306C27.7106 24.2552 27.7327 24.2075 27.7638 24.1656C27.7948 24.1237 27.834 24.0886 27.8791 24.0623C27.9212 24.0333 27.9687 24.0131 28.0189 24.0031C28.069 23.9931 28.1207 23.9933 28.1707 24.0039C28.2207 24.0145 28.2681 24.0351 28.3099 24.0646C28.3517 24.0941 28.387 24.1317 28.4138 24.1753L29.9201 26.367C29.9548 26.4295 29.9754 26.4989 29.9803 26.5703H29.9653ZM28.9862 27.9862C29.0353 28.031 29.0711 28.0884 29.0897 28.1522C29.1083 28.2159 29.109 28.2836 29.0916 28.3477C29.0716 28.4476 29.0128 28.5354 28.9281 28.5919C28.8433 28.6484 28.7396 28.669 28.6397 28.649L26.0414 28.1595C25.9406 28.1393 25.8515 28.0811 25.7926 27.9969C25.7337 27.9128 25.7095 27.8091 25.7251 27.7076C25.7451 27.6057 25.8047 27.516 25.8909 27.4581C25.977 27.4002 26.0826 27.3789 26.1845 27.3988L28.7753 27.8883C28.8538 27.8993 28.9272 27.9334 28.9862 27.9862Z" fill="#FF5326"></path><path d="M120.922 37.2649C120.922 40.1194 110.574 40.1194 110.574 37.2649C110.574 35.8927 111.119 34.5766 112.09 33.6063C113.06 32.6359 114.376 32.0908 115.748 32.0908C117.121 32.0908 118.437 32.6359 119.407 33.6063C120.377 34.5766 120.922 35.8927 120.922 37.2649Z" fill="#50D9AF"></path><path d="M124.056 39.8706C123.681 39.8607 123.314 39.7604 122.986 39.5781C122.658 39.3958 122.379 39.137 122.173 38.8237C121.766 38.3567 121.503 38.0705 120.96 38.0705C120.418 38.0705 120.154 38.3341 119.748 38.8237C119.542 39.1344 119.262 39.3893 118.933 39.5656C118.605 39.7419 118.238 39.8342 117.865 39.8342C117.492 39.8342 117.125 39.7419 116.796 39.5656C116.468 39.3893 116.188 39.1344 115.982 38.8237C115.575 38.3567 115.327 38.0705 114.769 38.0705C114.212 38.0705 113.971 38.3341 113.557 38.8237C113.358 39.1444 113.081 39.4092 112.752 39.5928C112.422 39.7764 112.051 39.8727 111.674 39.8727C111.297 39.8727 110.926 39.7764 110.596 39.5928C110.267 39.4092 109.99 39.1444 109.791 38.8237C109.385 38.3567 109.128 38.0705 108.579 38.0705C108.52 38.0705 108.462 38.0591 108.409 38.0367C108.355 38.0144 108.306 37.9817 108.264 37.9404C108.223 37.8991 108.19 37.8502 108.168 37.7962C108.146 37.7423 108.134 37.6845 108.134 37.6262C108.134 37.5678 108.146 37.5101 108.168 37.4561C108.19 37.4022 108.223 37.3532 108.264 37.312C108.306 37.2707 108.355 37.238 108.409 37.2157C108.462 37.1933 108.52 37.1818 108.579 37.1818C108.953 37.1942 109.319 37.2955 109.647 37.4776C109.974 37.6597 110.253 37.9171 110.461 38.2287C110.868 38.6957 111.124 38.9819 111.674 38.9819C112.224 38.9819 112.48 38.7183 112.887 38.2287C113.093 37.918 113.373 37.6631 113.701 37.4868C114.03 37.3105 114.397 37.2182 114.769 37.2182C115.142 37.2182 115.509 37.3105 115.838 37.4868C116.166 37.6631 116.446 37.918 116.652 38.2287C117.059 38.6957 117.308 38.9819 117.865 38.9819C118.422 38.9819 118.663 38.7183 119.077 38.2287C119.286 37.9171 119.565 37.6597 119.892 37.4776C120.22 37.2955 120.586 37.1942 120.96 37.1818C121.335 37.1923 121.702 37.2929 122.03 37.4751C122.357 37.6573 122.637 37.9158 122.843 38.2287C123.25 38.6957 123.514 38.9819 124.056 38.9819C124.114 38.9808 124.173 38.9916 124.227 39.0136C124.281 39.0356 124.331 39.0683 124.372 39.1097C124.414 39.1512 124.446 39.2006 124.468 39.255C124.49 39.3093 124.501 39.3676 124.5 39.4262C124.502 39.4851 124.492 39.5439 124.471 39.5987C124.449 39.6536 124.416 39.7034 124.375 39.7451C124.333 39.7868 124.283 39.8194 124.228 39.841C124.173 39.8626 124.115 39.8727 124.056 39.8706ZM118.234 25.4478C118.182 25.4166 118.125 25.3958 118.065 25.3866C118.006 25.3775 117.945 25.3802 117.886 25.3946C117.828 25.409 117.772 25.4349 117.724 25.4706C117.675 25.5064 117.634 25.5513 117.603 25.603L117.601 25.606C117.368 25.9826 115.41 29.2663 115.41 30.878C115.41 32.2789 115.349 34.5157 115.349 34.8471C115.349 34.9709 115.399 35.0897 115.486 35.1773C115.574 35.2648 115.693 35.314 115.816 35.314C115.94 35.314 116.059 35.2648 116.147 35.1773C116.234 35.0897 116.283 34.9709 116.283 34.8471V34.7868C116.283 34.2747 116.344 32.196 116.344 30.8629C116.344 29.7106 117.85 27.0068 118.392 26.0729C118.451 25.9652 118.467 25.839 118.436 25.72C118.406 25.601 118.33 25.4982 118.226 25.4328" fill="#50D9AF"></path><path d="M118.595 24.6117C118.246 24.261 117.83 23.9828 117.372 23.7929C116.915 23.6031 116.425 23.5054 115.929 23.5054C115.434 23.5054 114.943 23.6031 114.486 23.7929C114.028 23.9828 113.613 24.261 113.263 24.6117C113.125 24.7497 113.002 24.9011 112.894 25.0636V25.1766C113.737 25.0533 114.597 25.1653 115.379 25.5004C114.633 26.1675 114.176 27.0998 114.107 28.0988C114.087 28.2966 114.087 28.4959 114.107 28.6937C114.107 28.6937 114.107 28.7615 114.159 28.7841C114.558 28.3154 115.045 27.9303 115.593 27.6511C116.141 27.3718 116.739 27.204 117.353 27.1573C117.997 28.0918 118.266 29.2345 118.106 30.3582C118.29 30.2343 118.461 30.0931 118.618 29.9364C119.241 29.3167 119.627 28.4988 119.71 27.6243C120.443 27.9883 121.064 28.5423 121.51 29.2285C121.635 28.7334 121.659 28.2179 121.578 27.7136C121.498 27.2092 121.316 26.7264 121.044 26.2945C120.771 25.8627 120.413 25.4908 119.992 25.2015C119.572 24.9122 119.096 24.7115 118.595 24.6117Z" fill="#50D9AF"></path><path d="M88.0025 28.2948C87.8288 28.2826 87.6571 28.3385 87.5239 28.4507C87.3907 28.5628 87.3063 28.7224 87.2887 28.8957C87.2711 29.0689 87.3216 29.2422 87.4295 29.3789C87.5374 29.5156 87.6943 29.6049 87.8669 29.6279C87.9564 29.6405 88.0474 29.6347 88.1345 29.6109C88.2217 29.587 88.303 29.5456 88.3735 29.4892C88.444 29.4327 88.5023 29.3625 88.5447 29.2827C88.5871 29.203 88.6127 29.1154 88.6201 29.0254C88.6283 28.9367 88.6188 28.8473 88.5921 28.7623C88.5654 28.6773 88.522 28.5986 88.4645 28.5305C88.407 28.4625 88.3366 28.4067 88.2572 28.3662C88.1779 28.3257 88.0913 28.3015 88.0025 28.2948ZM90.4276 30.5618C90.4027 30.5242 90.3705 30.4921 90.3327 30.4674C90.295 30.4427 90.2526 30.4259 90.2082 30.4182C90.1638 30.4104 90.1183 30.4118 90.0744 30.4223C90.0305 30.4327 89.9893 30.452 89.9531 30.479L88.8234 31.2924C88.7856 31.3179 88.7533 31.3509 88.7285 31.3893C88.7037 31.4277 88.687 31.4707 88.6792 31.5157C88.6715 31.5607 88.6729 31.6068 88.6835 31.6513C88.694 31.6958 88.7134 31.7376 88.7406 31.7744C88.7675 31.8148 88.8031 31.8486 88.8448 31.8733C88.8865 31.8981 88.9333 31.9132 88.9816 31.9175C89.0676 31.9257 89.1535 31.9015 89.2226 31.8497L90.3523 31.0438C90.3896 31.0176 90.4212 30.9842 90.4452 30.9456C90.4693 30.9069 90.4853 30.8638 90.4923 30.8188C90.4994 30.7738 90.4973 30.7279 90.4861 30.6837C90.475 30.6396 90.4551 30.5981 90.4276 30.5618ZM87.6937 32.0982L86.5715 32.9116C86.5337 32.9372 86.5014 32.9702 86.4766 33.0086C86.4518 33.0469 86.4351 33.0899 86.4273 33.135C86.4196 33.18 86.421 33.2261 86.4316 33.2706C86.4421 33.315 86.4615 33.3569 86.4887 33.3936C86.5417 33.4684 86.6222 33.5191 86.7126 33.5346C86.8029 33.5502 86.8957 33.5293 86.9707 33.4765L88.0929 32.6631C88.1618 32.6079 88.2071 32.5285 88.2195 32.441C88.2318 32.3536 88.2103 32.2647 88.1594 32.1926C88.1084 32.1205 88.0318 32.0706 87.9453 32.053C87.8587 32.0355 87.7687 32.0516 87.6937 32.0982ZM83.7849 33.0999C83.696 33.0873 83.6055 33.0928 83.5189 33.1162C83.4322 33.1396 83.3512 33.1804 83.2808 33.236C83.2104 33.2917 83.152 33.361 83.1092 33.4399C83.0664 33.5188 83.04 33.6055 83.0317 33.6949C83.0202 33.7836 83.0265 33.8737 83.0503 33.9599C83.0742 34.0461 83.115 34.1267 83.1705 34.1969C83.2259 34.2671 83.2948 34.3255 83.3732 34.3686C83.4516 34.4117 83.5377 34.4387 83.6267 34.448C83.8035 34.467 83.9806 34.415 84.119 34.3034C84.2574 34.1918 84.3458 34.0298 84.3648 33.8531C84.3838 33.6763 84.3317 33.4992 84.2202 33.3608C84.1086 33.2224 83.9466 33.1339 83.7698 33.115L83.7849 33.0999ZM91.0151 32.6556C90.8839 32.6418 90.7517 32.6671 90.6348 32.7282C90.518 32.7893 90.4217 32.8835 90.3581 32.999C90.2946 33.1145 90.2665 33.2462 90.2773 33.3776C90.2882 33.509 90.3376 33.6343 90.4194 33.7377C90.5011 33.8412 90.6116 33.9183 90.7369 33.9593C90.8622 34.0003 90.9968 34.0034 91.1239 33.9683C91.251 33.9332 91.3649 33.8614 91.4514 33.7618C91.5378 33.6623 91.593 33.5394 91.6101 33.4087C91.6227 33.3198 91.6171 33.2293 91.5937 33.1427C91.5703 33.0561 91.5296 32.9751 91.4739 32.9046C91.4183 32.8342 91.3489 32.7758 91.2701 32.733C91.1912 32.6902 91.1044 32.6638 91.0151 32.6556ZM94.4569 27.2329L93.3348 28.0463C93.2969 28.0719 93.2646 28.1049 93.2399 28.1432C93.2151 28.1816 93.1983 28.2246 93.1906 28.2696C93.1828 28.3147 93.1843 28.3608 93.1948 28.4052C93.2054 28.4497 93.2248 28.4916 93.2519 28.5283C93.3046 28.6112 93.395 28.6654 93.4929 28.6714C93.5775 28.6765 93.6616 28.6554 93.7339 28.6112L94.8561 27.7978C94.8962 27.7728 94.9309 27.74 94.9578 27.7012C94.9848 27.6624 95.0035 27.6185 95.0129 27.5723C95.0223 27.526 95.0221 27.4782 95.0124 27.432C95.0026 27.3858 94.9836 27.3421 94.9563 27.3035C94.929 27.2649 94.8942 27.2323 94.8539 27.2077C94.8136 27.1831 94.7686 27.167 94.7219 27.1604C94.6751 27.1538 94.6275 27.1568 94.5819 27.1693C94.5364 27.1817 94.4938 27.2034 94.4569 27.2329ZM92.205 28.8597L91.0753 29.6656C91.0186 29.7066 90.9756 29.7639 90.9521 29.8298C90.9286 29.8958 90.9256 29.9673 90.9435 30.035C90.9615 30.1027 90.9995 30.1634 91.0526 30.209C91.1057 30.2546 91.1714 30.2831 91.241 30.2907C91.3218 30.3058 91.4052 30.2896 91.4745 30.2455L92.6042 29.4396C92.6732 29.3844 92.7185 29.305 92.7308 29.2176C92.7432 29.1301 92.7217 29.0413 92.6707 28.9692C92.6197 28.897 92.5432 28.8471 92.4566 28.8296C92.3701 28.812 92.2801 28.8282 92.205 28.8748V28.8597Z" fill="#FF9D6E"></path><path d="M90.4276 30.5618C90.4027 30.5242 90.3705 30.4921 90.3327 30.4674C90.295 30.4427 90.2526 30.4259 90.2082 30.4182C90.1638 30.4104 90.1183 30.4118 90.0744 30.4223C90.0305 30.4327 89.9893 30.452 89.9531 30.479L88.8234 31.2924C88.7856 31.3179 88.7533 31.3509 88.7285 31.3893C88.7037 31.4277 88.687 31.4707 88.6792 31.5157C88.6715 31.5607 88.6729 31.6068 88.6835 31.6513C88.694 31.6958 88.7134 31.7376 88.7406 31.7744C88.7675 31.8148 88.8031 31.8486 88.8448 31.8733C88.8865 31.8981 88.9333 31.9132 88.9816 31.9175C89.0676 31.9257 89.1535 31.9015 89.2226 31.8497L90.3523 31.0438C90.3896 31.0176 90.4212 30.9842 90.4452 30.9456C90.4693 30.9069 90.4853 30.8638 90.4923 30.8188C90.4994 30.7738 90.4973 30.7279 90.4861 30.6837C90.475 30.6396 90.4551 30.5981 90.4276 30.5618ZM88.0025 28.2948C87.8288 28.2826 87.6571 28.3385 87.5239 28.4507C87.3907 28.5628 87.3063 28.7224 87.2887 28.8957C87.2711 29.0689 87.3216 29.2422 87.4295 29.3789C87.5374 29.5156 87.6943 29.6049 87.8669 29.6279C87.9564 29.6405 88.0474 29.6347 88.1345 29.6109C88.2217 29.587 88.303 29.5456 88.3735 29.4892C88.444 29.4327 88.5023 29.3625 88.5447 29.2827C88.5871 29.203 88.6127 29.1154 88.6201 29.0254C88.6283 28.9367 88.6188 28.8473 88.5921 28.7623C88.5654 28.6773 88.522 28.5986 88.4645 28.5305C88.407 28.4625 88.3366 28.4067 88.2572 28.3662C88.1779 28.3257 88.0913 28.3015 88.0025 28.2948ZM83.7849 33.0999C83.696 33.0873 83.6055 33.0928 83.5189 33.1162C83.4322 33.1396 83.3512 33.1804 83.2808 33.236C83.2104 33.2917 83.152 33.361 83.1092 33.4399C83.0664 33.5188 83.04 33.6055 83.0317 33.6949C83.0202 33.7836 83.0265 33.8737 83.0503 33.9599C83.0742 34.0461 83.115 34.1267 83.1705 34.1969C83.2259 34.2671 83.2948 34.3255 83.3732 34.3686C83.4516 34.4117 83.5377 34.4387 83.6267 34.448C83.8035 34.467 83.9806 34.415 84.119 34.3034C84.2574 34.1918 84.3458 34.0298 84.3648 33.8531C84.3838 33.6763 84.3317 33.4992 84.2202 33.3608C84.1086 33.2224 83.9466 33.1339 83.7698 33.115L83.7849 33.0999ZM87.6937 32.0982L86.5715 32.9116C86.5337 32.9372 86.5014 32.9702 86.4766 33.0086C86.4518 33.0469 86.4351 33.0899 86.4273 33.135C86.4196 33.18 86.421 33.2261 86.4316 33.2706C86.4421 33.315 86.4615 33.3569 86.4887 33.3936C86.5417 33.4684 86.6222 33.5191 86.7126 33.5346C86.8029 33.5502 86.8957 33.5293 86.9707 33.4765L88.0929 32.6631C88.1618 32.6079 88.2071 32.5285 88.2195 32.441C88.2318 32.3536 88.2103 32.2647 88.1594 32.1926C88.1084 32.1205 88.0318 32.0706 87.9453 32.053C87.8587 32.0355 87.7687 32.0516 87.6937 32.0982ZM92.205 28.8597L91.0753 29.6656C91.0186 29.7066 90.9756 29.7639 90.9521 29.8298C90.9286 29.8958 90.9256 29.9673 90.9435 30.035C90.9615 30.1027 90.9995 30.1634 91.0526 30.209C91.1057 30.2546 91.1714 30.2831 91.241 30.2907C91.3218 30.3058 91.4052 30.2896 91.4745 30.2455L92.6042 29.4396C92.6732 29.3844 92.7185 29.305 92.7308 29.2176C92.7432 29.1301 92.7217 29.0413 92.6707 28.9692C92.6197 28.897 92.5432 28.8471 92.4566 28.8296C92.3701 28.812 92.2801 28.8282 92.205 28.8748V28.8597ZM94.4569 27.2329L93.3348 28.0463C93.2969 28.0719 93.2646 28.1049 93.2399 28.1432C93.2151 28.1816 93.1983 28.2246 93.1906 28.2696C93.1828 28.3147 93.1843 28.3608 93.1948 28.4052C93.2054 28.4497 93.2248 28.4916 93.2519 28.5283C93.3046 28.6112 93.395 28.6654 93.4929 28.6714C93.5775 28.6765 93.6616 28.6554 93.7339 28.6112L94.8561 27.7978C94.8962 27.7728 94.9309 27.74 94.9578 27.7012C94.9848 27.6624 95.0035 27.6185 95.0129 27.5723C95.0223 27.526 95.0221 27.4782 95.0124 27.432C95.0026 27.3858 94.9836 27.3421 94.9563 27.3035C94.929 27.2649 94.8942 27.2323 94.8539 27.2077C94.8136 27.1831 94.7686 27.167 94.7219 27.1604C94.6751 27.1538 94.6275 27.1568 94.5819 27.1693C94.5364 27.1817 94.4938 27.2034 94.4569 27.2329ZM91.0151 32.6556C90.8839 32.6418 90.7517 32.6671 90.6348 32.7282C90.518 32.7893 90.4217 32.8835 90.3581 32.999C90.2946 33.1145 90.2665 33.2462 90.2773 33.3776C90.2882 33.509 90.3376 33.6343 90.4194 33.7377C90.5011 33.8412 90.6116 33.9183 90.7369 33.9593C90.8622 34.0003 90.9968 34.0034 91.1239 33.9683C91.251 33.9332 91.3649 33.8614 91.4514 33.7618C91.5378 33.6623 91.593 33.5394 91.6101 33.4087C91.6227 33.3198 91.6171 33.2293 91.5937 33.1427C91.5703 33.0561 91.5296 32.9751 91.4739 32.9046C91.4183 32.8342 91.3489 32.7758 91.2701 32.733C91.1912 32.6902 91.1044 32.6638 91.0151 32.6556Z" fill="#FF9D6E"></path><path d="M90.4276 30.5618C90.4027 30.5242 90.3705 30.4921 90.3327 30.4674C90.295 30.4427 90.2526 30.4259 90.2082 30.4182C90.1638 30.4104 90.1183 30.4118 90.0744 30.4223C90.0305 30.4327 89.9893 30.452 89.9531 30.479L88.8234 31.2924C88.7856 31.3179 88.7533 31.3509 88.7285 31.3893C88.7037 31.4277 88.687 31.4707 88.6792 31.5157C88.6715 31.5607 88.6729 31.6068 88.6835 31.6513C88.694 31.6958 88.7134 31.7376 88.7406 31.7744C88.7675 31.8148 88.8031 31.8486 88.8448 31.8733C88.8865 31.8981 88.9333 31.9132 88.9816 31.9175C89.0676 31.9257 89.1535 31.9015 89.2226 31.8497L90.3523 31.0438C90.3896 31.0176 90.4212 30.9842 90.4452 30.9456C90.4693 30.9069 90.4853 30.8638 90.4923 30.8188C90.4994 30.7738 90.4973 30.7279 90.4861 30.6837C90.475 30.6396 90.4551 30.5981 90.4276 30.5618ZM88.0025 28.2948C87.8288 28.2826 87.6571 28.3385 87.5239 28.4507C87.3907 28.5628 87.3063 28.7224 87.2887 28.8957C87.2711 29.0689 87.3216 29.2422 87.4295 29.3789C87.5374 29.5156 87.6943 29.6049 87.8669 29.6279C87.9564 29.6405 88.0474 29.6347 88.1345 29.6109C88.2217 29.587 88.303 29.5456 88.3735 29.4892C88.444 29.4327 88.5023 29.3625 88.5447 29.2827C88.5871 29.203 88.6127 29.1154 88.6201 29.0254C88.6283 28.9367 88.6188 28.8473 88.5921 28.7623C88.5654 28.6773 88.522 28.5986 88.4645 28.5305C88.407 28.4625 88.3366 28.4067 88.2572 28.3662C88.1779 28.3257 88.0913 28.3015 88.0025 28.2948ZM83.7849 33.0999C83.696 33.0873 83.6055 33.0928 83.5189 33.1162C83.4322 33.1396 83.3512 33.1804 83.2808 33.236C83.2104 33.2917 83.152 33.361 83.1092 33.4399C83.0664 33.5188 83.04 33.6055 83.0317 33.6949C83.0202 33.7836 83.0265 33.8737 83.0503 33.9599C83.0742 34.0461 83.115 34.1267 83.1705 34.1969C83.2259 34.2671 83.2948 34.3255 83.3732 34.3686C83.4516 34.4117 83.5377 34.4387 83.6267 34.448C83.8035 34.467 83.9806 34.415 84.119 34.3034C84.2574 34.1918 84.3458 34.0298 84.3648 33.8531C84.3838 33.6763 84.3317 33.4992 84.2202 33.3608C84.1086 33.2224 83.9466 33.1339 83.7698 33.115L83.7849 33.0999ZM87.6937 32.0982L86.5715 32.9116C86.5337 32.9372 86.5014 32.9702 86.4766 33.0086C86.4518 33.0469 86.4351 33.0899 86.4273 33.135C86.4196 33.18 86.421 33.2261 86.4316 33.2706C86.4421 33.315 86.4615 33.3569 86.4887 33.3936C86.5417 33.4684 86.6222 33.5191 86.7126 33.5346C86.8029 33.5502 86.8957 33.5293 86.9707 33.4765L88.0929 32.6631C88.1618 32.6079 88.2071 32.5285 88.2195 32.441C88.2318 32.3536 88.2103 32.2647 88.1594 32.1926C88.1084 32.1205 88.0318 32.0706 87.9453 32.053C87.8587 32.0355 87.7687 32.0516 87.6937 32.0982ZM92.205 28.8597L91.0753 29.6656C91.0186 29.7066 90.9756 29.7639 90.9521 29.8298C90.9286 29.8958 90.9256 29.9673 90.9435 30.035C90.9615 30.1027 90.9995 30.1634 91.0526 30.209C91.1057 30.2546 91.1714 30.2831 91.241 30.2907C91.3218 30.3058 91.4052 30.2896 91.4745 30.2455L92.6042 29.4396C92.6732 29.3844 92.7185 29.305 92.7308 29.2176C92.7432 29.1301 92.7217 29.0413 92.6707 28.9692C92.6197 28.897 92.5432 28.8471 92.4566 28.8296C92.3701 28.812 92.2801 28.8282 92.205 28.8748V28.8597ZM91.0151 32.6556C90.8839 32.6418 90.7517 32.6671 90.6348 32.7282C90.518 32.7893 90.4217 32.8835 90.3581 32.999C90.2946 33.1145 90.2665 33.2462 90.2773 33.3776C90.2882 33.509 90.3376 33.6343 90.4194 33.7377C90.5011 33.8412 90.6116 33.9183 90.7369 33.9593C90.8622 34.0003 90.9968 34.0034 91.1239 33.9683C91.251 33.9332 91.3649 33.8614 91.4514 33.7618C91.5378 33.6623 91.593 33.5394 91.6101 33.4087C91.6227 33.3198 91.6171 33.2293 91.5937 33.1427C91.5703 33.0561 91.5296 32.9751 91.4739 32.9046C91.4183 32.8342 91.3489 32.7758 91.2701 32.733C91.1912 32.6902 91.1044 32.6638 91.0151 32.6556ZM94.4569 27.2329L93.3348 28.0463C93.2969 28.0719 93.2646 28.1049 93.2399 28.1432C93.2151 28.1816 93.1983 28.2246 93.1906 28.2696C93.1828 28.3147 93.1843 28.3608 93.1948 28.4052C93.2054 28.4497 93.2248 28.4916 93.2519 28.5283C93.3046 28.6112 93.395 28.6654 93.4929 28.6714C93.5775 28.6765 93.6616 28.6554 93.7339 28.6112L94.8561 27.7978C94.8962 27.7728 94.9309 27.74 94.9578 27.7012C94.9848 27.6624 95.0035 27.6185 95.0129 27.5723C95.0223 27.526 95.0221 27.4782 95.0124 27.432C95.0026 27.3858 94.9836 27.3421 94.9563 27.3035C94.929 27.2649 94.8942 27.2323 94.8539 27.2077C94.8136 27.1831 94.7686 27.167 94.7219 27.1604C94.6751 27.1538 94.6275 27.1568 94.5819 27.1693C94.5364 27.1817 94.4938 27.2034 94.4569 27.2329Z" fill="white"></path><path d="M96.7993 25.6289C96.4755 25.1695 94.5399 26.126 93.7867 26.6155L90.4955 28.9955L82.8812 23.6331L81.9548 24.2958L87.9122 30.8557L85.0427 32.9419C84.4327 33.3712 81.8946 32.0306 81.8946 32.0306L81.5029 32.3168L83.0092 34.4106L82.2561 34.9679L82.5197 35.3445H83.7624L85.2235 37.3328L85.7657 36.9411L85.2235 35.3746L89.1022 32.5578L92.9884 39.6374L93.9148 38.9671L91.6478 30.7879L94.9616 28.3779L95.037 28.3101C95.7675 27.7452 97.1232 26.0657 96.7993 25.6289ZM83.6419 34.4332C83.553 34.4257 83.4666 34.4005 83.3876 34.3592C83.3086 34.3179 83.2386 34.2613 83.1817 34.1926C83.1249 34.1239 83.0823 34.0445 83.0565 33.9592C83.0307 33.8739 83.0222 33.7842 83.0315 33.6955C83.0408 33.6069 83.0676 33.5209 83.1105 33.4428C83.1534 33.3646 83.2115 33.2958 83.2813 33.2403C83.3511 33.1849 83.4313 33.1439 83.5171 33.1198C83.6029 33.0958 83.6927 33.089 83.7812 33.1001C83.9553 33.1218 84.1139 33.211 84.223 33.3483C84.3322 33.4857 84.3831 33.6604 84.3648 33.8349C84.3466 34.0094 84.2607 34.1698 84.1255 34.2816C83.9903 34.3935 83.8167 34.4479 83.6419 34.4332ZM88.093 32.6633L86.9708 33.4767C86.8958 33.5294 86.803 33.5504 86.7126 33.5348C86.6223 33.5193 86.5418 33.4686 86.4888 33.3938C86.4616 33.3571 86.4422 33.3152 86.4317 33.2708C86.4211 33.2263 86.4197 33.1802 86.4274 33.1352C86.4352 33.0901 86.4519 33.0471 86.4767 33.0088C86.5015 32.9704 86.5338 32.9374 86.5716 32.9118L87.6938 32.0984C87.7688 32.0518 87.8588 32.0357 87.9454 32.0532C88.0319 32.0707 88.1085 32.1207 88.1595 32.1928C88.2104 32.2649 88.2319 32.3538 88.2196 32.4412C88.2072 32.5287 88.1619 32.6081 88.093 32.6633ZM87.867 29.6507C87.6944 29.6277 87.5375 29.5384 87.4296 29.4017C87.3217 29.265 87.2712 29.0917 87.2888 28.9185C87.3064 28.7452 87.3908 28.5856 87.524 28.4735C87.6572 28.3613 87.8289 28.3054 88.0026 28.3176C88.0922 28.326 88.1792 28.3523 88.2584 28.395C88.3377 28.4378 88.4075 28.496 88.4637 28.5663C88.5199 28.6366 88.5614 28.7175 88.5857 28.8041C88.61 28.8908 88.6166 28.9815 88.6051 29.0708C88.579 29.2415 88.4872 29.3953 88.3493 29.4995C88.2115 29.6036 88.0384 29.6497 87.867 29.6281V29.6507ZM88.9817 31.9101C88.9333 31.9058 88.8866 31.8908 88.8449 31.866C88.8032 31.8412 88.7675 31.8074 88.7407 31.767C88.7135 31.7303 88.6941 31.6884 88.6836 31.644C88.673 31.5995 88.6716 31.5534 88.6793 31.5084C88.6871 31.4633 88.7038 31.4203 88.7286 31.382C88.7534 31.3436 88.7857 31.3106 88.8235 31.285L89.9532 30.4716C89.9894 30.4447 90.0306 30.4254 90.0745 30.4149C90.1184 30.4045 90.1639 30.4031 90.2083 30.4108C90.2527 30.4186 90.2951 30.4353 90.3328 30.46C90.3705 30.4847 90.4028 30.5169 90.4277 30.5545C90.4552 30.5908 90.4751 30.6322 90.4862 30.6764C90.4974 30.7205 90.4995 30.7665 90.4924 30.8115C90.4854 30.8565 90.4694 30.8996 90.4453 30.9382C90.4213 30.9769 90.3896 31.0103 90.3524 31.0365L89.2227 31.8423C89.1566 31.8951 89.0736 31.9219 88.9892 31.9177L88.9817 31.9101ZM90.8796 34.0114C90.7491 33.9946 90.6265 33.9397 90.5269 33.8537C90.4274 33.7676 90.3554 33.6542 90.3199 33.5275C90.2844 33.4008 90.287 33.2665 90.3273 33.1412C90.3676 33.016 90.4439 32.9054 90.5466 32.8232C90.6493 32.741 90.774 32.6909 90.905 32.679C91.0361 32.6672 91.1677 32.6942 91.2835 32.7566C91.3993 32.8191 91.4942 32.9142 91.5563 33.0302C91.6184 33.1462 91.645 33.2779 91.6327 33.4089C91.6254 33.4989 91.5998 33.5865 91.5574 33.6662C91.515 33.746 91.4567 33.8162 91.3862 33.8727C91.3157 33.9291 91.2343 33.9705 91.1472 33.9944C91.0601 34.0182 90.969 34.024 90.8796 34.0114ZM92.6043 29.4247L91.4746 30.2457C91.3996 30.2923 91.3096 30.3084 91.223 30.2909C91.1365 30.2733 91.0599 30.2234 91.0089 30.1513C90.9579 30.0792 90.9364 29.9903 90.9488 29.9028C90.9612 29.8154 91.0064 29.736 91.0754 29.6808L92.2051 28.8749C92.2802 28.8284 92.3701 28.8122 92.4567 28.8297C92.5432 28.8473 92.6198 28.8972 92.6708 28.9693C92.7218 29.0415 92.7433 29.1303 92.7309 29.2178C92.7185 29.3052 92.6733 29.3846 92.6043 29.4398V29.4247ZM94.8637 27.798L93.734 28.6113C93.6617 28.6556 93.5776 28.6766 93.493 28.6716C93.4444 28.6684 93.3972 28.6538 93.3553 28.629C93.3134 28.6041 93.278 28.5697 93.252 28.5285C93.2249 28.4917 93.2055 28.4499 93.1949 28.4054C93.1844 28.361 93.1829 28.3149 93.1907 28.2698C93.1984 28.2248 93.2152 28.1818 93.2399 28.1434C93.2647 28.1051 93.297 28.0721 93.3348 28.0465L94.457 27.2331C94.4928 27.1985 94.5357 27.1721 94.5826 27.1556C94.6295 27.1391 94.6795 27.1329 94.729 27.1374C94.7786 27.1419 94.8266 27.1571 94.8697 27.1818C94.9129 27.2065 94.9503 27.2402 94.9792 27.2807C95.0082 27.3211 95.0281 27.3674 95.0376 27.4162C95.0471 27.465 95.046 27.5153 95.0344 27.5637C95.0227 27.6121 95.0007 27.6574 94.97 27.6965C94.9392 27.7356 94.9004 27.7676 94.8562 27.7904L94.8637 27.798Z" fill="#FFBC00"></path><path d="M32.172 44.1185H25.7251V67.1044H32.172C37.5645 67.1044 39.9897 63.2032 39.9897 60.4316V50.9118C39.9897 46.6565 37.0675 44.1185 32.172 44.1185ZM28.3084 46.4381H32.172C33.7461 46.4381 37.444 46.8825 37.444 50.957V60.3713C37.444 61.8174 36.1637 64.7998 32.2097 64.7998H28.3084V46.4381ZM53.8475 43.6289C50.2852 43.6289 46.6776 46.0616 46.6776 50.7235V60.2358C46.6776 65.2969 50.2776 67.5639 53.8475 67.5639C57.4174 67.5639 61.0175 65.3044 61.0175 60.2358V50.7235C61.0175 46.0616 57.4099 43.6289 53.8475 43.6289ZM49.2609 50.5277C49.2609 49.3113 49.7441 48.1446 50.6043 47.2845C51.4645 46.4243 52.6311 45.9411 53.8475 45.9411C55.064 45.9411 56.2306 46.4243 57.0908 47.2845C57.951 48.1446 58.4342 49.3113 58.4342 50.5277V60.4316C58.4342 63.3086 56.5513 65.3195 53.8475 65.3195C51.1438 65.3195 49.2609 63.3086 49.2609 60.4316V50.5277ZM80.0645 53.8642H70.2812V44.1185H67.6979V67.1044H70.2812V56.1838H80.0645V67.1044H82.6478V44.1185H80.0645V53.8642ZM96.5208 43.6289C92.9508 43.6289 89.3433 46.0616 89.3433 50.7235V60.2358C89.3433 65.2969 92.9508 67.5639 96.5208 67.5639C100.091 67.5639 103.691 65.3044 103.691 60.2358V50.7235C103.683 46.0616 100.076 43.6289 96.5208 43.6289ZM91.9266 50.5277C91.9015 49.9103 92.0015 49.2941 92.2206 48.7162C92.4396 48.1384 92.7731 47.6108 93.2012 47.165C93.6292 46.7193 94.1429 46.3646 94.7114 46.1224C95.2799 45.8801 95.8915 45.7552 96.5095 45.7552C97.1274 45.7552 97.739 45.8801 98.3075 46.1224C98.876 46.3646 99.3897 46.7193 99.8178 47.165C100.246 47.6108 100.579 48.1384 100.798 48.7162C101.017 49.2941 101.117 49.9103 101.092 50.5277V60.4316C101.092 63.3086 99.2095 65.3195 96.5132 65.3195C93.817 65.3195 91.9266 63.3086 91.9266 60.4316V50.5277ZM117.827 44.1185H110.386V67.1044H112.977V57.4341H118.016C121.103 57.4341 124.425 55.2876 124.425 50.5654C124.425 46.1143 121.111 44.1185 117.827 44.1185ZM118.016 55.1144H112.977V46.4381H117.609C119.198 46.4381 121.894 47.3269 121.894 50.6482C121.879 52.7043 120.862 55.0993 118.016 55.0993V55.1144Z" fill="#00005E"></path><path d="M55.8658 25.2446L68.5488 30.607L64.8358 39.3209L52.1528 33.9585L55.8658 25.2446Z" fill="#00D2FF"></path><path d="M56.2727 31.752C56.1959 31.721 56.1299 31.668 56.0831 31.5997C56.0362 31.5314 56.0105 31.4508 56.0091 31.3679L55.9262 29.1461C55.9235 29.0857 55.9328 29.0253 55.9534 28.9684C55.9741 28.9116 56.0058 28.8593 56.0468 28.8148C56.1266 28.7244 56.2361 28.6656 56.3555 28.6491L59.8652 28.4081C59.9246 28.405 59.9839 28.4137 60.0399 28.4337C60.0959 28.4536 60.1474 28.4844 60.1915 28.5243C60.2356 28.5641 60.2714 28.6123 60.2968 28.6661C60.3222 28.7198 60.3368 28.778 60.3397 28.8374L60.4225 31.0441C60.4236 31.1668 60.3778 31.2853 60.2945 31.3755C60.2577 31.421 60.212 31.4585 60.1602 31.4857C60.1084 31.5129 60.0516 31.5292 59.9932 31.5336L56.476 31.7596C56.4103 31.7831 56.3384 31.7831 56.2727 31.7596V31.752ZM56.8451 29.5528L56.8903 30.8407L59.5188 30.66L59.4736 29.3721L56.8451 29.5528ZM62.1472 36.3462C61.9021 36.2363 61.6812 36.0791 61.497 35.8836C61.3127 35.6881 61.1689 35.4581 61.0738 35.207C60.9786 34.9558 60.934 34.6883 60.9424 34.4198C60.9509 34.1513 61.0122 33.8871 61.123 33.6424C61.3287 33.1405 61.7238 32.7397 62.2227 32.5269C62.7217 32.3141 63.2844 32.3063 63.7891 32.5052C64.0346 32.6135 64.2561 32.7696 64.4408 32.9642C64.6255 33.1589 64.7696 33.3883 64.8649 33.6392C64.9602 33.89 65.0047 34.1573 64.9959 34.4255C64.987 34.6937 64.925 34.9574 64.8134 35.2014C64.6105 35.7061 64.2166 36.1103 63.7173 36.3261C63.2181 36.5418 62.6538 36.5518 62.1472 36.3537V36.3462ZM63.42 33.3412C63.2122 33.245 62.9804 33.2129 62.7543 33.2491C62.5282 33.2852 62.318 33.3879 62.1504 33.544C61.9829 33.7002 61.8657 33.9027 61.8138 34.1257C61.7619 34.3488 61.7776 34.5822 61.859 34.7963C61.9403 35.0103 62.0836 35.1953 62.2705 35.3276C62.4575 35.4599 62.6796 35.5334 62.9085 35.5389C63.1374 35.5444 63.3628 35.4816 63.5559 35.3584C63.7489 35.2353 63.9009 35.0574 63.9924 34.8475C64.0539 34.7113 64.088 34.5644 64.0927 34.4151C64.0974 34.2658 64.0727 34.117 64.0199 33.9773C63.9671 33.8375 63.8872 33.7096 63.785 33.6007C63.6827 33.4918 63.56 33.4041 63.4238 33.3427L63.42 33.3412Z" fill="white"></path><path d="M59.8424 26.9317L60.6483 25.0337L65.3705 27.0371L64.5646 28.935L65.3856 29.289L66.3948 26.9543C66.4209 26.9007 66.4357 26.8423 66.4384 26.7827C66.4411 26.7232 66.4316 26.6637 66.4104 26.6079C66.3893 26.5522 66.3569 26.5014 66.3154 26.4586C66.2738 26.4158 66.2239 26.382 66.1688 26.3593L60.6031 24.0095C60.4911 23.9645 60.366 23.9653 60.2547 24.0118C60.1433 24.0583 60.0548 24.1467 60.0081 24.258L59.0215 26.5852L59.8424 26.9317Z" fill="#00D2FF"></path></g><defs><clipPath id="clip0_36_610"><rect width="98.775" height="44.0967" fill="white" transform="translate(25.7249 23.4673)"></rect></clipPath></defs></svg> 