<?xml version="1.0" encoding="UTF-8"?> <svg xmlns="http://www.w3.org/2000/svg" width="150" height="91" viewBox="0 0 150 91" fill="none"><rect width="150" height="90" transform="translate(0 0.0634766)" fill="white"></rect><path d="M81.7743 48.1513H77.8379V41.938H81.7743V43.0514H79.2471V44.4676H81.4905V45.5934H79.2471V46.9807H81.7743V48.1513Z" fill="#333031"></path><path d="M77.8379 57.1081V50.8931H81.7746V52.0082H79.2468V53.4234H81.4905V54.5488H79.2468V57.1081H77.8379Z" fill="#333031"></path><path d="M85.7363 43.085C85.5189 43.085 85.2767 43.0793 85.1496 43.0871V46.9829C85.3159 46.9868 85.5605 46.9783 85.7278 46.9783C86.3181 46.9783 87.7562 46.7294 87.7562 44.9827C87.7562 43.4874 86.3096 43.085 85.7359 43.085H85.7363ZM84.1418 48.1171H83.9766V41.9532H84.1167C84.3677 41.9532 84.6459 41.9508 84.9519 41.9444C85.0691 41.9444 85.1987 41.9437 85.3409 41.9402C85.4828 41.9373 85.5926 41.9352 85.671 41.931C85.749 41.9285 85.8069 41.9268 85.8461 41.9268C86.9436 41.9268 89.1294 42.7969 89.1294 44.9824C89.1294 47.5516 86.849 48.1344 85.779 48.1344C85.5619 48.1344 85.3198 48.1323 85.0525 48.1256C84.7849 48.1196 84.4817 48.1167 84.1418 48.1167V48.1171Z" fill="#333031"></path><path d="M94.4876 41.9548H95.7839V45.5735C95.7839 46.4603 95.5618 47.1232 95.1195 47.5641C94.6825 48.0036 94.1318 48.2243 93.4674 48.2243C92.7113 48.2243 92.1119 47.9927 91.6699 47.5292C91.2216 47.0593 90.9971 46.3879 90.9971 45.5121V41.9552H92.2933V45.2127C92.2933 46.3403 92.6844 46.9968 93.4674 46.9968C93.8293 46.9968 94.0898 46.7713 94.2493 46.5072C94.4089 46.2442 94.488 45.8383 94.488 45.2932V41.9555L94.4876 41.9548Z" fill="#333031"></path><path d="M108.956 45.5899L108.152 43.5001L107.34 45.5899H108.956V45.5899ZM106.417 48.1298H105.117L107.562 41.9656H108.822L111.267 48.1298H109.878L109.484 46.7068H106.811L106.417 48.1298Z" fill="#333031"></path><path d="M113.726 43.2582H111.76V41.938H116.866V43.2582H114.901V48.1005H113.726V43.2582Z" fill="#333031"></path><path d="M119.93 48.1005H118.788V41.938H119.93V48.1005Z" fill="#333031"></path><path d="M123.391 45.0192C123.391 45.5417 123.564 45.985 123.91 46.3497C124.25 46.7066 124.67 46.8856 125.169 46.8856C125.732 46.8856 126.169 46.7126 126.481 46.3673C126.792 46.0087 126.947 45.5593 126.947 45.0192C126.947 44.4615 126.777 44.0131 126.437 43.6721C126.09 43.3255 125.668 43.1525 125.169 43.1525C124.653 43.1525 124.227 43.3255 123.892 43.6721C123.558 44.0184 123.391 44.4678 123.391 45.0192H123.391ZM121.894 45.0192C121.894 44.1095 122.196 43.353 122.801 42.7476C123.411 42.138 124.201 41.8315 125.17 41.8315C126.132 41.8315 126.916 42.1221 127.52 42.7038C128.137 43.2852 128.445 44.0573 128.445 45.0192C128.445 45.9476 128.134 46.7105 127.512 47.3095C126.895 47.9072 126.115 48.2065 125.17 48.2065C124.213 48.2065 123.426 47.916 122.81 47.3356C122.2 46.7542 121.894 45.9822 121.894 45.0192V45.0192Z" fill="#333031"></path><path d="M135.666 41.9656V48.1298H134.539L131.616 44.4317V48.1298H130.295V41.9656H131.422L134.345 45.6817V41.9656H135.666Z" fill="#333031"></path><path d="M100.336 52.2375H98.3708V50.9169H103.477V52.2375H101.512V57.0807H100.336V52.2375Z" fill="#333031"></path><path d="M85.1185 57.0811H83.9766V50.9169H85.1185V57.0811Z" fill="#333031"></path><path d="M88.5558 52.0765C88.4707 52.0786 88.3175 52.0807 88.2229 52.0807V53.7504H88.716C89.2597 53.7504 89.6949 53.372 89.6949 52.8958C89.6949 51.9995 88.65 52.074 88.5561 52.0765H88.5558ZM88.2359 54.8832V57.0881H87.0862V50.9239C87.3704 50.9239 87.6842 50.9218 88.0277 50.9151C88.3722 50.9091 88.6511 50.9062 88.8654 50.9062C90.156 50.9062 90.9146 51.7785 90.9146 52.881C90.9146 53.7261 90.5545 54.2704 89.9664 54.6114L91.3516 57.0881H89.9014L88.77 54.8832H88.2359Z" fill="#333031"></path><path d="M95.8304 55.404C95.864 54.9313 95.6723 54.8378 94.1886 54.1162C93.3629 53.7138 93.1779 53.0735 93.1779 52.5884C93.1779 51.1372 94.5645 50.811 95.1611 50.811C95.9451 50.811 96.6229 51.1524 97.1108 51.8513L96.2145 52.5447C96.045 52.3872 95.613 51.9608 95.2112 51.9325C94.5561 51.8884 94.4893 52.4335 94.4879 52.575C94.4837 53.172 95.4626 53.4342 95.697 53.5239C96.5626 53.8522 96.84 54.1773 97.0441 54.5388C97.1761 54.7743 97.186 55.0538 97.186 55.3708C97.186 56.0528 96.6289 57.1302 95.1262 57.1853C93.6287 57.24 92.9834 55.7969 92.8433 55.4852L93.9277 54.9561C94.0855 55.1629 94.3933 55.9741 95.1664 55.9868C95.7309 55.996 95.8205 55.5502 95.8304 55.4037V55.404Z" fill="#333031"></path><path d="M102.087 46.3935C101.782 46.7413 101.353 46.9139 100.8 46.9139C100.311 46.9139 99.8986 46.7345 99.5646 46.3759C99.2254 46.013 99.0552 45.5693 99.0552 45.0468C99.0552 44.4944 99.2194 44.0457 99.5477 43.699C99.8763 43.3527 100.294 43.1801 100.8 43.1801C101.289 43.1801 101.704 43.3527 102.043 43.699C102.267 43.9264 102.393 44.188 102.52 44.4926L103.796 43.7725C103.645 43.375 103.416 43.028 103.106 42.7307C102.513 42.1507 101.744 41.8599 100.8 41.8599C99.8502 41.8599 99.0753 42.1642 98.477 42.7759C97.8836 43.3792 97.5874 44.1375 97.5874 45.0468C97.5874 46.0091 97.8868 46.7808 98.4855 47.3618C99.0898 47.9429 99.8611 48.2341 100.799 48.2341C101.726 48.2341 102.493 47.9344 103.097 47.3357C103.393 47.0456 103.617 46.7169 103.77 46.3498L102.511 45.6353C102.398 45.9435 102.28 46.1687 102.087 46.3935V46.3935Z" fill="#333031"></path><path d="M15.7872 53.5615L15 57.3715H17.5049C17.4001 57.1964 17.2953 57.0175 17.1925 56.8335C16.5342 55.6531 16.0908 54.5319 15.7872 53.5612V53.5615Z" fill="#333031"></path><path d="M20.3365 31.5632L19.6135 35.0587C20.4304 33.922 21.3832 32.7419 22.4941 31.5632H20.3365V31.5632Z" fill="#333031"></path><path d="M19.3081 52.1157C18.714 49.6771 18.7839 47.7176 18.8195 47.0712C18.9381 44.9239 19.4422 43.3657 19.8503 42.1355C20.3509 40.6264 21.3379 37.7388 23.8096 34.7594C24.3995 34.0491 25.4949 32.8249 27.1276 31.5632H23.7313C22.7383 32.51 21.1924 34.0823 19.7779 36.3137C19.5838 36.6197 19.3628 36.9851 19.1277 37.4066L16.2073 51.4898C16.4035 52.7342 16.7103 53.6043 16.9482 54.3665C17.3372 55.6108 17.6793 56.2819 18.0058 56.8065C18.1329 57.0098 18.2618 57.1983 18.3892 57.3723H21.6231C21.3933 57.0518 21.2119 56.7623 21.0703 56.5354C19.9661 54.7608 19.5661 53.1776 19.3077 52.115L19.3081 52.1157Z" fill="#333031"></path><path d="M56.2533 48.4357L57.6004 41.9196H55.6691C55.5561 43.6461 55.1929 45.9174 54.2271 48.434L56.2533 48.4357V48.4357Z" fill="#333031"></path><path d="M58.6504 36.8492L59.7433 31.5632H56.8391C56.9874 31.8192 57.1335 32.0889 57.274 32.3727C58.0789 33.9944 58.4682 35.5505 58.6504 36.8492V36.8492Z" fill="#333031"></path><path d="M55.7924 31.5636H52.7163C53.0997 31.9798 53.4742 32.4517 53.8223 32.9873C54.9212 34.6828 55.3074 36.3246 55.5001 37.7215H57.8911C57.7993 36.6677 57.5741 35.4742 57.1123 34.2171C56.7258 33.1641 56.252 32.2805 55.7921 31.5632L55.7924 31.5636Z" fill="#333031"></path><path d="M27.1997 57.1058C26.8873 56.8675 25.7164 55.9589 24.7858 54.7735C23.0049 52.5033 22.66 49.932 22.5351 48.9965C21.696 42.743 25.7736 37.6805 26.5752 36.685C28.8959 33.8038 31.5519 32.265 33.0208 31.5632H28.5464C27.989 31.9568 27.5869 32.2848 27.3529 32.4814C25.5021 34.0378 24.4152 35.5512 23.7731 36.4584C22.8616 37.7472 21.1393 40.2313 20.2659 43.9446C19.9224 45.405 19.3057 48.1535 20.0125 51.5015C20.5568 54.0763 21.6239 55.7707 22.0373 56.3825C22.307 56.7803 22.5615 57.1083 22.7867 57.373H27.5626C27.4429 57.2876 27.3218 57.198 27.1997 57.1062V57.1058Z" fill="#333031"></path><path d="M50.4114 48.4311L53.3149 48.4333C53.9644 46.9471 54.6916 44.787 54.86 42.1363C54.8642 42.0675 54.8688 41.9958 54.8734 41.9196H51.8919C51.8767 44.5516 51.1534 46.7939 50.4114 48.4311V48.4311Z" fill="#333031"></path><path d="M50.2247 35.1939C50.7567 36.0729 51.1083 36.93 51.3441 37.7211H54.5999C54.5434 37.4546 54.4778 37.181 54.4008 36.9014C54.0715 35.6998 53.5077 33.7296 51.8789 31.9113C51.7706 31.7906 51.6611 31.6748 51.5503 31.5632H46.6802C47.808 32.2954 49.1696 33.4501 50.2251 35.1939H50.2247Z" fill="#333031"></path><path d="M45.7565 57.3736L46.448 54.0271C45.3085 55.1479 43.809 56.3743 41.968 57.3736H45.7565Z" fill="#333031"></path><path d="M33.2843 56.2907C32.8755 56.2208 32.238 56.081 31.5115 55.8032C30.0151 55.2303 28.9751 54.3873 28.447 53.9055C27.4007 52.9488 26.7455 51.9314 26.3632 51.2014H24.5403L25.3441 47.3152C25.3275 46.8785 25.3427 46.5191 25.3554 46.2572C25.4277 44.74 25.809 43.6315 26.0872 42.8404C26.1708 42.6043 26.4077 41.953 26.8592 41.0853H26.6693L27.3661 37.7147H29.1975C30.3713 36.4097 31.4338 35.6444 31.7282 35.4368C34.3956 33.5574 36.9316 33.0981 37.4957 33.006C37.6874 32.9735 37.8942 32.9403 38.118 32.91L38.3958 31.5632H34.6123C32.035 32.6127 30.2163 34.2002 29.4499 34.8684C28.2575 35.907 24.2491 39.501 23.5113 45.3355C23.3439 46.6596 22.8766 50.3482 24.9212 53.4713C26.0625 55.2155 27.7827 56.4725 27.9853 56.6169C28.2645 56.8178 28.6468 57.0906 29.1403 57.373H33.0601L33.2836 56.2911L33.2843 56.2907Z" fill="#333031"></path><path d="M41.4983 32.9739C41.5756 32.989 41.654 33.006 41.733 33.0233C43.8087 33.4875 45.1664 34.5052 45.5572 34.8137C46.9321 35.896 47.713 37.1418 48.1334 37.9862C48.7738 39.2729 49.0029 40.4777 49.0795 41.4284L49.8455 37.7215H50.5953C50.1724 36.5325 49.1233 34.2697 46.751 32.5894C46.1315 32.1513 45.5148 31.8192 44.9249 31.5632H41.7913L41.4993 32.9739H41.4983Z" fill="#333031"></path><path d="M49.1133 42.7869C49.0646 45.1457 48.2848 46.8546 47.8651 47.7498C47.0677 49.452 46.1848 50.635 45.5963 51.3078C44.6612 52.3771 42.7825 54.3165 39.7205 55.4969C39.7205 55.4969 38.4232 55.9975 36.6882 56.2587L36.458 57.3739H40.0103C41.9392 56.5147 44.4681 55.037 46.75 52.5691L47.6064 48.429L49.6249 48.4297C50.3086 47.0368 51.1788 44.7528 51.2137 41.9196H49.1109C49.1225 42.2581 49.1179 42.5514 49.1133 42.7869Z" fill="#333031"></path><path d="M34.143 37.0375C35.4809 36.2856 36.7386 35.9884 37.5071 35.8687L37.9508 33.7235C37.5022 33.8005 37.1065 33.894 36.7729 33.9734C33.5471 34.7366 31.542 36.627 30.7795 37.3634C30.657 37.4813 30.5405 37.5995 30.429 37.7153H33.0988C33.415 37.4795 33.761 37.2518 34.143 37.0375Z" fill="#333031"></path><path d="M28.4381 46.7108C28.4092 46.3133 28.3312 44.8427 28.9804 43.0956C29.2892 42.2647 29.6617 41.642 30.0489 41.0867H27.9715C27.3244 42.1648 26.6886 43.4494 26.4133 45.1378C26.33 45.6507 26.2145 46.4009 26.2389 47.301H28.5031C28.4759 47.1153 28.4533 46.9187 28.4381 46.7108V46.7108Z" fill="#333031"></path><path d="M33.6631 53.2555C33.3249 53.1722 32.656 53.0042 31.909 52.6042C31.5327 52.403 30.7897 51.9942 30.1098 51.2028H27.3228C27.7601 51.9681 28.5092 53.0109 29.7038 53.8881C30.7882 54.6852 31.9443 55.1289 32.7231 55.2991C32.8403 55.3238 33.1075 55.3778 33.4633 55.4286L33.9011 53.3102C33.8241 53.2933 33.745 53.2753 33.6635 53.2555H33.6631Z" fill="#333031"></path><path d="M42.9568 36.7641C43.3024 36.9822 44.066 37.5125 44.7459 38.4451C45.7011 39.7565 45.9038 41.0549 46.0121 41.8079C46.3457 44.1349 45.6344 45.9458 45.3612 46.6179C44.7664 48.0783 43.9728 49.0128 43.4811 49.5822C41.1953 52.2294 38.4652 53.1108 37.2854 53.3636L36.8745 55.351C38.0165 55.1124 38.9707 54.7301 39.1779 54.6446C39.7198 54.4237 40.7195 53.9746 41.8904 53.1627C42.9547 52.4225 45.5822 50.5985 47.1061 47.0966C47.5413 46.0958 48.4511 43.9337 48.1362 41.1573C48.0507 40.4054 47.9046 39.2189 47.1869 37.9029C45.7438 35.2557 43.181 34.2701 42.3599 33.9986C42.0129 33.8828 41.674 33.7956 41.3443 33.73L40.8914 35.9225C41.5522 36.0672 42.2596 36.3232 42.9568 36.7641Z" fill="#333031"></path><path d="M30.4813 46.6935C30.4026 46.2452 30.433 45.9088 30.4813 45.3644C30.499 45.1597 30.5667 44.4883 30.7793 43.7642C31.1323 42.5644 31.7712 41.6067 32.1715 41.0867H31.1347C30.3535 42.1203 29.4622 43.5591 29.2878 45.4721C29.2204 46.2123 29.2754 46.8552 29.3425 47.301H30.6416C30.5554 47.0585 30.5078 46.8442 30.4813 46.6935Z" fill="#333031"></path><path d="M37.3411 36.668C36.8567 36.7686 36.2446 36.9387 35.5781 37.2296C35.2354 37.3789 34.9177 37.5431 34.6226 37.7171H37.1236L37.3411 36.668V36.668Z" fill="#333031"></path><path d="M31.3892 51.2028C31.9427 51.6705 32.8902 52.2258 34.0558 52.5629L34.3371 51.2028H31.3895H31.3892Z" fill="#333031"></path><path d="M41.2745 38.3927C42.8397 39.17 43.5242 40.5648 43.7149 40.9961C44.3725 42.4837 44.1434 43.8198 44.0138 44.5213C43.7021 46.1998 42.8426 47.2864 42.1966 48.1018C40.9413 49.6865 39.602 50.4211 39.214 50.623C38.7371 50.8712 38.2817 51.1035 37.7282 51.2235L37.4744 52.4516C39.7548 51.7262 41.403 50.3974 41.492 50.3247C42.3536 49.6173 43.8042 48.3991 44.6644 46.257C44.9158 45.6322 45.4531 44.2505 45.2886 42.4336C45.2342 41.8345 45.1082 40.6061 44.2853 39.3148C43.5433 38.1519 42.6269 37.5511 42.414 37.417C41.8439 37.0562 41.2699 36.8313 40.7316 36.6954L40.446 38.0746C40.7203 38.1512 40.9963 38.2543 41.2752 38.3923L41.2745 38.3927Z" fill="#333031"></path><path d="M32.9399 46.8202C32.6088 46.0069 32.6787 45.2903 32.7228 44.8857C32.8622 43.6075 33.491 42.7391 33.7356 42.4076C34.1758 41.8132 34.6795 41.3881 35.136 41.0867H33.3649C33.1238 41.3355 32.9339 41.5632 32.7955 41.7401C32.4926 42.127 31.8696 42.9385 31.4936 44.1794C31.4936 44.1794 31.0877 45.5197 31.2772 46.8922C31.2984 47.0476 31.3249 47.1831 31.3567 47.3014H33.1718C33.0589 47.1051 32.9865 46.9339 32.9402 46.8202H32.9399Z" fill="#333031"></path><path d="M40.2996 40.5899C41.3233 41.2373 41.6918 42.2508 41.7642 42.4612C42.1112 43.4792 41.8842 44.3409 41.7363 44.9026C41.3201 46.4851 40.2819 47.4142 39.8657 47.7771C39.4382 48.1492 38.9426 48.5813 38.2232 48.8308L37.9333 50.234C38.3584 50.132 38.7146 49.9499 39.1424 49.7292C40.6512 48.9554 41.5192 47.8428 41.7815 47.4887C42.1814 46.9465 43.3118 45.4148 43.2641 43.2572C43.2489 42.5748 43.2214 41.3227 42.3241 40.2206C41.6999 39.4532 40.9085 39.0695 40.2826 38.8704L39.9653 40.4067C40.0772 40.46 40.1894 40.521 40.2996 40.5906V40.5899Z" fill="#333031"></path><path d="M36.4254 41.1042C35.8814 41.3542 35.5217 41.7012 35.1104 42.099C34.7528 42.4443 34.2473 42.9321 33.8813 43.7257C33.6913 44.1369 33.1255 45.3626 33.6101 46.6002C33.6603 46.7291 33.7722 47.0132 33.9928 47.2995H35.1443L36.4254 41.1042V41.1042Z" fill="#333031"></path><path d="M39.3945 47.1237C39.9092 46.6207 40.312 46.2257 40.642 45.5518C40.8295 45.1695 41.1433 44.5069 41.0946 43.6173C41.0766 43.2894 41.0342 42.5329 40.4796 41.8629C40.2544 41.5914 40.0077 41.4096 39.7831 41.2808L38.417 47.8915C38.6355 47.7712 38.9596 47.5498 39.3948 47.1237H39.3945Z" fill="#333031"></path><path d="M65.2083 57.079H66.5913L69.4659 41.9738H68.11L65.2083 57.079Z" fill="#333031"></path></svg> 