<?xml version="1.0" encoding="UTF-8"?> <svg xmlns="http://www.w3.org/2000/svg" width="150" height="91" viewBox="0 0 150 91" fill="none"><rect width="150" height="90" transform="translate(0 0.0634766)" fill="white"></rect><g clip-path="url(#clip0_36_604)"><path d="M98.1271 30.1183C98.8015 30.1183 99.7826 31.0922 99.7826 32.7856C99.7826 34.3473 97.7732 39.8345 96.4601 43.8631C95.0537 48.1747 93.7138 54.8049 92.5846 54.8049C91.6732 54.8049 90.6426 52.567 90.6426 51.5967C90.6421 50.8308 92.2704 45.6569 93.533 41.9314C95.0809 37.36 97.213 30.1187 98.1271 30.1187V30.1183Z" fill="#E31E24"></path><path d="M98.1271 30.1183C98.8015 30.1183 99.7826 31.0922 99.7826 32.7856C99.7826 34.3473 97.7732 39.8345 96.4601 43.8631C95.0537 48.1747 93.7138 54.8049 92.5846 54.8049C91.6732 54.8049 90.6426 52.567 90.6426 51.5967C90.6421 50.8308 92.2704 45.6569 93.533 41.9314C95.0809 37.36 97.213 30.1187 98.1271 30.1187V30.1183Z" stroke="#E31E24" stroke-width="0.253814" stroke-miterlimit="1"></path><path d="M106.824 42.5217C105.84 45.7308 104.441 49.8139 101.682 49.8139C101.153 49.8139 100.566 49.3711 100.652 48.4999C100.915 45.8255 103.493 42.5391 106.48 42.5391C106.603 42.5409 106.829 42.5382 106.824 42.5217ZM105.962 39.4291C102.179 39.4291 96.8101 45.388 96.8101 49.7742C96.8101 51.9192 98.3249 53.2703 100.153 53.2703C102.391 53.2703 103.61 52.1067 105.236 50.7507C105.236 51.88 106.396 52.574 107.181 52.574C108.671 52.5736 110.205 50.9319 111.739 49.2435C111.41 50.2964 111.29 50.9078 111.29 51.5796C111.29 52.2116 112.43 53.9117 113.021 53.9121C113.294 53.9112 114.152 52.366 115.081 51.0672C116.317 49.3376 117.95 47.6318 118.912 47.6318C119.251 47.6318 119.298 48.0018 119.298 48.3396C119.298 49.1546 119.085 49.8041 119.085 51.0225C119.085 52.4017 119.491 53.5323 120.915 53.5323C123.03 53.5323 125.674 51.3328 125.674 50.2433C125.674 49.846 125.594 49.4635 125.167 49.4635C124.661 49.4635 123.768 49.992 122.952 49.992C122.535 49.992 122.362 49.3542 122.362 48.6374C122.362 46.8355 122.902 45.5005 122.902 43.4416C122.902 42.4132 122.442 41.7995 121.368 41.7995C120.031 41.7995 117.644 44.0549 116.197 45.6996C116.679 43.9888 117.336 41.9959 117.336 41.2938C117.336 40.1106 115.628 38.5989 115.081 38.5989C114.575 38.5989 113.361 42.6922 112.878 44.5315C112.287 45.4313 109.779 48.4387 108.968 48.4387C108.291 48.4387 108.321 47.9745 108.321 47.6706C108.322 47.0096 110.432 42.8917 110.432 41.717C110.432 40.8355 109.572 39.0251 108.55 39.0251C108.184 39.0251 107.927 39.6165 107.742 39.9236C107.401 39.5978 106.807 39.4286 105.963 39.4286L105.962 39.4291Z" fill="#E31E24"></path><path d="M106.824 42.5217C105.84 45.7308 104.441 49.8139 101.682 49.8139C101.153 49.8139 100.566 49.3711 100.652 48.4999C100.915 45.8255 103.493 42.5391 106.48 42.5391C106.603 42.5409 106.829 42.5382 106.824 42.5217ZM105.962 39.4291C102.179 39.4291 96.8101 45.388 96.8101 49.7742C96.8101 51.9192 98.3249 53.2703 100.153 53.2703C102.391 53.2703 103.61 52.1067 105.236 50.7507C105.236 51.88 106.396 52.574 107.181 52.574C108.671 52.5736 110.205 50.9319 111.739 49.2435C111.41 50.2964 111.29 50.9078 111.29 51.5796C111.29 52.2116 112.43 53.9117 113.021 53.9121C113.294 53.9112 114.152 52.366 115.081 51.0672C116.317 49.3376 117.95 47.6318 118.912 47.6318C119.251 47.6318 119.298 48.0018 119.298 48.3396C119.298 49.1546 119.085 49.8041 119.085 51.0225C119.085 52.4017 119.491 53.5323 120.915 53.5323C123.03 53.5323 125.674 51.3328 125.674 50.2433C125.674 49.846 125.594 49.4635 125.167 49.4635C124.661 49.4635 123.768 49.992 122.952 49.992C122.535 49.992 122.362 49.3542 122.362 48.6374C122.362 46.8355 122.902 45.5005 122.902 43.4416C122.902 42.4132 122.442 41.7995 121.368 41.7995C120.031 41.7995 117.644 44.0549 116.197 45.6996C116.679 43.9888 117.336 41.9959 117.336 41.2938C117.336 40.1106 115.628 38.5989 115.081 38.5989C114.575 38.5989 113.361 42.6922 112.878 44.5315C112.287 45.4313 109.779 48.4387 108.968 48.4387C108.291 48.4387 108.321 47.9745 108.321 47.6706C108.322 47.0096 110.432 42.8917 110.432 41.717C110.432 40.8355 109.572 39.0251 108.55 39.0251C108.184 39.0251 107.927 39.6165 107.742 39.9236C107.401 39.5978 106.807 39.4286 105.963 39.4286L105.962 39.4291Z" stroke="#E31E24" stroke-width="0.253814" stroke-miterlimit="1"></path><path d="M81.4751 51.1691C79.9978 56.2885 78.1196 62.6787 77.3082 62.6787C76.3593 62.6805 75.4229 61.1366 75.4229 59.9427C75.4229 58.2613 77.0448 54.7741 78.3847 50.3429C80.395 43.6877 82.4374 36.2589 83.5845 36.2589C84.4285 36.2589 85.3172 37.9224 85.3868 38.7432C85.4167 39.0913 85.4301 39.601 85.3368 39.9291C85.9858 39.4256 86.8351 39.1476 87.8099 39.1476C89.2418 39.1476 90.9343 40.5736 90.9343 43.6185C90.9343 47.6538 87.5502 53.0348 84.2089 53.0348C83.1234 53.0348 81.909 52.2113 81.4747 51.1691H81.4751ZM82.6561 47.7613C82.6561 48.6982 83.4051 49.1735 84.2531 49.1735C85.5975 49.1735 87.4212 46.7004 87.4207 44.7044C87.4212 43.431 86.857 42.5768 85.772 42.5768C83.8193 42.5768 82.6566 46.7004 82.6566 47.7613H82.6561Z" fill="#E31E24"></path><path d="M81.4751 51.1691C79.9978 56.2885 78.1196 62.6787 77.3082 62.6787C76.3593 62.6805 75.4229 61.1366 75.4229 59.9427C75.4229 58.2613 77.0448 54.7741 78.3847 50.3429C80.395 43.6877 82.4374 36.2589 83.5845 36.2589C84.4285 36.2589 85.3172 37.9224 85.3868 38.7432C85.4167 39.0913 85.4301 39.601 85.3368 39.9291C85.9858 39.4256 86.8351 39.1476 87.8099 39.1476C89.2418 39.1476 90.9343 40.5736 90.9343 43.6185C90.9343 47.6538 87.5502 53.0348 84.2089 53.0348C83.1234 53.0348 81.909 52.2113 81.4747 51.1691H81.4751ZM82.6561 47.7613C82.6561 48.6982 83.4051 49.1735 84.2531 49.1735C85.5975 49.1735 87.4212 46.7004 87.4207 44.7044C87.4212 43.431 86.857 42.5768 85.772 42.5768C83.8193 42.5768 82.6566 46.7004 82.6566 47.7613H82.6561Z" stroke="#E31E24" stroke-width="0.253814" stroke-miterlimit="1"></path><path d="M66.5393 48.0449C66.8718 48.9514 67.4034 49.2111 68.1572 49.2111C70.2175 49.2111 72.9424 47.4013 74.517 44.251C76.2019 40.9446 79.154 28.8896 80.2221 28.8896C81.2683 28.8896 82.0056 30.4893 82.0056 31.4261C82.0056 32.9155 79.6338 39.8364 77.7605 45.245C76.2734 49.5428 75.2896 54.8019 74.1841 54.8019C73.1905 54.8019 72.3487 52.7095 72.3327 51.8182C72.3202 51.1429 72.4425 50.593 72.5438 50.2944C71.5628 51.187 69.3663 53.0496 67.2315 53.0496C65.1739 53.0496 63.4565 51.8981 63.0369 48.4979C61.6086 48.4564 60.1773 47.8431 60.1773 47.8431C58.9342 51.4723 57.6698 55.1063 56.9766 55.1063C55.8666 55.1063 55.0047 53.512 55.0047 52.2926C55.0047 51.2562 55.8849 48.6885 56.8427 46.0158C55.8777 45.2928 54.5896 43.8364 54.5896 43.8364C54.5753 44.1586 54.5718 44.2939 54.5298 44.6286C53.8764 49.8601 50.7547 52.8117 48.2298 52.8117C45.6732 52.8117 44.1459 50.888 44.0517 48.8094C43.9665 46.9357 44.8962 44.6996 45.5688 43.7378C45.5688 43.7378 44.6717 43.8565 43.0863 44.2604C41.2461 49.9369 39.8508 55.2598 38.8751 55.2598C37.7816 55.2598 36.7827 53.3004 36.7827 52.348C36.7827 51.4415 37.4188 49.2986 38.8086 45.1888C38.194 45.3557 35.6499 46.1091 34.8965 46.355C32.8688 51.74 31.6713 55.296 30.7086 55.296C29.6878 55.296 28.9505 52.9965 28.9505 51.9958C28.9505 50.871 30.4073 47.7097 30.4073 47.7097C27.5486 48.7353 24.9366 49.6218 24.6831 49.4213C23.8677 48.7764 25.7597 45.7538 26.534 45.208C26.8541 44.9812 29.2745 44.1524 32.0529 43.291C34.5354 37.1378 38.2226 28.4567 39.043 28.4567C39.7089 28.4567 40.5989 30.6397 40.5989 31.8296C40.5989 32.8459 38.2976 37.9979 36.4886 42.2787C36.9269 42.1542 39.2576 41.4945 40.041 41.2695C42.178 35.1061 45.1952 27.5475 46.041 27.5475C46.7904 27.5475 47.384 29.7948 47.384 31.1405C47.384 32.0246 45.6808 36.4969 44.2494 40.5179C45.9718 40.0743 47.3059 39.9743 48.4186 39.9743C49.6956 39.9743 50.1009 41.133 50.1009 41.8341C50.1004 42.7652 49.4099 43.3539 48.7297 43.5231C48.2187 44.6304 47.4559 45.8717 47.4559 47.6597C47.4554 48.2845 47.9602 49.0281 48.5253 49.0281C50.0406 49.0281 51.3484 45.3414 51.5568 43.4396C51.6568 42.53 51.3483 41.7757 51.3483 41.7757C50.7837 41.3593 50.3713 41.0026 50.3709 39.9689C50.3713 38.8321 51.2542 37.5552 52.4486 37.5552C53.4591 37.5552 54.1089 38.5942 54.5664 39.8855C54.5664 39.8855 55.855 41.8033 57.8586 43.1825C59.6988 37.8953 62.2839 30.1514 62.9526 30.1514C63.9309 30.1514 64.9204 31.5832 64.9204 32.949C64.9204 33.698 62.8236 40.3148 61.1811 44.9375C61.1811 44.9375 61.8189 45.1232 62.2536 45.2093C62.7481 45.3164 63.1347 45.3298 63.2034 45.3271C64.0853 42.1158 67.0061 38.3014 69.7605 38.3019C71.9792 38.3019 73.1209 39.5788 73.1214 41.7212C73.1209 44.2769 70.5108 46.8532 66.5379 48.044L66.5393 48.0449ZM70.3416 42.0778C70.3416 41.5721 70.1537 41.3079 69.5837 41.3079C68.3938 41.3079 67.041 43.1392 66.5089 44.9362C68.9031 44.1564 70.3416 42.7063 70.3416 42.0778Z" fill="#E31E24"></path><path d="M66.5393 48.0449C66.8718 48.9514 67.4034 49.2111 68.1572 49.2111C70.2175 49.2111 72.9424 47.4013 74.517 44.251C76.2019 40.9446 79.154 28.8896 80.2221 28.8896C81.2683 28.8896 82.0056 30.4893 82.0056 31.4261C82.0056 32.9155 79.6338 39.8364 77.7605 45.245C76.2734 49.5428 75.2896 54.8019 74.1841 54.8019C73.1905 54.8019 72.3487 52.7095 72.3327 51.8182C72.3202 51.1429 72.4425 50.593 72.5438 50.2944C71.5628 51.187 69.3663 53.0496 67.2315 53.0496C65.1739 53.0496 63.4565 51.8981 63.0369 48.4979C61.6086 48.4564 60.1773 47.8431 60.1773 47.8431C58.9342 51.4723 57.6698 55.1063 56.9766 55.1063C55.8666 55.1063 55.0047 53.512 55.0047 52.2926C55.0047 51.2562 55.8849 48.6885 56.8427 46.0158C55.8777 45.2928 54.5896 43.8364 54.5896 43.8364C54.5753 44.1586 54.5718 44.2939 54.5298 44.6286C53.8764 49.8601 50.7547 52.8117 48.2298 52.8117C45.6732 52.8117 44.1459 50.888 44.0517 48.8094C43.9665 46.9357 44.8962 44.6996 45.5688 43.7378C45.5688 43.7378 44.6717 43.8565 43.0863 44.2604C41.2461 49.9369 39.8508 55.2598 38.8751 55.2598C37.7816 55.2598 36.7827 53.3004 36.7827 52.348C36.7827 51.4415 37.4188 49.2986 38.8086 45.1888C38.194 45.3557 35.6499 46.1091 34.8965 46.355C32.8688 51.74 31.6713 55.296 30.7086 55.296C29.6878 55.296 28.9505 52.9965 28.9505 51.9958C28.9505 50.871 30.4073 47.7097 30.4073 47.7097C27.5486 48.7353 24.9366 49.6218 24.6831 49.4213C23.8677 48.7764 25.7597 45.7538 26.534 45.208C26.8541 44.9812 29.2745 44.1524 32.0529 43.291C34.5354 37.1378 38.2226 28.4567 39.043 28.4567C39.7089 28.4567 40.5989 30.6397 40.5989 31.8296C40.5989 32.8459 38.2976 37.9979 36.4886 42.2787C36.9269 42.1542 39.2576 41.4945 40.041 41.2695C42.178 35.1061 45.1952 27.5475 46.041 27.5475C46.7904 27.5475 47.384 29.7948 47.384 31.1405C47.384 32.0246 45.6808 36.4969 44.2494 40.5179C45.9718 40.0743 47.3059 39.9743 48.4186 39.9743C49.6956 39.9743 50.1009 41.133 50.1009 41.8341C50.1004 42.7652 49.4099 43.3539 48.7297 43.5231C48.2187 44.6304 47.4559 45.8717 47.4559 47.6597C47.4554 48.2845 47.9602 49.0281 48.5253 49.0281C50.0406 49.0281 51.3484 45.3414 51.5568 43.4396C51.6568 42.53 51.3483 41.7757 51.3483 41.7757C50.7837 41.3593 50.3713 41.0026 50.3709 39.9689C50.3713 38.8321 51.2542 37.5552 52.4486 37.5552C53.4591 37.5552 54.1089 38.5942 54.5664 39.8855C54.5664 39.8855 55.855 41.8033 57.8586 43.1825C59.6988 37.8953 62.2839 30.1514 62.9526 30.1514C63.9309 30.1514 64.9204 31.5832 64.9204 32.949C64.9204 33.698 62.8236 40.3148 61.1811 44.9375C61.1811 44.9375 61.8189 45.1232 62.2536 45.2093C62.7481 45.3164 63.1347 45.3298 63.2034 45.3271C64.0853 42.1158 67.0061 38.3014 69.7605 38.3019C71.9792 38.3019 73.1209 39.5788 73.1214 41.7212C73.1209 44.2769 70.5108 46.8532 66.5379 48.044L66.5393 48.0449ZM70.3416 42.0778C70.3416 41.5721 70.1537 41.3079 69.5837 41.3079C68.3938 41.3079 67.041 43.1392 66.5089 44.9362C68.9031 44.1564 70.3416 42.7063 70.3416 42.0778Z" stroke="#E31E24" stroke-width="0.253814" stroke-miterlimit="1"></path></g><defs><clipPath id="clip0_36_604"><rect width="102" height="36.2559" fill="white" transform="translate(24 27.0635)"></rect></clipPath></defs></svg> 