<?xml version="1.0" encoding="UTF-8"?> <svg xmlns="http://www.w3.org/2000/svg" width="150" height="91" viewBox="0 0 150 91" fill="none"><rect width="150" height="90" transform="translate(0 0.0634766)" fill="white"></rect><g clip-path="url(#clip0_36_607)"><path fill-rule="evenodd" clip-rule="evenodd" d="M51.1311 32.1339C51.09 32.1394 50.9954 32.1611 50.9207 32.1821C50.8461 32.2032 50.7229 32.2524 50.6468 32.2916C50.5708 32.3307 50.4529 32.4056 50.3849 32.4579C50.3169 32.5103 50.1987 32.6276 50.1222 32.7187C50.0457 32.8098 49.9485 32.9553 49.9062 33.042C49.8639 33.1288 49.8104 33.2614 49.7872 33.3368C49.7641 33.4121 49.739 33.5914 49.7316 33.7352C49.7221 33.9206 49.7297 34.0576 49.7579 34.2062C49.7833 34.3404 49.8356 34.4926 49.9032 34.6295C49.9875 34.8003 50.0516 34.886 50.2213 35.055C50.3382 35.1714 50.4997 35.3053 50.5801 35.3525C50.6606 35.3998 50.7845 35.458 50.8556 35.482C50.9266 35.506 51.0849 35.5382 51.2074 35.5535C51.3299 35.5688 51.5082 35.5737 51.6042 35.5643C51.7001 35.555 51.8605 35.5265 51.9607 35.501C52.0609 35.4755 52.2122 35.4181 52.2969 35.3734C52.3911 35.3236 52.5341 35.2097 52.6651 35.0801C52.7988 34.9479 52.9127 34.8075 52.9681 34.7064C53.017 34.6174 53.0831 34.4605 53.115 34.3578C53.1638 34.201 53.1731 34.1169 53.1731 33.8348C53.1731 33.5516 53.1639 33.4692 53.1146 33.3119C53.0825 33.2091 53.0161 33.0523 52.9673 32.9632C52.9129 32.8642 52.7997 32.7238 52.6759 32.6017C52.5432 32.4708 52.4128 32.37 52.2975 32.3095C52.2008 32.2586 52.0276 32.1945 51.9127 32.167C51.7666 32.1319 51.629 32.118 51.4548 32.1205C51.3179 32.1224 51.1722 32.1285 51.1311 32.1339ZM73.0203 32.1563C72.9244 32.1776 72.7778 32.2274 72.6946 32.2671C72.6113 32.3067 72.4713 32.3948 72.3833 32.4629C72.2954 32.5309 72.1799 32.6388 72.1267 32.7027C72.0735 32.7665 71.9923 32.8814 71.9462 32.958C71.9001 33.0346 71.84 33.1568 71.8127 33.2297C71.7855 33.3027 71.7524 33.4567 71.7393 33.5721C71.7253 33.6951 71.724 33.8883 71.7361 34.0394C71.7509 34.2248 71.7759 34.3456 71.8253 34.4706C71.863 34.566 71.9422 34.7176 72.0013 34.8074C72.0604 34.8971 72.1696 35.0282 72.2441 35.0987C72.3185 35.1691 72.45 35.2723 72.5362 35.328C72.6224 35.3837 72.7628 35.4509 72.8482 35.4772C72.9336 35.5036 73.0969 35.5381 73.2111 35.5539C73.3267 35.5699 73.4959 35.5753 73.593 35.5661C73.6889 35.5571 73.8402 35.5321 73.9292 35.5106C74.0182 35.4892 74.165 35.4334 74.2554 35.3867C74.3458 35.34 74.488 35.2435 74.5715 35.1722C74.655 35.1009 74.7673 34.9865 74.8211 34.9181C74.8748 34.8496 74.9547 34.7223 74.9985 34.6353C75.0423 34.5482 75.0998 34.3923 75.1262 34.2889C75.159 34.1606 75.1743 34.0161 75.1743 33.8348C75.1743 33.6516 75.159 33.5091 75.1252 33.3768C75.0982 33.2713 75.0343 33.1042 74.9832 33.0056C74.9181 32.8797 74.8269 32.7626 74.6775 32.6129C74.5604 32.4955 74.4086 32.3686 74.3401 32.3307C74.2716 32.2929 74.1315 32.2332 74.0288 32.198C73.8742 32.1452 73.7863 32.1327 73.5183 32.1258C73.2897 32.12 73.1434 32.1289 73.0203 32.1563ZM106.452 32.1555C106.363 32.1747 106.217 32.227 106.128 32.2718C106.04 32.3165 105.905 32.4036 105.828 32.4652C105.752 32.5268 105.649 32.6221 105.601 32.6769C105.552 32.7316 105.47 32.8415 105.42 32.921C105.369 33.0005 105.299 33.1405 105.263 33.2323C105.207 33.3769 105.197 33.4467 105.187 33.7587C105.18 33.9911 105.187 34.1673 105.206 34.2567C105.223 34.3328 105.273 34.4736 105.317 34.5694C105.361 34.6653 105.456 34.8166 105.527 34.9056C105.598 34.9946 105.72 35.1206 105.798 35.1856C105.876 35.2506 106.014 35.3429 106.106 35.3908C106.197 35.4387 106.343 35.4962 106.43 35.5188C106.53 35.5447 106.698 35.5607 106.887 35.5622C107.106 35.564 107.233 35.5523 107.361 35.5183C107.456 35.4928 107.597 35.4409 107.672 35.4031C107.747 35.3653 107.878 35.2828 107.962 35.2197C108.046 35.1567 108.172 35.035 108.243 34.9493C108.313 34.8637 108.41 34.7151 108.457 34.6192C108.504 34.5234 108.562 34.3721 108.585 34.2831C108.613 34.1766 108.628 34.0274 108.628 33.8473C108.627 33.6786 108.611 33.5094 108.586 33.4069C108.563 33.3153 108.51 33.1669 108.468 33.0771C108.425 32.9873 108.341 32.8478 108.28 32.7672C108.22 32.6865 108.101 32.564 108.017 32.4949C107.932 32.4258 107.809 32.3399 107.743 32.3039C107.677 32.2679 107.515 32.211 107.383 32.1775C107.198 32.1306 107.082 32.117 106.878 32.1185C106.733 32.1196 106.541 32.1363 106.452 32.1555ZM63.9849 35.3705C63.9757 35.3796 63.9683 36.1416 63.9683 37.0638V38.7406H62.9099H61.8516V39.9338C61.8516 40.5901 61.8577 41.1431 61.8652 41.1627C61.8768 41.1929 62.0339 41.1964 62.9235 41.1861L63.9683 41.1741V47.042V52.91H65.3378H66.7074L66.7137 47.0517L66.72 41.1935L67.7845 41.187L68.8491 41.1805V40.0761C68.8491 39.4686 68.842 38.9197 68.8333 38.8561L68.8174 38.7406H67.7625H66.7075V37.0472V35.3539H65.3545C64.6103 35.3539 63.994 35.3613 63.9849 35.3705ZM97.4619 37.047V38.7406H96.3911H95.3203V39.9608V41.181L96.1857 41.1812C96.6616 41.1812 97.1435 41.1885 97.2565 41.1973L97.4619 41.2133V47.0612V52.9091L98.788 52.9158C99.5173 52.9195 100.122 52.919 100.133 52.9148C100.143 52.9105 100.151 50.2687 100.151 47.044V41.181H101.21H102.268V39.9608V38.7406H101.21H100.152L100.145 37.0534L100.139 35.3663L98.8004 35.3599L97.4619 35.3534V37.047ZM84.3882 38.317C84.3266 38.327 84.1192 38.3599 83.9275 38.3902C83.7357 38.4205 83.4612 38.4729 83.3174 38.5067C83.1736 38.5404 82.9438 38.6024 82.8069 38.6445C82.6699 38.6865 82.457 38.7599 82.3337 38.8075C82.2105 38.8552 81.9639 38.9642 81.7859 39.0498C81.6078 39.1354 81.3483 39.2734 81.2091 39.3563C81.0699 39.4393 80.8441 39.5866 80.7071 39.6837C80.5703 39.7807 80.3536 39.9485 80.2256 40.0565C80.0976 40.1645 79.8357 40.4141 79.6436 40.6111C79.4515 40.8081 79.1934 41.1038 79.07 41.2682C78.9466 41.4325 78.7797 41.6735 78.6991 41.8036C78.6186 41.9337 78.4879 42.1634 78.4087 42.3141C78.3295 42.4647 78.2084 42.7193 78.1396 42.8797C78.0708 43.0402 77.9744 43.2868 77.9254 43.4276C77.8763 43.5684 77.808 43.8126 77.7736 43.9701C77.7392 44.1276 77.6811 44.3909 77.6446 44.5553C77.5793 44.8488 77.5781 44.8702 77.5778 45.763C77.5774 46.5391 77.5841 46.7102 77.6236 46.9334C77.649 47.0773 77.6971 47.3126 77.7304 47.4564C77.7636 47.6002 77.8364 47.8636 77.8919 48.0416C77.9475 48.2197 78.043 48.4879 78.1041 48.6377C78.1652 48.7875 78.2743 49.0284 78.3465 49.1731C78.4186 49.3178 78.5488 49.5538 78.6357 49.6976C78.7226 49.8414 78.85 50.0375 78.9188 50.1334C78.9877 50.2293 79.1395 50.4254 79.2563 50.5692C79.3731 50.713 79.5922 50.9542 79.7432 51.1053C79.8943 51.2563 80.1355 51.4758 80.2793 51.593C80.4231 51.7102 80.6304 51.8684 80.74 51.9444C80.8496 52.0205 81.0442 52.1461 81.1725 52.2237C81.3007 52.3012 81.5145 52.4192 81.6475 52.4859C81.7805 52.5527 82.0078 52.6579 82.1528 52.7199C82.2978 52.7818 82.5771 52.8832 82.7735 52.9453C82.9699 53.0074 83.2261 53.0802 83.3427 53.107C83.4594 53.1339 83.7283 53.1814 83.9404 53.2127C84.2623 53.2602 84.4267 53.2694 84.936 53.2687C85.4293 53.268 85.6106 53.2577 85.8827 53.2155C86.0677 53.1867 86.3535 53.1294 86.5177 53.0882C86.6818 53.0469 86.9338 52.9711 87.0776 52.9197C87.2214 52.8683 87.5323 52.7281 87.7684 52.6081C88.0046 52.4881 88.2847 52.3317 88.391 52.2604C88.4973 52.1891 88.6515 52.0794 88.7336 52.0165C88.8158 51.9537 88.981 51.8146 89.1008 51.7075C89.2205 51.6003 89.4119 51.4041 89.5259 51.2713C89.64 51.1385 89.7746 50.9751 89.8249 50.908L89.9165 50.7861V51.8481V52.91H91.2862H92.6558L92.6496 45.8315L92.6433 38.753L91.2799 38.7466L89.9165 38.7402V39.7246V40.7091L89.8457 40.6726C89.8068 40.6524 89.7128 40.559 89.6369 40.465C89.5609 40.371 89.3995 40.195 89.2781 40.0739C89.1567 39.9527 88.9565 39.7728 88.8333 39.674C88.71 39.5752 88.5027 39.4229 88.3726 39.3356C88.2424 39.2482 87.9791 39.0975 87.7874 39.0007C87.5956 38.9038 87.3323 38.7843 87.2022 38.7351C87.072 38.6859 86.8927 38.6229 86.8037 38.595C86.7147 38.5672 86.5578 38.5218 86.4551 38.494C86.3524 38.4663 86.1394 38.4209 85.9819 38.3933C85.8244 38.3657 85.5723 38.3317 85.4216 38.3177C85.271 38.3038 85.002 38.2939 84.824 38.2957C84.6459 38.2975 84.4498 38.3071 84.3882 38.317ZM117.894 38.3184C117.785 38.3307 117.551 38.3637 117.374 38.3917C117.198 38.4198 116.918 38.4769 116.752 38.5187C116.586 38.5606 116.31 38.6402 116.139 38.6958C115.967 38.7513 115.699 38.8519 115.541 38.9193C115.384 38.9867 115.139 39.1032 114.997 39.1782C114.855 39.2531 114.597 39.4074 114.424 39.5211C114.251 39.6348 113.991 39.8214 113.848 39.936C113.704 40.0505 113.442 40.285 113.266 40.4571C113.091 40.6293 112.855 40.8805 112.743 41.0153C112.632 41.1502 112.447 41.3967 112.334 41.5632C112.22 41.7296 112.06 41.9866 111.977 42.1343C111.895 42.2819 111.783 42.5004 111.728 42.6199C111.672 42.7393 111.589 42.9362 111.541 43.0573C111.494 43.1785 111.421 43.3802 111.38 43.5056C111.34 43.6309 111.279 43.841 111.245 43.9723C111.212 44.1036 111.156 44.3709 111.122 44.5663C111.088 44.7616 111.046 45.1209 111.03 45.3647C111.008 45.7025 111.008 45.9084 111.03 46.2302C111.046 46.4624 111.082 46.785 111.11 46.947C111.138 47.1091 111.199 47.3992 111.245 47.5918C111.291 47.7844 111.37 48.0653 111.42 48.2159C111.47 48.3666 111.557 48.5963 111.612 48.7264C111.667 48.8565 111.76 49.0582 111.818 49.1747C111.877 49.2911 111.977 49.4744 112.041 49.582C112.104 49.6896 112.223 49.876 112.303 49.9961C112.384 50.1162 112.542 50.3307 112.654 50.4728C112.766 50.6148 113.022 50.8944 113.222 51.0941C113.422 51.2938 113.704 51.5508 113.848 51.6651C113.991 51.7795 114.254 51.9681 114.431 52.0844C114.609 52.2006 114.9 52.3715 115.079 52.4642C115.258 52.5569 115.527 52.6828 115.678 52.7441C115.829 52.8054 116.098 52.9008 116.276 52.9562C116.454 53.0116 116.734 53.0845 116.898 53.1183C117.063 53.1521 117.348 53.2001 117.533 53.2251C117.786 53.2591 118.03 53.2704 118.517 53.2703C118.995 53.2703 119.256 53.2585 119.513 53.2254C119.705 53.2007 119.99 53.153 120.148 53.1195C120.305 53.0859 120.596 53.0074 120.793 52.945C120.99 52.8825 121.282 52.7757 121.441 52.7076C121.599 52.6395 121.857 52.5166 122.014 52.4345C122.17 52.3523 122.439 52.1918 122.611 52.0776C122.784 51.9635 123.04 51.7787 123.181 51.6671C123.322 51.5554 123.567 51.3383 123.727 51.1847C123.886 51.0311 124.13 50.7688 124.269 50.6019C124.408 50.435 124.612 50.1661 124.721 50.0043C124.831 49.8424 124.984 49.5979 125.061 49.4609C125.139 49.3238 125.263 49.0758 125.337 48.9097C125.412 48.7437 125.523 48.4636 125.584 48.2873C125.645 48.1111 125.724 47.8604 125.758 47.7303C125.793 47.6002 125.844 47.3705 125.872 47.2198C125.9 47.0692 125.935 46.8394 125.95 46.7093C125.965 46.5792 125.984 46.2596 125.992 45.9992C126.002 45.7037 125.996 45.3853 125.977 45.1525C125.96 44.9473 125.918 44.6281 125.885 44.4432C125.851 44.2583 125.796 44.005 125.762 43.8803C125.728 43.7556 125.663 43.5427 125.617 43.4072C125.571 43.2716 125.492 43.0599 125.441 42.9366C125.39 42.8134 125.27 42.5588 125.175 42.3709C125.079 42.1831 124.891 41.8637 124.756 41.6612C124.621 41.4587 124.434 41.1978 124.341 41.0814C124.247 40.965 124.053 40.7476 123.909 40.5983C123.765 40.449 123.528 40.2249 123.383 40.1002C123.237 39.9756 123.03 39.8101 122.922 39.7325C122.814 39.6548 122.608 39.5169 122.464 39.4259C122.32 39.3349 122.046 39.1834 121.854 39.0892C121.662 38.995 121.387 38.8736 121.244 38.8195C121.1 38.7654 120.87 38.6867 120.733 38.6447C120.596 38.6026 120.366 38.5397 120.223 38.5048C120.079 38.4699 119.799 38.412 119.6 38.3762C119.293 38.3207 119.154 38.3099 118.666 38.3036C118.351 38.2995 118.004 38.3062 117.894 38.3184ZM50.091 46.0183L50.0834 53.296L50.0305 53.5086C50.0014 53.6255 49.9315 53.821 49.8752 53.943C49.8188 54.065 49.7124 54.2449 49.6387 54.3428C49.5651 54.4406 49.4449 54.5716 49.3717 54.6338C49.2984 54.696 49.1688 54.7917 49.0835 54.8465C48.9982 54.9014 48.8575 54.9746 48.7707 55.0094C48.6838 55.0441 48.5272 55.0903 48.4225 55.1119C48.3178 55.1335 48.1261 55.1512 47.9966 55.1512C47.8672 55.1512 47.6745 55.1346 47.5685 55.1143C47.4624 55.094 47.355 55.0709 47.3297 55.0629C47.2853 55.0488 47.2837 55.0983 47.2837 56.4577C47.2837 57.7766 47.2865 57.8683 47.3273 57.885C47.3512 57.8949 47.6622 57.9026 48.0183 57.9021C48.6263 57.9014 48.685 57.8972 48.9816 57.8338C49.1553 57.7967 49.4221 57.7219 49.5745 57.6675C49.7268 57.6132 49.9769 57.5078 50.1302 57.4334C50.2835 57.359 50.5154 57.2281 50.6455 57.1425C50.7756 57.0569 50.9605 56.9222 51.0564 56.8431C51.1523 56.7641 51.3324 56.5948 51.4568 56.467C51.5811 56.3391 51.7281 56.1784 51.7835 56.11C51.8389 56.0415 51.9586 55.8716 52.0497 55.7324C52.1407 55.5933 52.2757 55.3523 52.3496 55.197C52.4236 55.0417 52.518 54.8138 52.5595 54.6905C52.601 54.5673 52.6577 54.3768 52.6855 54.2672C52.7134 54.1576 52.7555 53.9727 52.7791 53.8563C52.8191 53.6592 52.8226 53.131 52.8299 46.1926L52.8377 38.7406H51.4682H50.0986L50.091 46.0183ZM56.4478 45.8253V52.91H57.7925H59.1372V45.8253V38.7406H57.7925H56.4478V45.8253ZM72.0864 46.0211V53.3021L72.0255 53.5423C71.992 53.6744 71.9185 53.8748 71.8621 53.9875C71.8058 54.1002 71.6959 54.2758 71.6181 54.3776C71.5402 54.4794 71.3924 54.6297 71.2896 54.7115C71.1869 54.7934 71.0243 54.8976 70.9285 54.9431C70.8326 54.9887 70.6645 55.0496 70.5549 55.0785C70.4305 55.1113 70.2436 55.1358 70.0569 55.1437C69.8267 55.1534 69.7209 55.1468 69.5962 55.1148C69.5072 55.092 69.4126 55.0713 69.386 55.0687C69.3497 55.0652 69.3325 55.0859 69.3169 55.1512C69.3056 55.1992 69.295 55.7819 69.2934 56.4461C69.2919 57.1104 69.2986 57.6931 69.3083 57.7411C69.318 57.789 69.3315 57.8478 69.3383 57.8718C69.3495 57.9116 69.3979 57.9154 69.8984 57.9154C70.2713 57.9154 70.5352 57.9025 70.7247 57.8751C70.8779 57.853 71.1086 57.8084 71.2375 57.776C71.3664 57.7435 71.6205 57.6568 71.8022 57.5833C71.9839 57.5097 72.2371 57.3915 72.3648 57.3205C72.4925 57.2496 72.6976 57.1195 72.8206 57.0314C72.9437 56.9433 73.1499 56.7732 73.2789 56.6534C73.408 56.5336 73.5956 56.337 73.6958 56.2165C73.7961 56.0961 73.9334 55.9157 74.0009 55.8156C74.0684 55.7156 74.1761 55.5392 74.2403 55.4236C74.3044 55.308 74.4052 55.1008 74.4642 54.9631C74.5233 54.8254 74.6057 54.5987 74.6473 54.4594C74.689 54.3201 74.749 54.063 74.7806 53.888L74.8381 53.5699V46.1615V38.753L73.4623 38.7466L72.0864 38.7402V46.0211ZM105.529 40.5522C105.529 41.5486 105.526 44.8684 105.523 47.9295L105.518 53.4952L105.459 53.6695C105.427 53.7654 105.366 53.9111 105.325 53.9933C105.284 54.0754 105.203 54.2099 105.144 54.2921C105.086 54.3743 104.971 54.505 104.89 54.5827C104.808 54.6603 104.672 54.7687 104.587 54.8235C104.502 54.8782 104.348 54.9583 104.245 55.0014C104.141 55.0445 103.973 55.0958 103.87 55.1155C103.767 55.1351 103.579 55.1512 103.451 55.1512C103.323 55.1512 103.132 55.1346 103.026 55.1143C102.92 55.094 102.813 55.0709 102.787 55.0629C102.743 55.0488 102.741 55.0986 102.741 56.4658V57.8834L102.894 57.8994C102.978 57.9082 103.252 57.9154 103.502 57.9154C103.844 57.9154 104.03 57.9029 104.252 57.8651C104.414 57.8375 104.65 57.7867 104.777 57.7522C104.904 57.7178 105.094 57.6549 105.201 57.6126C105.307 57.5702 105.511 57.4766 105.655 57.4044C105.799 57.3322 106.017 57.2068 106.14 57.1257C106.264 57.0445 106.469 56.8901 106.598 56.7826C106.726 56.675 106.926 56.4802 107.042 56.3497C107.158 56.2192 107.317 56.0223 107.396 55.912C107.474 55.8017 107.587 55.628 107.646 55.5258C107.706 55.4237 107.801 55.2388 107.859 55.1149C107.916 54.9911 107.992 54.8057 108.027 54.703C108.063 54.6003 108.115 54.4321 108.143 54.3293C108.171 54.2265 108.217 53.9967 108.244 53.8188C108.293 53.5004 108.294 53.3769 108.294 46.1179L108.294 38.7406H106.912H105.53L105.529 40.5522ZM86.1211 41.0896C86.2867 41.1238 86.5258 41.1864 86.6525 41.2289C86.7792 41.2713 86.9641 41.3436 87.0635 41.3895C87.1629 41.4355 87.3665 41.5431 87.5158 41.6288C87.6652 41.7145 87.8658 41.8421 87.9617 41.9124C88.0575 41.9826 88.2328 42.1265 88.3511 42.2322C88.4694 42.3378 88.6513 42.5257 88.7554 42.6497C88.8595 42.7737 89.0105 42.9732 89.0911 43.093C89.1716 43.2129 89.289 43.4061 89.352 43.5225C89.4149 43.6389 89.5166 43.854 89.578 44.0005C89.6394 44.147 89.7234 44.3878 89.7646 44.5356C89.8059 44.6834 89.8569 44.9426 89.8781 45.1116C89.8992 45.2807 89.9163 45.6057 89.9161 45.8338C89.9158 46.062 89.8993 46.3632 89.8794 46.5031C89.8595 46.6431 89.8267 46.828 89.8066 46.914C89.7864 47 89.7406 47.1601 89.7048 47.2696C89.6689 47.3792 89.5997 47.5623 89.5508 47.6764C89.5019 47.7906 89.4045 47.9894 89.3344 48.1182C89.2642 48.2469 89.1373 48.4505 89.0523 48.5705C88.9673 48.6905 88.8104 48.8866 88.7036 49.0063C88.5969 49.1261 88.4199 49.303 88.3103 49.3994C88.2007 49.4959 88.0134 49.644 87.8941 49.7285C87.7747 49.813 87.5749 49.9407 87.4501 50.0121C87.3253 50.0835 87.1148 50.1868 86.9823 50.2415C86.8499 50.2962 86.6667 50.3649 86.5753 50.3942C86.484 50.4235 86.3159 50.4699 86.2018 50.4974C86.0877 50.525 85.8767 50.5633 85.7329 50.5827C85.5891 50.6021 85.3146 50.618 85.1228 50.618C84.9311 50.618 84.6565 50.6021 84.5127 50.5827C84.3689 50.5633 84.1728 50.5292 84.0769 50.507C83.981 50.4847 83.8017 50.4349 83.6785 50.3962C83.5552 50.3575 83.3932 50.3014 83.3184 50.2715C83.2437 50.2417 83.07 50.1609 82.9324 50.0921C82.7949 50.0233 82.5759 49.8963 82.4458 49.8097C82.3157 49.7232 82.1007 49.5616 81.968 49.4506C81.8353 49.3395 81.6407 49.1508 81.5356 49.0311C81.4305 48.9115 81.2701 48.7071 81.1792 48.577C81.0883 48.4469 80.9549 48.234 80.8829 48.1039C80.8108 47.9737 80.7078 47.755 80.6541 47.6178C80.6002 47.4805 80.5224 47.2508 80.4811 47.1073C80.4398 46.9637 80.3805 46.7118 80.3495 46.5475C80.3043 46.3079 80.2932 46.1622 80.2935 45.8128C80.2937 45.4721 80.3058 45.3119 80.3486 45.0782C80.3788 44.9139 80.4313 44.6761 80.4652 44.5497C80.4992 44.4234 80.5679 44.2105 80.6179 44.0766C80.6679 43.9427 80.7481 43.755 80.796 43.6596C80.8439 43.5641 80.9287 43.4128 80.9845 43.3234C81.0402 43.2339 81.1624 43.0567 81.256 42.9294C81.3496 42.8022 81.5127 42.6075 81.6185 42.4967C81.7243 42.3859 81.9077 42.214 82.0261 42.1145C82.1446 42.0151 82.356 41.8583 82.4959 41.766C82.6359 41.6738 82.8975 41.5281 83.0774 41.4423C83.2573 41.3566 83.511 41.2524 83.6411 41.2108C83.7712 41.1693 83.9337 41.1227 84.0022 41.1074C84.0707 41.0921 84.2388 41.0636 84.3757 41.0442C84.5538 41.0189 84.7952 41.0115 85.2224 41.0181C85.739 41.0262 85.8609 41.0359 86.1211 41.0896ZM119.177 41.0979C119.334 41.1193 119.597 41.1751 119.761 41.222C119.924 41.2688 120.178 41.3577 120.324 41.4195C120.47 41.4812 120.714 41.6024 120.865 41.6886C121.016 41.7749 121.233 41.9117 121.346 41.9926C121.459 42.0735 121.677 42.263 121.83 42.4137C121.983 42.5643 122.178 42.7804 122.263 42.8938C122.348 43.0072 122.471 43.187 122.537 43.2934C122.603 43.3999 122.698 43.5674 122.747 43.6657C122.797 43.7641 122.872 43.9316 122.915 44.038C122.957 44.1445 123.023 44.3327 123.061 44.4563C123.1 44.58 123.154 44.7929 123.182 44.9295C123.21 45.0661 123.245 45.3388 123.26 45.5356C123.282 45.8319 123.28 45.9451 123.247 46.1955C123.226 46.3617 123.181 46.6271 123.147 46.7853C123.114 46.9434 123.048 47.1917 123.001 47.3371C122.954 47.4824 122.863 47.7091 122.799 47.8407C122.735 47.9724 122.622 48.1763 122.548 48.2937C122.475 48.4112 122.339 48.6042 122.247 48.7227C122.155 48.8411 121.972 49.0446 121.842 49.1748C121.711 49.305 121.498 49.4909 121.368 49.5879C121.238 49.685 121.042 49.8186 120.932 49.8847C120.823 49.9509 120.641 50.0475 120.529 50.0995C120.417 50.1515 120.209 50.2342 120.068 50.2833C119.927 50.3324 119.644 50.408 119.438 50.4514C119.085 50.5258 119.035 50.5301 118.517 50.5307C118.089 50.5312 117.914 50.5213 117.72 50.4854C117.583 50.4601 117.343 50.4009 117.187 50.3538C117.031 50.3067 116.835 50.2398 116.752 50.2051C116.668 50.1704 116.487 50.0855 116.35 50.0164C116.213 49.9474 116.017 49.8348 115.915 49.7663C115.812 49.6979 115.625 49.5585 115.499 49.4567C115.373 49.3549 115.185 49.1813 115.081 49.0709C114.977 48.9605 114.844 48.807 114.784 48.7298C114.725 48.6526 114.614 48.4942 114.539 48.3778C114.463 48.2614 114.344 48.0541 114.276 47.9171C114.207 47.7801 114.116 47.5784 114.075 47.4688C114.033 47.3593 113.972 47.1737 113.938 47.0565C113.904 46.9393 113.853 46.7009 113.823 46.5268C113.783 46.2895 113.77 46.1058 113.77 45.792C113.77 45.5268 113.785 45.2799 113.811 45.1174C113.834 44.9765 113.889 44.7284 113.935 44.5662C113.981 44.4039 114.06 44.167 114.11 44.0397C114.16 43.9124 114.249 43.718 114.307 43.6078C114.365 43.4975 114.475 43.3126 114.551 43.1969C114.627 43.0811 114.782 42.8768 114.894 42.7427C115.006 42.6087 115.211 42.3983 115.35 42.2751C115.489 42.152 115.727 41.9687 115.877 41.8678C116.028 41.7669 116.23 41.6429 116.325 41.5921C116.421 41.5414 116.622 41.4501 116.772 41.3893C116.922 41.3285 117.169 41.2462 117.32 41.2064C117.472 41.1666 117.713 41.1167 117.857 41.0954C118.001 41.0742 118.186 41.0529 118.268 41.048C118.35 41.0431 118.524 41.0437 118.654 41.0491C118.784 41.0546 119.019 41.0766 119.177 41.0979Z" fill="black"></path><path d="M37.1235 28.9539C37.733 28.7601 38.2597 28.5929 38.2939 28.5825L38.3562 28.5635L38.3627 29.6737C38.3663 30.2843 38.3661 35.0871 38.3622 40.3464L38.3551 49.9089L38.2995 50.3572C38.2688 50.6037 38.2213 50.9455 38.1939 51.1167C38.1664 51.2879 38.1265 51.5176 38.1051 51.6272C38.0836 51.7368 38.0326 51.9721 37.9916 52.1502C37.9505 52.3282 37.8792 52.6084 37.833 52.7727C37.7867 52.9371 37.7105 53.1892 37.6636 53.333C37.6167 53.4768 37.5142 53.757 37.4357 53.9556C37.3573 54.1542 37.1783 54.552 37.0381 54.8396C36.8979 55.1272 36.6844 55.5307 36.5636 55.7361C36.4428 55.9415 36.2432 56.2609 36.1201 56.4458C35.9969 56.6307 35.787 56.9277 35.6536 57.1057C35.5202 57.2838 35.2897 57.5751 35.1415 57.7532C34.9933 57.9312 34.6138 58.3357 34.2982 58.6519C33.9826 58.9681 33.5787 59.3475 33.4006 59.4948C33.2226 59.6422 32.9425 59.8641 32.7783 59.9879C32.6141 60.1117 32.3059 60.3279 32.0935 60.4683C31.8811 60.6087 31.556 60.8098 31.3711 60.9152C31.1862 61.0205 30.8444 61.2 30.6116 61.3139C30.3787 61.4279 30.0033 61.5939 29.7773 61.6828C29.5514 61.7717 29.2065 61.8964 29.011 61.9598C28.8156 62.0232 28.4794 62.1192 28.264 62.1731C28.0486 62.227 27.6874 62.3042 27.4614 62.3448C27.2354 62.3853 26.86 62.4413 26.6272 62.4694C26.3944 62.4975 26.047 62.5325 25.8552 62.5473C25.6635 62.5621 25.1676 62.5809 24.7533 62.5892L24 62.6042V61.2246L24 59.845L24.7782 59.844C25.3656 59.8432 25.6449 59.8322 25.9175 59.7988C26.1161 59.7746 26.4072 59.7327 26.5643 59.7059C26.7216 59.6791 26.9793 59.6282 27.1371 59.5928C27.2949 59.5575 27.5585 59.4896 27.7229 59.4419C27.8873 59.3942 28.1454 59.3125 28.2966 59.2605C28.4478 59.2083 28.7 59.1131 28.8569 59.0489C29.0139 58.9847 29.288 58.8609 29.4661 58.7739C29.6441 58.6868 29.9299 58.5351 30.1011 58.4368C30.2723 58.3384 30.53 58.179 30.6738 58.0825C30.8176 57.9861 31.0418 57.8288 31.1719 57.7331C31.302 57.6374 31.5373 57.4524 31.6948 57.3221C31.8523 57.1917 32.1723 56.8936 32.4059 56.6596C32.6395 56.4256 32.9373 56.1053 33.0677 55.9478C33.1981 55.7903 33.3736 55.5701 33.4576 55.4586C33.5417 55.3471 33.7154 55.095 33.8436 54.8983C33.9718 54.7017 34.1277 54.4511 34.1901 54.3416C34.2524 54.232 34.382 53.9852 34.4781 53.7931C34.5742 53.6011 34.7257 53.2593 34.8148 53.0336C34.9038 52.808 35.0292 52.4608 35.0934 52.2622C35.1575 52.0636 35.2537 51.7218 35.307 51.5026C35.3603 51.2834 35.4275 50.9641 35.4565 50.7929C35.4854 50.6218 35.5272 50.3528 35.5493 50.1953C35.5857 49.9363 35.5903 48.9308 35.5975 39.6728L35.6055 29.4367L35.8105 29.3715L37.1235 28.9539Z" fill="#962BFF"></path><path d="M31.8505 30.6259C32.21 30.5122 32.8123 30.3202 33.189 30.1992C33.5656 30.0782 33.8878 29.9782 33.9049 29.9769C33.9298 29.9751 33.936 31.8961 33.9357 39.506C33.9355 45.372 33.926 49.2241 33.911 49.523C33.8976 49.79 33.8631 50.1486 33.8344 50.3198C33.8057 50.491 33.7446 50.7768 33.6986 50.9548C33.6526 51.1329 33.5686 51.4187 33.5119 51.5899C33.4552 51.7611 33.3582 52.0291 33.2963 52.1856C33.2345 52.342 33.1269 52.5885 33.0572 52.7334C32.9875 52.8783 32.8641 53.1145 32.7829 53.2583C32.7016 53.4021 32.5312 53.6767 32.4042 53.8684C32.2772 54.0602 32.0521 54.3683 31.9041 54.5532C31.7561 54.7381 31.4551 55.069 31.2354 55.2884C31.0155 55.5079 30.6844 55.8086 30.4995 55.9567C30.3146 56.1048 30.0064 56.33 29.8147 56.4571C29.623 56.5843 29.3762 56.7397 29.2664 56.8025C29.1566 56.8652 28.9045 56.9944 28.7061 57.0895C28.5077 57.1846 28.239 57.3041 28.1089 57.3552C27.9788 57.4062 27.7547 57.4865 27.6108 57.5335C27.467 57.5805 27.2037 57.657 27.0256 57.7036C26.8476 57.75 26.5827 57.8107 26.4371 57.8383C26.2914 57.8659 26.0113 57.9065 25.8145 57.9283C25.6178 57.9502 25.1363 57.9745 24.7447 57.9824L24.0325 57.9966L24.0165 57.8998C24.0077 57.8465 24.0004 57.2188 24.0003 56.5048L24 55.2066L24.7284 55.1936C25.2818 55.1838 25.5375 55.1685 25.793 55.1299C25.9779 55.1019 26.23 55.0557 26.3533 55.0272C26.4765 54.9986 26.667 54.9461 26.7766 54.9104C26.8862 54.8748 27.0431 54.8179 27.1252 54.784C27.2074 54.7502 27.4091 54.655 27.5735 54.5725C27.7378 54.4901 27.9782 54.3561 28.1075 54.2748C28.2369 54.1935 28.4487 54.0464 28.5781 53.9479C28.7075 53.8494 28.9098 53.6794 29.0277 53.5702C29.1455 53.4609 29.3165 53.2928 29.4077 53.1966C29.4988 53.1004 29.6368 52.9444 29.7142 52.8498C29.7916 52.7552 29.9265 52.5752 30.014 52.4498C30.1014 52.3244 30.2405 52.108 30.323 51.9691C30.4055 51.8302 30.5223 51.6124 30.5825 51.4851C30.6428 51.3578 30.7333 51.1436 30.7836 51.0092C30.834 50.8747 30.9077 50.6282 30.9476 50.4613C30.9874 50.2945 31.0428 50.0086 31.0707 49.8261C31.0987 49.6436 31.1385 49.3255 31.1592 49.1191C31.1919 48.7922 31.1968 47.5949 31.1968 39.7883V30.8327L31.8505 30.6259Z" fill="#962BFF"></path><path d="M27.6584 31.9054C28.1322 31.7707 28.7271 31.6012 28.9805 31.5288C29.2339 31.4564 29.4612 31.3965 29.4857 31.3956C29.5285 31.3941 29.5297 31.7458 29.5155 40.1036C29.5069 45.123 29.4907 48.961 29.4771 49.1619C29.4605 49.4085 29.4318 49.5933 29.3791 49.7934C29.3381 49.949 29.2641 50.1787 29.2147 50.3039C29.1653 50.4291 29.0691 50.637 29.001 50.766C28.9329 50.895 28.8157 51.0928 28.7406 51.2056C28.6655 51.3185 28.5152 51.5173 28.4066 51.6474C28.298 51.7775 28.1222 51.9645 28.0158 52.0629C27.9095 52.1613 27.7217 52.3176 27.5984 52.4101C27.4751 52.5027 27.2777 52.6362 27.1597 52.7068C27.0417 52.7774 26.84 52.8837 26.7115 52.9429C26.5829 53.0022 26.3937 53.0799 26.291 53.1157C26.1883 53.1515 26.019 53.2039 25.9148 53.2323C25.8106 53.2606 25.6145 53.2946 25.479 53.3078C25.3435 53.321 24.9903 53.332 24.6942 53.3324C24.398 53.3327 24.1206 53.326 24.0778 53.3175L24 53.3019V51.9105C24 51.0608 24.0091 50.5191 24.0234 50.5191C24.0362 50.5191 24.123 50.5372 24.2164 50.5593C24.3244 50.585 24.499 50.5999 24.6973 50.6003C24.9381 50.6008 25.0556 50.5887 25.2162 50.5468C25.3303 50.517 25.4967 50.4596 25.5859 50.4192C25.675 50.3788 25.818 50.2957 25.9036 50.2346C25.9892 50.1736 26.1366 50.0403 26.2311 49.9386C26.3257 49.8368 26.4407 49.6908 26.4866 49.6141C26.5326 49.5374 26.5966 49.4091 26.6289 49.3291C26.6612 49.2492 26.7043 49.1199 26.7246 49.0418C26.7568 48.9184 26.7639 47.8103 26.7793 40.5251L26.7971 32.1503L27.6584 31.9054Z" fill="#962BFF"></path></g><defs><clipPath id="clip0_36_607"><rect width="102" height="34.0723" fill="white" transform="translate(24 28.5635)"></rect></clipPath></defs></svg> 