<?xml version="1.0" encoding="UTF-8"?> <svg xmlns="http://www.w3.org/2000/svg" width="50" height="51" viewBox="0 0 50 51" fill="none"><circle cx="25" cy="25.5698" r="25" fill="#194F94"></circle><path d="M21.0933 22.4503C21.1656 22.6408 21.1407 32.5693 21.0678 32.6501C20.995 32.7307 17.9373 32.7585 17.7907 32.6799C17.7171 32.6405 17.6701 22.4522 17.7432 22.379C17.7569 22.3652 18.5081 22.354 19.4124 22.354H21.0567L21.0933 22.4503Z" fill="white"></path><path d="M30.6187 22.2175C31.6989 22.4374 32.6979 23.2815 33.136 24.3443C33.3083 24.7626 33.4176 25.1296 33.4658 25.4522C33.4843 25.5761 33.5154 25.7789 33.5348 25.9028C33.5906 26.2579 33.5874 32.6177 33.5315 32.6737C33.4647 32.7407 30.3028 32.7384 30.2473 32.6714C30.2209 32.6396 30.2023 31.6349 30.1909 29.6201C30.1714 26.207 30.1808 26.3207 29.8617 25.6024C29.4774 24.7372 28.1504 24.5196 27.2553 25.175C27.0797 25.3036 26.7341 25.7119 26.687 25.8465C26.6762 25.8775 26.6318 25.9789 26.5885 26.0718C26.5106 26.2388 26.5095 26.2789 26.4987 29.4418C26.4879 32.5819 26.4863 32.6435 26.4139 32.6823C26.3084 32.7389 23.211 32.7156 23.1533 32.6578C23.0805 32.5848 23.0815 22.4369 23.1543 22.3905C23.1883 22.3688 23.8538 22.3583 24.8413 22.3637L26.4722 22.3728L26.4909 23.0456C26.5128 23.8324 26.5196 23.8424 26.7858 23.4839C27.6073 22.3773 29.0547 21.899 30.6187 22.2175Z" fill="white"></path><path d="M19.9308 17.397C21.5341 17.7016 21.835 19.9344 20.37 20.6556C19.2719 21.1962 17.9256 20.7047 17.6042 19.6459C17.1831 18.2589 18.3797 17.1024 19.9308 17.397Z" fill="white"></path></svg> 