<?xml version="1.0" encoding="UTF-8"?> <svg xmlns="http://www.w3.org/2000/svg" width="60" height="61" viewBox="0 0 60 61" fill="none"><path d="M54.0781 56.8196H53.6846L37.8729 50.0327C37.7503 49.9822 37.6391 49.9076 37.5458 49.8135C37.4524 49.7194 37.3787 49.6076 37.3291 49.4846C37.2796 49.3616 37.255 49.2299 37.2569 49.0973C37.2589 48.9647 37.2873 48.8339 37.3404 48.7124C37.4474 48.4688 37.6452 48.2768 37.8918 48.1772C38.1384 48.0777 38.414 48.0786 38.66 48.1796L53.0595 54.2948V12.7627L37.8729 6.32327C37.7503 6.27272 37.6391 6.1982 37.5458 6.10407C37.4524 6.00995 37.3787 5.89812 37.3291 5.77514C37.2796 5.65216 37.255 5.52051 37.2569 5.38791C37.2589 5.25531 37.2873 5.12443 37.3404 5.00295C37.3887 4.8783 37.4616 4.76465 37.5547 4.66877C37.6478 4.5729 37.7592 4.49675 37.8823 4.44487C38.0055 4.393 38.1378 4.36646 38.2714 4.36683C38.405 4.36719 38.5371 4.39447 38.66 4.44703L54.4485 11.1644C54.6334 11.2386 54.7918 11.3665 54.9032 11.5317C55.0146 11.6969 55.074 11.8917 55.0736 12.091V55.8236C55.0768 55.9911 55.0356 56.1564 54.9543 56.3029C54.873 56.4493 54.7544 56.5717 54.6106 56.6575C54.4539 56.7649 54.268 56.8215 54.0781 56.8196Z" fill="#194F94"></path><path d="M38.2195 6.39291H22.431C22.1648 6.39297 21.9091 6.28878 21.7188 6.10263C21.5284 5.91647 21.4184 5.66315 21.4124 5.39688C21.4124 5.12657 21.5197 4.86734 21.7107 4.6762C21.9017 4.48506 22.1608 4.37769 22.431 4.37769H38.2195C38.4897 4.37769 38.7488 4.48506 38.9398 4.6762C39.1308 4.86734 39.2381 5.12657 39.2381 5.39688C39.2321 5.66315 39.1221 5.91647 38.9317 6.10263C38.7414 6.28878 38.4857 6.39297 38.2195 6.39291Z" fill="#194F94"></path><path d="M38.2195 50.1255H22.431C22.1608 50.1255 21.9017 50.0181 21.7107 49.8269C21.5197 49.6358 21.4124 49.3766 21.4124 49.1063C21.4184 48.84 21.5284 48.5867 21.7188 48.4005C21.9091 48.2144 22.1648 48.1102 22.431 48.1102H38.2195C38.4857 48.1102 38.7414 48.2144 38.9317 48.4005C39.1221 48.5867 39.2321 48.84 39.2381 49.1063C39.2381 49.3766 39.1308 49.6358 38.9398 49.8269C38.7488 50.0181 38.4897 50.1255 38.2195 50.1255Z" fill="#194F94"></path><path d="M22.431 50.126C22.1608 50.126 21.9017 50.0186 21.7107 49.8275C21.5197 49.6363 21.4124 49.3771 21.4124 49.1068V37.9188C21.4124 37.6485 21.5197 37.3893 21.7107 37.1982C21.9017 37.007 22.1608 36.8997 22.431 36.8997C22.5637 36.8996 22.695 36.9261 22.8174 36.9776C22.9397 37.0291 23.0504 37.1046 23.1432 37.1995C23.2359 37.2945 23.3088 37.407 23.3574 37.5306C23.406 37.6541 23.4295 37.7861 23.4264 37.9188V49.1068C23.4265 49.3731 23.3224 49.6289 23.1363 49.8194C22.9503 50.0099 22.6971 50.1199 22.431 50.126Z" fill="#194F94"></path><path d="M6.62065 56.8195C6.42329 56.8232 6.22949 56.7666 6.06503 56.6574C5.92707 56.5671 5.81433 56.4432 5.73739 56.2973C5.66045 56.1515 5.62186 55.9884 5.6252 55.8235V12.0909C5.62587 11.8949 5.68299 11.7033 5.78974 11.5389C5.8965 11.3746 6.04835 11.2446 6.2271 11.1644L22.0388 4.37748C22.2838 4.29122 22.5525 4.30187 22.7899 4.40725C23.0274 4.51264 23.2156 4.70479 23.3161 4.94443C23.4166 5.18406 23.4219 5.45307 23.3308 5.69644C23.2396 5.93981 23.0591 6.13916 22.8259 6.25372L7.63927 12.6932V54.2947L22.0388 48.1796C22.1604 48.1279 22.291 48.1006 22.4231 48.0994C22.5553 48.0982 22.6863 48.123 22.8088 48.1725C22.9314 48.222 23.043 48.2951 23.1373 48.3877C23.2315 48.4804 23.3067 48.5907 23.3584 48.7123C23.41 48.834 23.4373 48.9647 23.4385 49.0969C23.4397 49.2291 23.4149 49.3602 23.3654 49.4828C23.316 49.6054 23.2429 49.7171 23.1503 49.8114C23.0578 49.9058 22.9475 49.9809 22.8259 50.0326L7.0142 56.75C6.88843 56.7973 6.755 56.8209 6.62065 56.8195Z" fill="#194F94"></path><path d="M22.431 13.2261C22.1608 13.2261 21.9017 13.1187 21.7107 12.9276C21.5197 12.7365 21.4124 12.4772 21.4124 12.2069V5.39688C21.4124 5.12657 21.5197 4.86734 21.7107 4.6762C21.9017 4.48506 22.1608 4.37769 22.431 4.37769C22.6971 4.38374 22.9503 4.49378 23.1363 4.68427C23.3224 4.87475 23.4265 5.13054 23.4264 5.39688V12.2069C23.4265 12.4733 23.3224 12.7291 23.1363 12.9195C22.9503 13.11 22.6971 13.2201 22.431 13.2261Z" fill="#194F94"></path><path d="M38.2209 50.126C37.9548 50.1199 37.7017 50.0099 37.5156 49.8194C37.3296 49.6289 37.2254 49.3731 37.2255 49.1068V37.9188C37.2224 37.7861 37.2459 37.6541 37.2945 37.5306C37.3432 37.407 37.416 37.2945 37.5087 37.1995C37.6015 37.1046 37.7123 37.0291 37.8346 36.9776C37.9569 36.9261 38.0882 36.8996 38.2209 36.8997C38.4911 36.8997 38.7502 37.007 38.9412 37.1982C39.1322 37.3893 39.2396 37.6485 39.2396 37.9188V49.1068C39.2396 49.3771 39.1322 49.6363 38.9412 49.8275C38.7502 50.0186 38.4911 50.126 38.2209 50.126Z" fill="#194F94"></path><path d="M38.2207 13.2261C37.9545 13.2201 37.7014 13.11 37.5153 12.9195C37.3293 12.7291 37.2252 12.4733 37.2252 12.2069V5.39688C37.2252 5.13054 37.3293 4.87475 37.5153 4.68427C37.7014 4.49378 37.9545 4.38374 38.2207 4.37769C38.4908 4.37769 38.7499 4.48506 38.9409 4.6762C39.132 4.86734 39.2393 5.12657 39.2393 5.39688V12.2069C39.2393 12.4772 39.132 12.7365 38.9409 12.9276C38.7499 13.1187 38.4908 13.2261 38.2207 13.2261Z" fill="#194F94"></path><path d="M30.3957 38.9378C30.215 38.935 30.0383 38.8843 29.8837 38.7906C29.7291 38.697 29.6022 38.5639 29.5159 38.405L27.2009 34.2819C25.4878 31.2475 23.8904 28.3984 22.5708 25.4335C21.8779 23.7224 21.7966 21.8243 22.3407 20.0602C22.8848 18.296 24.021 16.7739 25.5572 15.7512C27.0046 14.7552 28.72 14.2219 30.4767 14.2219C32.2334 14.2219 33.9487 14.7552 35.3961 15.7512C36.9329 16.7787 38.0659 18.3077 38.602 20.0775C39.1381 21.8473 39.0442 23.7484 38.3362 25.4567C36.9704 28.4216 35.3498 31.2707 33.7062 34.2819C32.9422 35.6254 32.1782 36.9689 31.3911 38.405C31.3011 38.5657 31.1701 38.6997 31.0115 38.7933C30.8529 38.8869 30.6724 38.9367 30.4883 38.9378H30.3957ZM30.3957 16.2376C29.0548 16.2188 27.7423 16.6242 26.6453 17.3958C25.5124 18.1612 24.6687 19.2846 24.249 20.5863C23.8294 21.888 23.858 23.2929 24.3302 24.5764C25.6961 27.4719 27.2935 30.2978 28.9603 33.2859L30.3725 35.8339L31.8078 33.2859C33.4978 30.321 35.072 27.5182 36.4379 24.6228C36.9261 23.3338 36.963 21.9172 36.5425 20.6045C36.122 19.2918 35.269 18.1606 34.1229 17.3958C33.0309 16.6316 31.7282 16.2268 30.3957 16.2376Z" fill="#194F94"></path><path d="M30.3962 27.3557C29.1846 27.3046 28.0364 26.8 27.179 25.9421C26.3215 25.0841 25.8173 23.9353 25.7661 22.723C25.7661 21.4944 26.2539 20.316 27.1222 19.4472C27.9905 18.5784 29.1682 18.0903 30.3962 18.0903C31.0419 18.0614 31.6866 18.168 32.2886 18.4034C32.8907 18.6388 33.4368 18.9977 33.8919 19.457C34.3321 19.8888 34.6818 20.4042 34.9203 20.973C35.1588 21.5418 35.2814 22.1525 35.2809 22.7694C35.2194 23.9781 34.7119 25.121 33.8565 25.9769C33.0012 26.8327 31.8589 27.3405 30.6508 27.4021L30.3962 27.3557ZM30.3962 20.0129C29.6982 20.0311 29.0353 20.3229 28.5503 20.8255C28.0653 21.3281 27.797 22.0013 27.8033 22.6999C27.8486 23.3972 28.1505 24.053 28.6507 24.5407C29.151 25.0284 29.8141 25.3133 30.5119 25.3405C31.2164 25.3027 31.8827 25.0088 32.3857 24.514C32.8888 24.0192 33.1939 23.3576 33.2437 22.6535C33.2425 22.3078 33.1723 21.9657 33.0371 21.6475C32.902 21.3293 32.7046 21.0413 32.4566 20.8005C32.1843 20.5365 31.8613 20.3306 31.5071 20.1952C31.153 20.0599 30.775 19.9978 30.3962 20.0129Z" fill="#194F94"></path></svg> 