<?xml version="1.0" encoding="UTF-8"?> <svg xmlns="http://www.w3.org/2000/svg" width="60" height="61" viewBox="0 0 60 61" fill="none"><path fill-rule="evenodd" clip-rule="evenodd" d="M28.0208 4.3197C28.0208 3.80194 28.4405 3.3822 28.9583 3.3822H30.8333C31.351 3.3822 31.7708 3.80194 31.7708 4.3197V10.153C31.7708 10.6708 31.351 11.0905 30.8333 11.0905H28.9583C28.4405 11.0905 28.0208 10.6708 28.0208 10.153V4.3197Z" fill="#194F94"></path><path fill-rule="evenodd" clip-rule="evenodd" d="M28.0208 33.4863C28.0208 32.9686 28.4405 32.5488 28.9583 32.5488H30.8333C31.351 32.5488 31.7708 32.9686 31.7708 33.4863V56.8197C31.7708 57.3374 31.351 57.7572 30.8333 57.7572H28.9583C28.4405 57.7572 28.0208 57.3374 28.0208 56.8197V33.4863Z" fill="#194F94"></path><path fill-rule="evenodd" clip-rule="evenodd" d="M10.5627 10.6705C10.7333 10.3933 11.0356 10.2244 11.3611 10.2244H34.3056C34.8233 10.2244 35.2431 10.6441 35.2431 11.1619V14.042H33.3681V12.0994H11.885L6.72579 20.483L11.885 28.8667H25.4498V30.7417H11.3611C11.0356 30.7417 10.7333 30.5728 10.5627 30.2956L4.82657 20.9744C4.64114 20.6731 4.64114 20.293 4.82657 19.9917L10.5627 10.6705Z" fill="#194F94"></path><path fill-rule="evenodd" clip-rule="evenodd" d="M49.2984 13.5505C49.1278 13.2733 48.8255 13.1044 48.5 13.1044H25.5555C25.0378 13.1044 24.618 13.5241 24.618 14.0419V32.6842C24.618 33.202 25.0378 33.6217 25.5555 33.6217H48.5C48.8255 33.6217 49.1278 33.4528 49.2984 33.1756L55.0345 23.8544C55.2199 23.5531 55.2199 23.173 55.0345 22.8717L49.2984 13.5505ZM47.9761 14.9794L53.1353 23.3631L47.9761 31.7467H26.493V14.9794H47.9761Z" fill="#194F94"></path></svg> 