<?xml version="1.0" encoding="UTF-8"?> <svg xmlns="http://www.w3.org/2000/svg" width="60" height="60" viewBox="0 0 60 60" fill="none"><path d="M6.51562 25.4252H6.3252C6.05396 25.368 5.81647 25.2055 5.66476 24.9735C5.51306 24.7415 5.45954 24.4588 5.51591 24.1874C6.63691 18.7625 9.59159 13.8891 13.8831 10.3865C18.1747 6.88389 23.5414 4.96575 29.0808 4.95459C29.3586 4.95459 29.625 5.06494 29.8214 5.26135C30.0178 5.45776 30.1281 5.72416 30.1281 6.00193C30.1219 6.27555 30.0088 6.53588 29.8131 6.72717C29.6174 6.91847 29.3545 7.02554 29.0808 7.02547C24.0212 7.0183 19.1128 8.75019 15.1781 11.9309C11.2433 15.1117 8.52115 19.5481 7.46775 24.4968C7.44106 24.7379 7.33155 24.9622 7.15792 25.1315C6.98428 25.3008 6.75726 25.4046 6.51562 25.4252V25.4252Z" fill="#194F94"></path><path d="M9.29942 24.4964L6.51448 28.2573C6.46835 28.3363 6.40233 28.4019 6.32298 28.4475C6.24363 28.493 6.15372 28.517 6.06222 28.517C5.97072 28.517 5.88082 28.493 5.80147 28.4475C5.72212 28.4019 5.65609 28.3363 5.60996 28.2573L3.80094 23.9966C3.76082 23.9147 3.74389 23.8233 3.75196 23.7325C3.76004 23.6416 3.79283 23.5547 3.84677 23.4811C3.90071 23.4076 3.97375 23.3502 4.05798 23.3152C4.14221 23.2801 4.23442 23.2688 4.32461 23.2825L8.91857 23.83C8.98874 23.8463 9.05478 23.877 9.11256 23.92C9.17033 23.9631 9.21861 24.0176 9.25435 24.0801C9.2901 24.1427 9.31256 24.212 9.32031 24.2836C9.32807 24.3552 9.32095 24.4277 9.29942 24.4964Z" fill="#194F94"></path><path d="M24.4171 54.4169H24.2029C18.778 53.2959 13.9046 50.3412 10.402 46.0496C6.89939 41.7581 4.98125 36.3915 4.97009 30.852C4.97002 30.5783 5.0771 30.3155 5.26839 30.1197C5.45969 29.924 5.72 29.8109 5.99362 29.8047C6.27139 29.8047 6.53778 29.915 6.73419 30.1114C6.93061 30.3079 7.04096 30.5743 7.04096 30.852C7.07754 35.8933 8.84122 40.7697 12.0379 44.6681C15.2346 48.5665 19.671 51.2513 24.6075 52.2747C24.879 52.2999 25.1293 52.4319 25.3034 52.6417C25.4775 52.8515 25.5611 53.122 25.5358 53.3934C25.5106 53.6649 25.3785 53.9151 25.1687 54.0892C24.9589 54.2633 24.6886 54.3469 24.4171 54.3217V54.4169Z" fill="#194F94"></path><path d="M24.5818 50.5359L28.2951 53.297C28.3741 53.3432 28.4396 53.4092 28.4852 53.4885C28.5308 53.5679 28.5547 53.6578 28.5547 53.7493C28.5547 53.8408 28.5308 53.9306 28.4852 54.01C28.4396 54.0893 28.3741 54.1554 28.2951 54.2016L24.0581 56.0105C23.9824 56.1273 23.8633 56.2092 23.7272 56.2383C23.591 56.2673 23.4489 56.241 23.3321 56.1653C23.2153 56.0895 23.1334 55.9705 23.1044 55.8343C23.0754 55.6982 23.1017 55.5561 23.1774 55.4393L23.7249 50.8215C23.7438 50.7322 23.7858 50.6494 23.8466 50.5814C23.9074 50.5133 23.985 50.4623 24.0716 50.4334C24.1582 50.4045 24.2508 50.3988 24.3403 50.4167C24.4298 50.4347 24.5131 50.4758 24.5818 50.5359V50.5359Z" fill="#194F94"></path><path d="M30.8429 54.8694C30.5714 54.8694 30.3111 54.7615 30.1191 54.5696C29.9272 54.3776 29.8193 54.1172 29.8193 53.8458C29.8193 53.5721 29.9263 53.3093 30.1176 53.1136C30.3089 52.9178 30.5692 52.8047 30.8429 52.7985C35.9058 52.7936 40.8124 51.0439 44.7361 47.8442C48.6599 44.6445 51.361 40.1904 52.3845 35.2319C52.4576 34.9804 52.6222 34.7653 52.846 34.6292C53.0698 34.493 53.3365 34.4456 53.5934 34.4964C53.8504 34.5472 54.079 34.6925 54.2342 34.9035C54.3893 35.1146 54.4598 35.3761 54.4316 35.6365C53.3056 41.0633 50.3463 45.9373 46.0508 49.4396C41.7552 52.9419 36.3852 54.8592 30.8429 54.8694Z" fill="#194F94"></path><path d="M50.5502 35.2555L53.3352 31.6375C53.3819 31.578 53.4416 31.53 53.5096 31.497C53.5777 31.4639 53.6523 31.4468 53.7279 31.4468C53.8035 31.4468 53.8782 31.4639 53.9462 31.497C54.0142 31.53 54.0739 31.578 54.1207 31.6375L55.9535 35.8744C55.9928 35.9597 56.0085 36.054 55.9988 36.1475C55.9891 36.241 55.9544 36.3301 55.8985 36.4056C55.8425 36.4811 55.7672 36.5401 55.6806 36.5765C55.5939 36.6128 55.4991 36.6252 55.406 36.6123L50.812 36.041C50.7334 36.019 50.6613 35.978 50.6021 35.9216C50.543 35.8652 50.4985 35.7953 50.4727 35.7178C50.4468 35.6403 50.4404 35.5575 50.4539 35.477C50.4674 35.3964 50.5005 35.3203 50.5502 35.2555V35.2555Z" fill="#194F94"></path><path d="M53.861 30.0188C53.5896 30.0188 53.3292 29.911 53.1373 29.719C52.9453 29.5271 52.8375 29.2667 52.8375 28.9953C52.7997 23.9506 51.0327 19.0716 47.8313 15.1727C44.6299 11.2739 40.188 8.59121 35.2471 7.57259C34.9886 7.50325 34.7664 7.33757 34.6262 7.10954C34.486 6.88151 34.4384 6.60845 34.4933 6.34645C34.5481 6.08445 34.7012 5.85338 34.9211 5.70071C35.1409 5.54804 35.4109 5.48537 35.6756 5.52554C41.1024 6.65149 45.9763 9.61083 49.4786 13.9064C52.9809 18.2019 54.8982 23.5719 54.9083 29.1143C54.8736 29.3666 54.7481 29.5976 54.5553 29.7641C54.3626 29.9306 54.1157 30.0212 53.861 30.0188Z" fill="#194F94"></path><path d="M35.2692 9.28573L31.5797 6.50079C31.5001 6.45804 31.4336 6.39451 31.3873 6.31697C31.3409 6.23943 31.3164 6.15078 31.3164 6.06044C31.3164 5.97009 31.3409 5.88141 31.3873 5.80387C31.4336 5.72633 31.5001 5.66284 31.5797 5.62009L35.8405 3.78725C35.9247 3.75365 36.0163 3.74251 36.1061 3.75493C36.196 3.76734 36.2811 3.80289 36.3531 3.85808C36.4251 3.91327 36.4815 3.9862 36.5168 4.06975C36.5521 4.15331 36.5651 4.24462 36.5545 4.33471L36.0071 8.9287C35.9898 9.00557 35.9554 9.07752 35.9064 9.13925C35.8574 9.20098 35.7952 9.25087 35.7243 9.28518C35.6533 9.3195 35.5756 9.33739 35.4968 9.33749C35.418 9.33758 35.3402 9.31988 35.2692 9.28573V9.28573Z" fill="#194F94"></path><path d="M29.9368 48.4895C26.26 48.4895 22.6658 47.3992 19.6087 45.3565C16.5516 43.3138 14.1688 40.4105 12.7618 37.0136C11.3547 33.6167 10.9866 29.8788 11.7039 26.2727C12.4212 22.6666 14.1917 19.3541 16.7916 16.7543C19.3915 14.1544 22.7039 12.3838 26.31 11.6665C29.9162 10.9492 33.654 11.3174 37.0509 12.7244C40.4478 14.1315 43.3512 16.5142 45.3939 19.5713C47.4366 22.6285 48.5269 26.2226 48.5269 29.8994C48.5206 34.8279 46.56 39.5527 43.075 43.0377C39.5901 46.5226 34.8653 48.4832 29.9368 48.4895V48.4895ZM29.9368 13.3802C26.6696 13.3802 23.4758 14.349 20.7592 16.1642C18.0426 17.9794 15.9253 20.5593 14.675 23.5778C13.4247 26.5963 13.0976 29.9178 13.735 33.1222C14.3724 36.3266 15.9457 39.27 18.2559 41.5803C20.5662 43.8905 23.5096 45.4639 26.714 46.1013C29.9185 46.7387 33.2399 46.4116 36.2584 45.1613C39.2769 43.911 41.8569 41.7937 43.672 39.0771C45.4872 36.3605 46.456 33.1666 46.456 29.8994C46.456 25.5182 44.7156 21.3165 41.6177 18.2186C38.5197 15.1206 34.318 13.3802 29.9368 13.3802Z" fill="#194F94"></path><path d="M29.9373 48.4895C24.3436 48.4895 19.9639 40.3251 19.9639 29.8994C19.9639 19.4737 24.3436 11.3093 29.9373 11.3093C35.531 11.3093 39.8393 19.4737 39.8393 29.8994C39.8393 40.3251 35.531 48.4895 29.9373 48.4895ZM29.9373 13.3802C25.6528 13.3802 22.0347 20.9495 22.0347 29.8994C22.0347 38.8493 25.6528 46.4186 29.9373 46.4186C34.2218 46.4186 37.8161 38.8731 37.8161 29.8994C37.8161 20.9257 34.2218 13.3802 29.9373 13.3802V13.3802Z" fill="#194F94"></path><path d="M47.4815 30.9469H12.3722C12.0944 30.9469 11.828 30.8365 11.6316 30.6401C11.4352 30.4437 11.3248 30.1773 11.3248 29.8995C11.331 29.6259 11.4441 29.3656 11.6399 29.1743C11.8356 28.9831 12.0985 28.8759 12.3722 28.876H47.4815C47.6179 28.8728 47.7536 28.897 47.8805 28.947C48.0074 28.997 48.1231 29.0719 48.2207 29.1672C48.3183 29.2626 48.3958 29.3765 48.4487 29.5022C48.5016 29.628 48.5289 29.7631 48.5288 29.8995C48.5288 30.1773 48.4185 30.4437 48.2221 30.6401C48.0257 30.8365 47.7593 30.9469 47.4815 30.9469V30.9469Z" fill="#194F94"></path><path d="M29.9382 48.4895C29.6645 48.4896 29.4017 48.3825 29.2059 48.1912C29.0102 47.9999 28.8971 47.7396 28.8909 47.466V12.3566C28.8909 12.0789 29.0012 11.8125 29.1976 11.6161C29.394 11.4196 29.6604 11.3093 29.9382 11.3093C30.0746 11.3093 30.2097 11.3365 30.3355 11.3894C30.4612 11.4424 30.5751 11.5199 30.6705 11.6175C30.7658 11.715 30.8407 11.8307 30.8908 11.9576C30.9408 12.0846 30.9649 12.2202 30.9617 12.3566V47.466C30.9617 47.7374 30.8539 47.9978 30.6619 48.1898C30.47 48.3817 30.2097 48.4895 29.9382 48.4895Z" fill="#194F94"></path></svg> 