<?xml version="1.0" encoding="UTF-8"?> <svg xmlns="http://www.w3.org/2000/svg" width="60" height="61" viewBox="0 0 60 61" fill="none"><path fill-rule="evenodd" clip-rule="evenodd" d="M20.4078 37.4043L29.931 44.3902L25.5695 53.0246L13.4816 44.1574L20.4078 37.4043ZM20.5795 39.8556L16.3753 43.9547L24.8938 50.2036L27.5413 44.9625L20.5795 39.8556Z" fill="#194F94"></path><path fill-rule="evenodd" clip-rule="evenodd" d="M50.94 3.38584C51.3675 3.36293 51.9117 3.44828 52.3282 3.75376C52.6021 3.95468 53.061 4.39832 53.0792 5.10006C53.6378 9.09178 53.7848 12.4128 53.6321 15.3751L53.6313 15.3906C53.4299 18.346 52.8769 20.8997 52.0348 23.2498C51.2625 25.5109 50.1597 27.5097 48.8637 29.4741C47.6425 31.4253 46.1358 33.3017 44.5638 35.2595L44.4036 35.459L44.3795 35.4889L43.9557 35.9363L42.4195 37.4373L42.4171 37.4397L31.6052 47.9284L16.5051 36.8515L23.3064 23.4154L24.533 21.0382L24.556 21.0021C25.9807 18.7677 27.3955 16.7396 28.8832 14.9087C30.3828 13.0632 32.0023 11.4527 33.8632 10.0151C35.8928 8.45128 38.1673 7.15388 40.9293 6.07289C43.685 4.99435 46.918 4.13405 50.8169 3.40065L50.8779 3.38916L50.94 3.38584ZM43.081 34.1113C44.6786 32.1217 46.1218 30.3225 47.2801 28.4702L47.2923 28.4506C48.5399 26.5607 49.5577 24.7037 50.2627 22.6374L50.2674 22.6236C51.0496 20.4423 51.5692 18.0596 51.76 15.2707C51.9057 12.4327 51.7652 9.21567 51.2135 5.29755L51.2099 5.27209C51.1761 5.26413 51.1332 5.2584 51.0888 5.25741C47.2949 5.97428 44.2072 6.80346 41.6126 7.81893C39.0074 8.83858 36.8905 10.0495 35.0087 11.4995M43.081 34.1113L42.9655 34.2552L42.6194 34.6205L41.1115 36.0939L41.1091 36.0962L31.4368 45.4795L18.896 36.2799L24.9727 24.2752L24.976 24.2687L26.16 21.9742C27.5521 19.7929 28.9176 17.8397 30.3384 16.0911C31.7548 14.3479 33.2722 12.8412 35.0087 11.4995" fill="#194F94"></path><path fill-rule="evenodd" clip-rule="evenodd" d="M46.5056 44.125L43.5573 34.2216L45.3544 33.6866L48.6091 44.6192L37.3 56.7371L36.7951 55.2555C36.3733 54.0178 35.9014 52.5973 35.4149 51.1326C34.6243 48.7527 33.7949 46.2561 33.0786 44.2369L34.8457 43.61C35.5662 45.6412 36.4099 48.1806 37.2065 50.578C37.5033 51.4715 37.7936 52.3451 38.0685 53.1655L46.5056 44.125Z" fill="#194F94"></path><path fill-rule="evenodd" clip-rule="evenodd" d="M14.6728 22.4765L25.1772 22.4748L25.1769 20.5998L13.5793 20.6017L5.41198 35.0361L6.97675 35.0728C8.56387 35.11 10.3541 35.0861 12.1442 35.0623C12.296 35.0603 12.4477 35.0582 12.5994 35.0563C14.5502 35.0307 16.4832 35.0113 18.1875 35.0725L18.2548 33.1987C16.4975 33.1356 14.5196 33.156 12.5749 33.1814C12.4254 33.1834 12.2761 33.1854 12.1272 33.1873C10.9136 33.2035 9.71997 33.2194 8.59569 33.2169L14.6728 22.4765Z" fill="#194F94"></path><path fill-rule="evenodd" clip-rule="evenodd" d="M14.5334 48.1838C14.9509 48.49 15.041 49.0767 14.7348 49.4942L9.79739 56.2249C9.49114 56.6424 8.90444 56.7325 8.48695 56.4263C8.06947 56.12 7.9793 55.5333 8.28555 55.1158L13.2229 48.3852C13.5292 47.9677 14.1159 47.8775 14.5334 48.1838Z" fill="#194F94"></path><path fill-rule="evenodd" clip-rule="evenodd" d="M18.6494 51.1924C19.0668 51.4987 19.157 52.0854 18.8508 52.5029L15.425 57.1729C15.1187 57.5904 14.532 57.6806 14.1145 57.3743C13.697 57.0681 13.6069 56.4814 13.9131 56.0639L17.3389 51.3938C17.6452 50.9764 18.2319 50.8862 18.6494 51.1924Z" fill="#194F94"></path><path fill-rule="evenodd" clip-rule="evenodd" d="M40.0481 24.3069C41.9104 24.3069 43.4201 22.7972 43.4201 20.9349C43.4201 19.0726 41.9104 17.5629 40.0481 17.5629C38.1857 17.5629 36.676 19.0726 36.676 20.9349C36.676 22.7972 38.1857 24.3069 40.0481 24.3069ZM40.0481 26.1819C42.9459 26.1819 45.2951 23.8327 45.2951 20.9349C45.2951 18.037 42.9459 15.6879 40.0481 15.6879C37.1502 15.6879 34.801 18.037 34.801 20.9349C34.801 23.8327 37.1502 26.1819 40.0481 26.1819Z" fill="#194F94"></path></svg> 