<?xml version="1.0" encoding="UTF-8"?> <svg xmlns="http://www.w3.org/2000/svg" width="150" height="91" viewBox="0 0 150 91" fill="none"><rect width="150" height="90" transform="translate(0 0.0634766)" fill="white"></rect><g clip-path="url(#clip0_36_609)"><path d="M27.6445 34.7137C28.83 34.3074 30.2213 34.7538 30.9657 35.7562C32.0431 37.2224 33.0804 38.7182 34.1526 40.1897C35.3312 39.0076 36.4835 37.7977 37.7039 36.661C38.6994 37.9041 39.5746 39.2395 40.4986 40.5349C40.7688 40.7876 40.4655 41.0457 40.2842 41.2287C38.3054 43.2022 36.3319 45.1845 34.3549 47.1598C33.8998 47.7107 32.92 47.7438 32.5051 47.1284C30.7739 44.7277 29.0689 42.3096 27.3499 39.9003C26.9698 39.3511 26.4451 38.8908 25.8175 38.652C25.1619 38.3556 24.428 38.5177 23.7358 38.4253C23.9782 37.7036 24.6686 37.2886 25.1532 36.743C25.9377 36.0212 26.5898 35.0588 27.6445 34.7137ZM44.2521 37.5763C48.3753 37.5937 52.4984 37.5711 56.6215 37.5885C56.6111 38.4933 56.6215 39.3964 56.6111 40.3012C55.185 40.3117 53.7606 40.2943 52.3362 40.3065C52.3171 43.9937 52.3415 47.6793 52.324 51.3666C51.0357 51.3753 49.7456 51.3596 48.4572 51.377C48.4729 47.6863 48.4502 43.9955 48.4694 40.303C47.0729 40.3047 45.6765 40.2925 44.2818 40.3134C44.212 39.4034 44.2591 38.4898 44.2521 37.5763ZM60.2042 37.585C61.7663 37.5763 63.3266 37.5903 64.887 37.5763C66.7071 42.1702 68.5202 46.7657 70.3211 51.3648C68.8776 51.3683 67.4358 51.3805 65.9923 51.3579C65.6924 50.4321 65.3734 49.5133 65.0421 48.5998C63.2063 48.5963 61.3723 48.5946 59.5382 48.6033C59.2174 49.5255 58.9141 50.453 58.5881 51.3735C57.3119 51.3735 56.0375 51.3544 54.7631 51.384C56.571 46.7814 58.3928 42.1858 60.2042 37.585ZM60.4396 46.0527C61.6843 46.0771 62.9309 46.0632 64.1774 46.0562C63.5689 44.1315 63.0076 42.1928 62.38 40.2751C61.6652 42.1771 61.0776 44.1245 60.4396 46.0527ZM71.8483 37.5746C73.1332 37.5798 74.4181 37.5833 75.7047 37.5746C75.6978 41.2741 75.6855 44.9735 75.71 48.6713C77.7776 48.687 79.847 48.6486 81.9147 48.6887C81.9077 49.5813 81.9199 50.4739 81.913 51.3666C78.5587 51.3753 75.2044 51.3526 71.8501 51.3805C71.8571 46.778 71.8588 42.1771 71.8483 37.5746ZM83.5326 37.5763C84.8192 37.5815 86.1041 37.5903 87.3907 37.5728C87.3924 41.2706 87.3907 44.97 87.3925 48.6678C89.4671 48.6817 91.5417 48.666 93.6164 48.673C93.6111 49.5709 93.6111 50.4687 93.6094 51.3666C90.2516 51.3753 86.8938 51.3561 83.5361 51.377C83.5291 46.7762 83.5361 42.1771 83.5326 37.5763ZM95.0477 37.5798C96.3744 37.5815 97.7029 37.5833 99.0296 37.5746C99.0279 42.1719 99.0331 46.771 99.0279 51.3701C97.6994 51.3735 96.3727 51.3561 95.0442 51.3788C95.0494 46.7797 95.0425 42.1789 95.0477 37.5798ZM101.566 37.5781C103.334 37.5833 105.1 37.5815 106.868 37.5815C108.439 40.9829 109.926 44.4226 111.538 47.8031C111.481 44.3965 111.512 40.9881 111.483 37.5815C112.605 37.5868 113.73 37.5606 114.854 37.5815C114.833 42.1771 114.837 46.7727 114.854 51.3666C113.127 51.3788 111.399 51.3509 109.673 51.3823C108.067 47.8589 106.568 44.2866 104.936 40.7754C104.921 44.3058 104.962 47.8379 104.954 51.3683C103.822 51.3735 102.692 51.3701 101.561 51.3666C101.577 46.771 101.565 42.1736 101.566 37.5781ZM117.696 37.5815C118.981 37.5746 120.266 37.592 121.551 37.5693C121.556 39.5847 121.526 41.6001 121.563 43.6154C123.048 41.6262 124.499 39.6109 125.951 37.5955C127.47 37.5693 128.988 37.5815 130.507 37.5833C128.955 39.63 127.321 41.614 125.77 43.6608C127.48 46.2305 129.192 48.7968 130.902 51.3666C129.312 51.3718 127.721 51.3701 126.131 51.3648C124.633 48.9171 123.116 46.4816 121.568 44.067C121.523 46.5025 121.553 48.938 121.553 51.3735C120.268 51.3666 118.985 51.3718 117.7 51.3666C117.679 46.7727 117.687 42.1771 117.696 37.5815Z" fill="#04529C"></path><path d="M21.9525 40.5079C23.1973 40.0808 24.606 40.7136 25.326 41.7666C27.0624 44.2109 28.7814 46.6656 30.5196 49.1081C30.9484 49.7218 31.4749 50.3163 32.2019 50.569C32.8679 50.855 33.6019 50.7207 34.3027 50.8027C34.1005 51.4059 33.5723 51.7894 33.1486 52.2305C32.5158 52.818 31.9596 53.4857 31.2919 54.0384C30.3766 54.795 28.9871 54.9118 27.9655 54.3017C27.4477 54.0175 27.0537 53.5642 26.7207 53.0848C24.9895 50.6283 23.2461 48.1806 21.5184 45.7224C21.1349 45.175 20.5962 44.7304 19.9703 44.4916C19.3444 44.258 18.6662 44.3225 18.0124 44.3068C18.009 44.2109 18.0037 44.0191 18.0002 43.9232C18.7778 43.1195 19.5867 42.3455 20.3643 41.54C20.8054 41.0815 21.3266 40.6735 21.9525 40.5079Z" fill="#EE4035"></path></g><defs><clipPath id="clip0_36_609"><rect width="112.903" height="20.1291" fill="white" transform="translate(18 34.5635)"></rect></clipPath></defs></svg> 