<?xml version="1.0" encoding="UTF-8"?> <svg xmlns="http://www.w3.org/2000/svg" width="60" height="61" viewBox="0 0 60 61" fill="none"><path fill-rule="evenodd" clip-rule="evenodd" d="M40.2142 12.5095V15.8389H52.5596C53.5381 15.8389 54.4766 16.2279 55.1686 16.9202C55.8605 17.6125 56.2492 18.5516 56.2492 19.5307V30.1716C56.2562 30.3533 56.2153 30.5336 56.1307 30.6945C56.046 30.8554 55.9206 30.9913 55.767 31.0884L54.3942 31.928V48.3412C54.3879 49.3226 53.9937 50.2615 53.298 50.9532C52.6022 51.6448 51.6612 52.033 50.6804 52.033H9.32256C8.34596 52.0266 7.41114 51.6357 6.72056 50.9447C6.02998 50.2537 5.63923 49.3184 5.63291 48.3412V31.9303L4.25647 31.0884C4.10002 30.9924 3.97115 30.8575 3.88239 30.6968C3.79363 30.5361 3.74803 30.3552 3.75007 30.1716V19.5307C3.75639 18.5535 4.14714 17.6182 4.83772 16.9272C5.52829 16.2362 6.46311 15.8452 7.43972 15.8389H19.5232V12.5095C19.5232 11.332 19.9907 10.2027 20.8228 9.3701C21.655 8.53749 22.7836 8.06977 23.9605 8.06977H35.7528C36.3376 8.06659 36.9172 8.17907 37.4583 8.40076C37.9995 8.62245 38.4915 8.94898 38.9061 9.36156C39.3207 9.77415 39.6496 10.2647 39.8741 10.8049C40.0986 11.3451 40.2142 11.9244 40.2142 12.5095ZM39.2978 17.9385C39.2209 17.9385 39.1448 17.9302 39.0707 17.914H7.43972C7.01953 17.9202 6.6183 18.09 6.32116 18.3873C6.02401 18.6846 5.85432 19.0861 5.84809 19.5065V29.5683L13.6615 34.3941H16.5079V32.6088C16.5079 32.3272 16.6197 32.0572 16.8187 31.8581C17.0177 31.659 17.2876 31.5471 17.569 31.5471H21.8133C22.0947 31.5471 22.3646 31.659 22.5636 31.8581C22.7626 32.0572 22.8744 32.3272 22.8744 32.6088V34.3701H37.2473V32.6088C37.2472 32.3314 37.3557 32.0649 37.5495 31.8665C37.7433 31.668 38.0071 31.5534 38.2843 31.5471H42.5527C42.8299 31.5534 43.0936 31.668 43.2875 31.8665C43.4813 32.0649 43.5897 32.3314 43.5896 32.6088V34.3941H46.4584L54.2477 29.5683V19.5065C54.2477 19.0841 54.08 18.6791 53.7815 18.3805C53.483 18.0818 53.0782 17.914 52.6561 17.914H39.4213C39.3808 17.9246 39.3396 17.9328 39.2978 17.9385ZM37.2473 36.4934H22.8744V38.255C22.8744 38.5365 22.7626 38.8066 22.5636 39.0057C22.3646 39.2048 22.0947 39.3167 21.8133 39.3167H17.569C17.2876 39.3167 17.0177 39.2048 16.8187 39.0057C16.6197 38.8066 16.5079 38.5365 16.5079 38.255V36.4934H13.3721C13.174 36.4969 12.98 36.4378 12.8175 36.3244L7.73094 33.2134V48.3412C7.73716 48.7617 7.90686 49.1631 8.204 49.4604C8.50115 49.7577 8.90238 49.9275 9.32256 49.9338H50.6804C51.1048 49.9338 51.5122 49.7667 51.8145 49.4687C52.1169 49.1708 52.2899 48.7658 52.2962 48.3412V33.2112L47.206 36.3244C47.0435 36.4378 46.8494 36.4969 46.6514 36.4934H43.5896V38.255C43.5897 38.5324 43.4813 38.7989 43.2875 38.9973C43.0936 39.1957 42.8299 39.3104 42.5527 39.3167H38.2843C38.0071 39.3104 37.7433 39.1957 37.5495 38.9973C37.3557 38.7989 37.2472 38.5324 37.2473 38.255V36.4934ZM20.7763 35.2047C20.7601 35.2787 20.7518 35.3548 20.7518 35.4317C20.7518 35.5087 20.7601 35.5848 20.7763 35.6588V37.2174H18.606V33.6464H20.7763V35.2047ZM38.2367 15.8389H21.6213V12.5095C21.6213 11.8696 21.8753 11.2558 22.3275 10.8033C22.7798 10.3508 23.3932 10.0966 24.0328 10.0966H35.8252C36.4648 10.0966 37.0782 10.3508 37.5304 10.8033C37.9827 11.2558 38.2367 11.8696 38.2367 12.5095V15.8389ZM41.4916 35.4044L41.4906 35.4317C41.4906 35.4468 41.491 35.462 41.4916 35.4771V37.2174H39.3454V33.6464H41.4916V35.4044Z" fill="#194F94"></path></svg> 