<?xml version="1.0" encoding="UTF-8"?> <svg xmlns="http://www.w3.org/2000/svg" width="150" height="91" viewBox="0 0 150 91" fill="none"><rect width="150" height="90" transform="translate(0 0.0634766)" fill="white"></rect><path d="M78.2492 43.5861C78.2821 40.7952 80.1372 38.6117 83.0102 38.6117C85.3907 38.6117 87.1966 40.0564 87.328 42.2235H85.9325C85.7847 40.828 84.6191 39.8922 83.0431 39.8922C80.9417 39.8922 79.7104 41.7146 79.7104 43.5861C79.7104 45.5562 81.0237 47.2964 83.0431 47.2964C84.6027 47.2964 85.7848 46.377 85.9653 44.8174H87.3444C87.1638 47.0666 85.5713 48.577 82.9774 48.577C79.9895 48.577 78.2492 46.1472 78.2492 43.5861ZM89.0189 43.5861C89.0189 40.7295 91.0054 38.6117 93.862 38.6117C96.85 38.6117 98.6887 40.9101 98.6887 43.5861C98.6887 46.4591 96.735 48.5605 93.8784 48.5605C90.8905 48.577 89.0189 46.3114 89.0189 43.5861ZM97.2604 43.5861C97.2604 41.5011 95.8978 39.8758 93.862 39.8758C91.7278 39.8758 90.4472 41.6653 90.4472 43.5861C90.4472 45.6383 91.7606 47.2964 93.862 47.2964C96.0127 47.3128 97.2604 45.4905 97.2604 43.5861ZM100.757 48.3635V38.8415H103.105L105.633 46.4427L105.765 47.4934H105.962L106.093 46.4427L108.621 38.8415H110.985V48.3635H109.573V39.7937H109.376L109.196 41.419L106.864 48.3635H104.911L102.58 41.419L102.399 39.7937H102.202V48.3635H100.757ZM127.632 48.3635L126.483 45.0308H122.871L121.722 48.3635H120.179L123.544 38.8415H125.761L129.126 48.3635H127.632ZM123.265 43.816H126.056L124.858 40.3683L124.759 39.5639H124.562L124.48 40.3683L123.265 43.816ZM48.0579 43.5861C48.0579 40.631 50.0936 38.5789 53.0323 38.5789C56.0859 38.5789 58.0068 40.8116 58.0068 43.5861C58.0068 46.5248 55.9382 48.6098 53.0323 48.6098C49.9459 48.6098 48.0579 46.4099 48.0579 43.5861ZM55.6755 43.5861C55.6755 41.9772 54.6412 40.6146 53.0323 40.6146C51.3085 40.6146 50.3892 42.0921 50.3892 43.5861C50.3892 45.2278 51.3578 46.5576 53.0323 46.5576C54.7726 46.5576 55.6755 45.0965 55.6755 43.5861ZM59.5664 38.8415H61.8156V44.7682C61.8156 45.8517 62.4887 46.5412 63.5394 46.5412C64.5901 46.5412 65.2468 45.8681 65.2468 44.7682V38.8415H67.4795V44.8502C67.4795 47.1815 65.887 48.6098 63.523 48.6098C61.1096 48.6098 59.55 47.1979 59.55 44.8502V38.8415H59.5664ZM74.8016 48.3635L72.7659 44.6697H71.8465V48.3635H69.6138V38.8415H73.7017C75.5075 38.8415 76.8538 39.8266 76.8538 41.616C76.8538 43.1921 76.0001 44.1279 74.3091 44.2428V44.407L75.3105 44.5876L77.412 48.3635H74.8016ZM71.8301 40.7788V42.913H73.3897C74.0793 42.913 74.5882 42.5026 74.5882 41.8295C74.5882 41.1235 74.03 40.7788 73.3897 40.7788H71.8301ZM39.603 38.8415V40.8773H43.576V41.0907L42.4268 41.2713V48.3635H44.6431V40.8773H47.4669V38.8415H39.603ZM117.01 38.8415H113.661V48.3635H115.106V44.6368H117.01C118.8 44.6368 120.162 43.4548 120.162 41.731C120.162 39.8102 118.734 38.858 117.01 38.8415ZM117.01 43.3399H115.5L115.303 44.1443H115.106V40.1385H117.01C118.045 40.1385 118.767 40.7459 118.767 41.731C118.767 42.7653 117.93 43.3399 117.01 43.3399ZM133.28 38.6281C131.589 38.6281 130.013 39.7445 130.013 41.5011C130.013 42.9787 131.146 43.7503 132.492 44.0294L133.543 44.2592C134.347 44.4398 135.184 44.8502 135.184 45.7696C135.184 46.886 134.265 47.3621 133.296 47.3621C132.262 47.3621 131.605 46.9024 131.375 45.8845H129.881C130.078 47.5919 131.408 48.577 133.231 48.577C135.102 48.577 136.629 47.5427 136.629 45.6875C136.629 44.1607 135.545 43.3891 134.134 43.0608L133.099 42.8145C132.262 42.6175 131.458 42.2892 131.458 41.4026C131.458 40.3191 132.344 39.843 133.231 39.843C134.134 39.843 134.757 40.2206 134.954 41.1564H136.432C136.251 39.5146 134.938 38.6281 133.28 38.6281C133.296 38.6281 133.28 38.6281 133.28 38.6281ZM141.341 38.6281C139.65 38.6281 138.074 39.7445 138.074 41.5011C138.074 42.9787 139.206 43.7503 140.553 44.0294L141.603 44.2592C142.408 44.4398 143.245 44.8502 143.245 45.7696C143.245 46.886 142.326 47.3621 141.357 47.3621C140.323 47.3621 139.666 46.9024 139.436 45.8845H137.942C138.139 47.5919 139.469 48.577 141.291 48.577C143.163 48.577 144.69 47.5427 144.69 45.6875C144.69 44.1607 143.606 43.3891 142.194 43.0608L141.16 42.8145C140.323 42.6175 139.518 42.2892 139.518 41.4026C139.518 40.3191 140.405 39.843 141.291 39.843C142.194 39.843 142.818 40.2206 143.015 41.1728H144.493C144.312 39.4982 143.015 38.6117 141.406 38.6117L141.341 38.6281Z" fill="#FF6700"></path><path d="M29.7363 35.2134C28.3573 33.3747 26.4693 31.9299 24.3022 31.1419C20.7561 29.7957 16.8323 29.6808 13.2534 30.9613C10.2983 31.9628 7.91778 34.097 6.78499 37.0357C5.19252 41.2385 6.09546 46.2458 8.83715 49.7591L8.96848 49.9233L9.31325 49.677L9.19832 49.4964C6.76857 45.8682 6.11188 40.943 7.9342 36.9372C8.6073 35.5417 9.60876 34.3597 10.84 33.4732C11.4639 33.1448 12.137 32.915 12.8265 32.7508C13.8608 32.521 14.9115 32.5538 15.6011 32.6359C16.4219 32.718 17.2592 32.8821 18.0636 33.1284C16.4876 33.1777 14.5503 33.5881 12.8265 34.9179C12.8101 34.9343 12.4818 35.1806 12.0549 35.6074C12.0221 35.6402 11.2341 36.4283 10.6266 37.4461C9.98635 38.5133 8.90281 41.5997 9.44458 45.6055C9.95352 49.3815 11.6937 52.2381 13.0564 53.9783L13.3026 54.2902L13.9429 53.7813L13.6967 53.4694C12.3833 51.8112 10.7251 49.086 10.249 45.4906C9.72368 41.5669 10.8565 38.6446 11.3326 37.8566C11.8908 36.9372 12.6295 36.182 12.6459 36.1656C13.04 35.7716 13.3355 35.5417 13.3355 35.5417C15.7981 33.6538 18.7203 33.8179 20.1815 34.0642C19.7218 34.5239 19.2785 35.0164 18.8681 35.5253C15.9622 39.17 15.404 43.0773 14.9772 45.9503C14.5339 49.0696 14.5503 52.2545 15.0593 55.4394L15.7816 54.832C15.3712 51.8933 15.3712 48.9546 15.7816 46.0816C16.1757 43.3071 16.7338 39.5147 19.4919 36.0507C19.968 35.4432 20.5098 34.8686 21.068 34.3433C23.6619 36.0507 24.7783 38.0207 25.238 39.3998C27.1752 45.113 22.1187 50.9083 20.5262 52.5336C19.8039 53.2724 19.0158 53.9291 18.1786 54.5365V55.5215C19.2457 54.8156 20.2307 53.9947 21.1008 53.0918C22.7754 51.368 28.0782 45.2936 26.0096 39.1371C25.5499 37.8073 24.5649 35.9522 22.365 34.2612C23.3828 34.3761 24.8768 34.7045 26.5185 35.591C28.1767 36.4775 29.3095 37.6432 30.0482 38.661C30.5736 40.2535 30.6721 41.9937 30.2452 43.734C29.3423 47.9368 26.0917 51.0068 22.7754 53.5186C20.7068 55.1604 18.4741 56.5558 16.11 57.705V59.1169C18.7696 57.902 21.2978 56.3752 23.5798 54.5693C25.3201 53.2395 27.0767 51.7948 28.4886 50.0874C31.9855 45.9339 33.2168 39.7117 29.7363 35.2134ZM15.6831 31.7986C15.3548 31.7658 14.9608 31.7494 14.5175 31.7494C15.4697 31.4867 16.4712 31.3225 17.4726 31.2568C18.5233 31.3882 19.4099 31.815 19.9516 32.521C20.083 32.6851 20.1815 32.8821 20.28 33.0792C18.786 32.3896 17.2428 31.9628 15.6831 31.7986ZM21.1829 33.1777C21.0516 32.7508 20.8546 32.3732 20.5919 32.0285C20.3785 31.7494 20.1322 31.5195 19.8367 31.3061C21.265 31.4538 22.6769 31.7986 24.0067 32.3404C22.8411 32.3732 21.8724 32.7672 21.1829 33.1777ZM26.9125 34.8358C25.1887 33.9164 23.6455 33.5553 22.5455 33.4239C23.0217 33.2597 23.5798 33.1284 24.1873 33.1448C25.4022 33.1612 26.3544 33.6538 27.0767 34.1955C27.7334 34.7701 28.308 35.394 28.7841 36.0999C28.2423 35.6567 27.6185 35.2298 26.9125 34.8358Z" fill="#FF6700"></path></svg> 