<?xml version="1.0" encoding="UTF-8"?> <svg xmlns="http://www.w3.org/2000/svg" width="176" height="107" viewBox="0 0 176 107" fill="none"><path d="M91.8124 51.8301C91.8509 48.543 94.0277 45.9713 97.3987 45.9713C100.192 45.9713 102.311 47.6728 102.465 50.2252H100.827C100.654 48.5816 99.2864 47.4795 97.4372 47.4795C94.9715 47.4795 93.5268 49.6258 93.5268 51.8301C93.5268 54.1504 95.0678 56.2 97.4372 56.2C99.2672 56.2 100.654 55.1172 100.866 53.2802H102.484C102.272 55.9293 100.404 57.7082 97.3601 57.7082C93.8543 57.7082 91.8124 54.8465 91.8124 51.8301ZM104.449 51.8301C104.449 48.4656 106.78 45.9713 110.131 45.9713C113.637 45.9713 115.795 48.6783 115.795 51.8301C115.795 55.2138 113.502 57.6888 110.151 57.6888C106.645 57.7082 104.449 55.0398 104.449 51.8301ZM114.119 51.8301C114.119 49.3744 112.52 47.4602 110.131 47.4602C107.627 47.4602 106.125 49.5678 106.125 51.8301C106.125 54.247 107.666 56.2 110.131 56.2C112.655 56.2193 114.119 54.073 114.119 51.8301ZM118.222 57.4568V46.242H120.976L123.943 55.1945L124.097 56.432H124.328L124.482 55.1945L127.449 46.242H130.223V57.4568H128.566V47.3635H128.335L128.123 49.2777L125.388 57.4568H123.095L120.36 49.2777L120.148 47.3635H119.917V57.4568H118.222ZM149.755 57.4568L148.407 53.5316H144.169L142.821 57.4568H141.01L144.959 46.242H147.559L151.508 57.4568H149.755ZM144.631 52.1008H147.906L146.5 48.0402L146.384 47.0928H146.153L146.057 48.0402L144.631 52.1008ZM56.3879 51.8301C56.3879 48.3496 58.7765 45.9326 62.2246 45.9326C65.8075 45.9326 68.0612 48.5623 68.0612 51.8301C68.0612 55.2912 65.6341 57.7468 62.2246 57.7468C58.6032 57.7468 56.3879 55.1558 56.3879 51.8301ZM65.3259 51.8301C65.3259 49.9351 64.1124 48.3303 62.2246 48.3303C60.202 48.3303 59.1233 50.0705 59.1233 51.8301C59.1233 53.7636 60.2598 55.3298 62.2246 55.3298C64.2665 55.3298 65.3259 53.609 65.3259 51.8301ZM69.8912 46.242H72.5302V53.2222C72.5302 54.4984 73.32 55.3105 74.5528 55.3105C75.7857 55.3105 76.5562 54.5177 76.5562 53.2222V46.242H79.1759V53.3189C79.1759 56.0646 77.3074 57.7468 74.5336 57.7468C71.7019 57.7468 69.872 56.0839 69.872 53.3189V46.242H69.8912ZM87.7672 57.4568L85.3786 53.1062H84.2999V57.4568H81.6801V46.242H86.4766C88.5955 46.242 90.1751 47.4021 90.1751 49.5098C90.1751 51.366 89.1734 52.4681 87.1893 52.6035V52.7969L88.3644 53.0095L90.83 57.4568H87.7672ZM84.2806 48.5236V51.0373H86.1106C86.9196 51.0373 87.5168 50.5539 87.5168 49.7611C87.5168 48.9297 86.8618 48.5236 86.1106 48.5236H84.2806ZM46.4675 46.242V48.6396H51.1292V48.891L49.7807 49.1037V57.4568H52.3812V48.6396H55.6945V46.242H46.4675ZM137.292 46.242H133.362V57.4568H135.058V53.0676H137.292C139.392 53.0676 140.991 51.6754 140.991 49.6451C140.991 47.3828 139.315 46.2613 137.292 46.242ZM137.292 51.54H135.52L135.289 52.4875H135.058V47.7695H137.292C138.506 47.7695 139.353 48.485 139.353 49.6451C139.353 50.8633 138.371 51.54 137.292 51.54ZM156.382 45.9906C154.398 45.9906 152.548 47.3055 152.548 49.3744C152.548 51.1146 153.877 52.0234 155.457 52.3521L156.69 52.6228C157.634 52.8355 158.616 53.3189 158.616 54.4017C158.616 55.7166 157.537 56.2773 156.401 56.2773C155.187 56.2773 154.417 55.7359 154.147 54.5371H152.394C152.625 56.548 154.186 57.7082 156.324 57.7082C158.52 57.7082 160.311 56.49 160.311 54.305C160.311 52.5068 159.04 51.598 157.383 51.2113L156.17 50.9213C155.187 50.6892 154.243 50.3025 154.243 49.2584C154.243 47.9822 155.284 47.4215 156.324 47.4215C157.383 47.4215 158.115 47.8662 158.346 48.9683H160.08C159.868 47.0348 158.327 45.9906 156.382 45.9906C156.382 45.9906 156.401 45.9906 156.382 45.9906ZM165.84 45.9906C163.856 45.9906 162.006 47.3055 162.006 49.3744C162.006 51.1146 163.336 52.0234 164.915 52.3521L166.148 52.6228C167.092 52.8355 168.074 53.3189 168.074 54.4017C168.074 55.7166 166.996 56.2773 165.859 56.2773C164.645 56.2773 163.875 55.7359 163.605 54.5371H161.852C162.083 56.548 163.644 57.7082 165.782 57.7082C167.978 57.7082 169.769 56.49 169.769 54.305C169.769 52.5068 168.498 51.598 166.841 51.2113L165.628 50.9213C164.645 50.6892 163.702 50.3025 163.702 49.2584C163.702 47.9822 164.742 47.4215 165.782 47.4215C166.841 47.4215 167.573 47.8662 167.805 48.9877H169.538C169.326 47.0154 167.805 45.9713 165.917 45.9713L165.84 45.9906Z" fill="white"></path><path d="M34.8906 41.9688C33.2726 39.8032 31.0573 38.1016 28.5146 37.1735C24.3538 35.5879 19.75 35.4526 15.5507 36.9608C12.0834 38.1403 9.29023 40.6539 7.96109 44.1151C6.09259 49.065 7.15205 54.9625 10.369 59.1004L10.5231 59.2937L10.9276 59.0037L10.7927 58.791C7.94183 54.5178 7.17131 48.717 9.3095 43.999C10.0993 42.3555 11.2743 40.9633 12.719 39.9192C13.451 39.5325 14.2408 39.2618 15.0498 39.0684C16.2634 38.7977 17.4962 38.8364 18.3053 38.9331C19.2684 39.0297 20.2508 39.2231 21.1947 39.5131C19.3455 39.5711 17.0724 40.0545 15.0498 41.6207C15.0306 41.6401 14.6453 41.9301 14.1445 42.4328C14.106 42.4715 13.1813 43.3996 12.4686 44.5985C11.7174 45.8553 10.446 49.4904 11.0817 54.2084C11.6788 58.6556 13.7207 62.0201 15.3195 64.0697L15.6085 64.4371L16.3597 63.8377L16.0708 63.4703C14.5297 61.5173 12.5842 58.3076 12.0256 54.073C11.4092 49.4518 12.7383 46.01 13.2969 45.0819C13.9519 43.999 14.8187 43.1096 14.838 43.0903C15.3003 42.6262 15.647 42.3555 15.647 42.3555C18.5364 40.1319 21.9652 40.3252 23.6796 40.6153C23.1403 41.1567 22.6202 41.7368 22.1386 42.3362C18.7291 46.6287 18.0741 51.2307 17.5733 54.6144C17.0532 58.2883 17.0724 62.0394 17.6696 65.7906L18.5172 65.0752C18.0356 61.614 18.0356 58.1529 18.5172 54.7691C18.9795 51.5014 19.6344 47.0348 22.8706 42.9549C23.4292 42.2395 24.0649 41.5627 24.7198 40.944C27.7634 42.9549 29.0732 45.2752 29.6126 46.8994C31.8856 53.6283 25.9526 60.4539 24.0841 62.3681C23.2366 63.2382 22.312 64.0117 21.3296 64.7271V65.8873C22.5816 65.0558 23.7374 64.089 24.7583 63.0255C26.7232 60.9953 32.9451 53.841 30.518 46.5901C29.9786 45.0239 28.8228 42.8389 26.2416 40.8473C27.4359 40.9827 29.1888 41.3694 31.1151 42.4135C33.0607 43.4576 34.3898 44.8305 35.2566 46.0293C35.873 47.9049 35.9886 49.9545 35.4878 52.0041C34.4283 56.9541 30.6143 60.5699 26.7232 63.5283C24.296 65.4619 21.6763 67.1054 18.9024 68.4589V70.1218C22.023 68.691 24.9895 66.8927 27.667 64.7658C29.7089 63.1996 31.77 61.498 33.4267 59.4871C37.5297 54.5951 38.9744 47.2668 34.8906 41.9688ZM18.4016 37.9469C18.0163 37.9082 17.554 37.8889 17.0339 37.8889C18.1512 37.5795 19.3262 37.3862 20.5012 37.3088C21.7341 37.4635 22.7743 37.9663 23.4099 38.7977C23.564 38.9911 23.6796 39.2231 23.7952 39.4551C22.0423 38.643 20.2316 38.1403 18.4016 37.9469ZM24.8547 39.5711C24.7006 39.0684 24.4694 38.6237 24.1612 38.2176C23.9108 37.8889 23.6218 37.6182 23.2751 37.3668C24.951 37.5409 26.6076 37.9469 28.1679 38.585C26.8002 38.6237 25.6637 39.0877 24.8547 39.5711ZM31.5774 41.5241C29.5548 40.4412 27.7441 40.0159 26.4535 39.8612C27.0121 39.6678 27.667 39.5131 28.3798 39.5325C29.8052 39.5518 30.9225 40.1319 31.77 40.77C32.5406 41.4467 33.2148 42.1815 33.7734 43.0129C33.1377 42.4909 32.4057 41.9881 31.5774 41.5241Z" fill="white"></path></svg> 