<?xml version="1.0" encoding="UTF-8"?> <svg xmlns="http://www.w3.org/2000/svg" width="150" height="91" viewBox="0 0 150 91" fill="none"><rect width="150" height="90" transform="translate(0 0.0634766)" fill="white"></rect><g clip-path="url(#clip0_36_612)"><path fill-rule="evenodd" clip-rule="evenodd" d="M67.9016 37.5902C66.1918 38.0475 65.2064 39.3348 65.2064 41.1112C65.2064 42.2476 65.5256 43.1189 66.193 43.804C66.7162 44.3411 66.9111 44.4863 68.9797 45.8801C71.1806 47.3632 71.6081 47.9221 71.5348 49.2203C71.4949 49.9248 71.4343 50.113 71.1229 50.4978C70.922 50.746 70.5193 51.0771 70.2279 51.2337C68.9078 51.9431 66.6751 51.0735 66.0217 49.5954C65.887 49.2909 65.7014 48.8801 65.609 48.6825C65.5165 48.4848 65.3928 48.1614 65.334 47.9638C65.261 47.7188 65.2238 48.2874 65.2167 49.7492L65.2064 51.8939L65.4523 51.6714C65.857 51.3052 66.4757 51.3735 67.8158 51.9324C68.3791 52.1672 69.931 52.1426 70.6497 51.8874C71.3748 51.6298 72.2474 50.7917 72.6308 49.9843C73.0497 49.1023 73.0986 47.8701 72.7516 46.9421C72.4119 46.0337 71.496 45.0692 70.2524 44.3103C68.8019 43.4252 66.9728 42.0018 66.7103 41.5539C66.5357 41.2559 66.4652 40.9243 66.4648 40.3985C66.4643 39.7525 66.5102 39.6038 66.8349 39.2006C67.9109 37.8645 69.4643 37.8875 70.8223 39.2597C71.3427 39.7853 71.69 40.4579 72.0081 41.5553C72.1026 41.8816 72.1322 41.5162 72.1418 39.9082C72.1485 38.7717 72.127 37.8419 72.0941 37.8419C72.0611 37.8419 71.9264 37.9497 71.7946 38.0815C71.4783 38.3978 71.3354 38.3861 70.3367 37.9611C69.4351 37.5774 68.4885 37.4332 67.9016 37.5902ZM80.5524 37.6719C79.0059 38.0877 77.3797 39.4196 76.6841 40.8397C76.0296 42.176 75.8411 43.1985 75.8921 45.1346C75.9423 47.0387 76.0702 47.6194 76.7394 48.982C77.1439 49.8055 78.1728 50.934 78.9538 51.4105C79.8492 51.9569 80.5643 52.1224 81.8246 52.0748C83.2807 52.0198 84.0777 51.6741 85.1798 50.6194C86.1369 49.7037 86.5294 49.0741 87.0227 47.6643C87.4042 46.5737 87.4206 46.4541 87.4166 44.7895C87.4122 42.988 87.4113 42.9833 86.7135 41.094C86.6076 40.8072 86.4417 40.4935 86.345 40.3966C86.248 40.2998 86.1689 40.1766 86.1689 40.1229C86.1689 39.94 84.7929 38.6 84.2621 38.2662C83.6259 37.866 82.3384 37.4796 81.6773 37.4905C81.4135 37.4948 80.9074 37.5765 80.5524 37.6719ZM24.0833 37.9185C23.9609 38.0409 24.1146 38.2013 24.3542 38.2013C24.629 38.2013 25.2563 38.9034 25.5086 39.4934C25.6131 39.738 25.8325 40.3423 25.9958 40.8364C26.1593 41.3304 26.3621 41.8964 26.4465 42.0942C26.5308 42.2918 26.7199 42.7771 26.8669 43.1724C27.359 44.4956 27.4989 44.8476 27.6527 45.1488C27.7369 45.3135 27.846 45.6367 27.8954 45.8671C27.9448 46.0974 28.0542 46.4478 28.1387 46.6457C28.223 46.8435 28.4074 47.302 28.5484 47.6643C28.6892 48.0267 28.8502 48.4309 28.9061 48.5627C28.9621 48.6945 29.1297 49.1527 29.2786 49.5809C29.4276 50.0091 29.5905 50.4141 29.6408 50.4808C29.6911 50.5477 29.7957 50.8542 29.8732 51.1623C30.0253 51.7661 30.4234 52.2643 30.5131 51.9629C30.5403 51.8717 30.7329 51.3286 30.9411 50.7561C31.1493 50.1836 31.3667 49.5638 31.4242 49.3786C31.4817 49.1934 31.645 48.7454 31.7872 48.383C31.9294 48.0207 32.119 47.4816 32.2085 47.1852C32.2981 46.8887 32.6237 45.9454 32.932 45.0889C33.2405 44.2325 33.7791 42.7098 34.1293 41.7051C34.8824 39.5442 35.2713 38.785 35.8153 38.4147C36.5301 37.928 36.3667 37.8419 34.7281 37.8419C33.3351 37.8419 32.7656 37.9692 33.306 38.1598C33.4254 38.2019 33.6715 38.3733 33.8526 38.5407C34.2753 38.9311 34.2818 39.4182 33.8794 40.5371C33.7135 40.9983 33.4198 41.8338 33.2267 42.3938C33.0336 42.9538 32.76 43.7084 32.6188 44.0708C32.4776 44.4331 32.3184 44.9182 32.2648 45.1488C32.178 45.5235 31.5683 47.2211 31.2967 47.844C31.2393 47.9758 31.1386 48.2317 31.0729 48.413C31.0074 48.5942 30.8996 48.7424 30.8334 48.7424C30.6669 48.7424 30.312 48.015 29.8944 46.8181C29.5896 45.9447 29.1388 44.7389 28.1728 42.2141C27.0722 39.3376 27.0375 38.6818 27.9616 38.2246C28.2168 38.0984 28.3912 37.9606 28.3491 37.9185C28.2491 37.8184 24.1834 37.8186 24.0833 37.9185ZM38.9734 37.9617L38.6739 38.0576L38.9766 38.0695C39.4083 38.0865 39.7873 38.3897 39.9934 38.8827C40.142 39.2387 40.1713 40.2216 40.1713 44.8688C40.1713 50.1932 40.1611 50.4489 39.9316 50.8988C39.7398 51.2747 39.5903 51.3975 39.1829 51.5137L38.6739 51.659L39.0333 51.7437C39.2309 51.7903 41.1746 51.8349 43.3526 51.8427C46.3591 51.8535 47.3574 51.8208 47.4986 51.7071C47.6011 51.6248 47.8306 51.0722 48.0086 50.4793C48.1867 49.8863 48.3848 49.2729 48.4488 49.1162C48.5129 48.9594 48.5408 48.8067 48.5108 48.7768C48.4263 48.6922 48.0331 49.1295 47.873 49.4863C47.6539 49.9743 46.8652 50.7962 46.4485 50.9706C46.2163 51.0678 45.5 51.1305 44.5319 51.1382C42.2153 51.1568 42.2275 51.158 41.968 50.8985C41.7421 50.6726 41.7285 50.4993 41.7285 47.868C41.7285 45.8569 41.7686 45.0368 41.8722 44.9332C42.0415 44.764 44.2503 44.7433 45.0791 44.9033C45.7149 45.0259 46.2794 45.5775 46.2821 46.0791C46.2832 46.2592 46.3295 46.4786 46.3854 46.5665C46.5658 46.8511 46.6367 46.2481 46.6296 44.49C46.6223 42.6726 46.4909 41.94 46.3355 42.8503C46.2304 43.4662 45.7446 44.0042 45.1945 44.1142C44.9846 44.1562 44.1469 44.1905 43.3329 44.1905C41.8975 44.1905 41.8508 44.1824 41.7867 43.921C41.7503 43.7727 41.7358 42.5195 41.7545 41.136L41.7884 38.6205L44.022 38.5879L46.2558 38.5555L46.6181 38.8603C46.9596 39.1477 47.4782 40.0328 47.4782 40.3283C47.4782 40.4024 47.539 40.5007 47.6134 40.5467C47.7768 40.6476 47.6389 38.3861 47.4613 38.0515C47.3584 37.8578 47.0425 37.8429 43.3114 37.8539C41.0902 37.8605 39.1381 37.909 38.9734 37.9617ZM51.8503 37.9555L51.491 38.0531L51.866 38.0673C52.3915 38.0871 52.9576 38.6895 53.0505 39.3272C53.0898 39.5974 53.1052 42.2809 53.085 45.2908L53.0482 50.7633L52.7019 51.1246C52.5116 51.3233 52.1881 51.5254 51.9832 51.5736L51.6108 51.6613L52.0899 51.7522C52.6946 51.8668 54.8064 51.8821 55.5699 51.7775L56.1487 51.6982L55.6104 51.5412C54.7329 51.2853 54.6653 51.0302 54.6653 47.9725C54.6653 45.1449 54.6289 45.2686 55.4604 45.2686C55.7735 45.2686 55.9611 45.3611 56.2177 45.6421C56.4987 45.9497 57.5304 47.5856 58.5885 49.4012C58.7036 49.5989 58.8248 49.7875 58.8578 49.8205C59.0244 49.9871 59.4329 50.6326 59.5034 50.8409C59.5477 50.9715 59.7162 51.2399 59.8779 51.4376C60.1655 51.7891 60.1988 51.7978 61.423 51.8375C62.1345 51.8606 62.7682 51.8253 62.8922 51.7557C63.0994 51.6394 63.0984 51.6296 62.8706 51.5558C61.8329 51.2195 60.9843 50.5035 60.3404 49.4206C60.1509 49.1019 59.9149 48.7158 59.8161 48.5627C59.6533 48.3106 58.614 46.6231 58.3173 46.1293C58.2506 46.0182 58.1011 45.7868 57.9851 45.6149C57.6954 45.1854 57.8133 44.9781 58.5442 44.6321C59.9283 43.9767 60.5723 42.9463 60.5795 41.3756C60.5846 40.2409 60.3674 39.7302 59.5275 38.9021C58.6502 38.0372 58.1177 37.9201 54.9049 37.8862C53.4225 37.8705 52.048 37.9017 51.8503 37.9555ZM89.6509 37.954C89.5243 38.0342 89.5966 38.0845 89.9275 38.1465C90.6128 38.2751 91.5163 39.2081 91.6167 39.8907C91.6594 40.1804 91.6772 42.7351 91.6566 45.5681C91.6287 49.4004 91.5809 50.7856 91.47 50.9795C91.3879 51.1228 91.0978 51.3384 90.8252 51.4586L90.3296 51.6771L90.7946 51.76C91.4058 51.869 92.4602 51.8765 93.1865 51.7769L93.7693 51.697L93.2931 51.5663C92.9033 51.4592 92.7681 51.3389 92.5474 50.9021C92.2819 50.3765 92.2779 50.3013 92.2797 45.8122C92.2808 43.3062 92.3273 41.1838 92.3831 41.0958C92.5274 40.8679 93.0769 41.5531 95.0093 44.3702C95.4611 45.029 96.1095 45.9396 96.4502 46.3938C96.7907 46.8479 97.0694 47.2657 97.0694 47.3221C97.0694 47.3785 97.1637 47.5194 97.279 47.635C97.3942 47.7506 97.7811 48.2761 98.1386 48.8029C99.8074 51.2621 100.428 52.0422 100.555 51.8411C100.612 51.7509 100.66 48.8586 100.661 45.4135C100.663 39.3722 100.672 39.1332 100.904 38.6767C101.111 38.271 101.218 38.1913 101.653 38.118C102.152 38.034 102.154 38.0313 101.801 37.9514C101.314 37.8413 99.2514 37.8484 98.8062 37.9617L98.4469 38.0531L98.7883 38.0673C99.0041 38.0762 99.2795 38.2313 99.5369 38.4887L99.9442 38.896V43.3929C99.9442 46.3874 99.9024 47.9155 99.8191 47.967C99.6304 48.0837 99.3999 47.8418 98.6854 46.7775C97.8526 45.5372 97.0898 44.4398 96.4285 43.5309C96.1405 43.1352 95.611 42.3806 95.2517 41.8539C94.4586 40.6914 93.4808 39.3183 92.8426 38.4708L92.369 37.8419L91.0956 37.8437C90.3953 37.8448 89.7452 37.8944 89.6509 37.954ZM104.915 37.9532C104.704 38.0364 104.72 38.0574 105.05 38.1306C105.256 38.1764 105.552 38.35 105.709 38.5167L105.993 38.8196V44.8494V50.8792L105.703 51.1884C105.543 51.3584 105.317 51.4975 105.201 51.4975C104.788 51.4975 104.867 51.7076 105.307 51.7803C105.935 51.8842 108.056 51.8621 108.629 51.7456L109.108 51.6483L108.727 51.5596C108.271 51.4534 107.932 51.1049 107.747 50.5513C107.559 49.99 107.557 39.9567 107.745 39.2109C107.899 38.598 108.417 38.089 108.907 38.0673C109.227 38.0532 109.226 38.0529 108.868 37.9617C108.39 37.84 105.22 37.8332 104.915 37.9532ZM112.47 37.9489C112.433 38.0078 112.542 38.0908 112.712 38.1333C113.277 38.2752 113.916 38.772 114.52 39.5388C114.848 39.9561 115.154 40.3784 115.198 40.4772C115.242 40.576 115.391 40.8455 115.529 41.0761C115.985 41.8424 117.371 44.201 117.521 44.4674C117.757 44.8863 117.699 45.1979 117.281 45.7604C117.065 46.05 116.728 46.5294 116.532 46.8258C116.336 47.1223 116.135 47.4188 116.085 47.4846C116.036 47.5505 115.817 47.8739 115.598 48.2034C114.754 49.4771 114.444 49.9004 114.059 50.3071C113.588 50.8038 112.705 51.4257 112.282 51.5587C112 51.6473 111.996 51.6581 112.222 51.7464C112.566 51.8806 115.542 51.8749 115.756 51.7394C115.899 51.6486 115.857 51.5984 115.546 51.4898C115.145 51.3502 114.951 50.9732 115.024 50.4793C115.078 50.1139 116.732 47.4942 117.767 46.1337C118.043 45.7706 118.081 45.7553 118.275 45.9308C118.39 46.0351 118.661 46.4544 118.876 46.8625C119.091 47.2706 119.359 47.7392 119.473 47.9039C119.957 48.6071 120.787 50.3363 120.787 50.6415C120.787 51.0157 120.451 51.4341 120.042 51.5691L119.769 51.6595L120.068 51.7462C120.467 51.8617 124.018 51.8646 124.312 51.7496C124.507 51.6731 124.456 51.6171 123.98 51.387C123.432 51.1217 122.514 50.1043 122.223 49.4416C122.156 49.2875 121.997 48.9999 121.87 48.8023C121.652 48.463 121.53 48.2558 121.131 47.5445C121.038 47.3798 120.878 47.1103 120.774 46.9456C120.336 46.2473 119.37 44.4689 119.295 44.2208C119.234 44.0192 119.341 43.764 119.72 43.2027C119.999 42.7907 120.317 42.3189 120.427 42.1542C122.419 39.1762 122.814 38.7027 123.628 38.3084C123.91 38.1718 124.141 38.011 124.141 37.951C124.141 37.8129 120.931 37.8226 120.607 37.9617C120.373 38.0623 120.373 38.0648 120.621 38.0731C120.76 38.0776 121.016 38.1932 121.19 38.3298C121.432 38.5203 121.506 38.6841 121.506 39.0338C121.506 39.2928 121.428 39.554 121.326 39.6387C121.227 39.7207 121.146 39.8387 121.146 39.9009C121.146 39.9632 121.015 40.186 120.855 40.3961C120.695 40.6063 120.491 40.9126 120.403 41.077C120.315 41.2412 119.954 41.7887 119.599 42.2936C119.048 43.0796 118.92 43.1985 118.707 43.1197C118.458 43.0277 118.378 42.9092 117.728 41.675C117.537 41.3127 117.242 40.8006 117.072 40.5371C116.902 40.2736 116.661 39.8248 116.536 39.5399C116.327 39.0604 116.325 38.9977 116.501 38.7014C116.605 38.5252 116.86 38.2977 117.067 38.196C117.273 38.0943 117.404 37.9731 117.358 37.9265C117.233 37.8019 112.547 37.8233 112.47 37.9489ZM82.9712 38.4325C83.6511 38.7452 84.5532 39.6992 84.7915 40.3574C85.4705 42.2335 85.6086 43.22 85.5293 45.628C85.4696 47.441 85.3307 48.2264 84.9014 49.1797C84.808 49.3873 84.7314 49.6082 84.7314 49.6706C84.7314 49.9201 83.3249 51.1074 82.7861 51.3127C81.8914 51.6537 80.6259 51.5314 79.9034 51.0342C79.009 50.419 78.5194 49.6494 78.1315 48.2499C77.7971 47.0431 77.6285 45.2573 77.7202 43.8911C77.9158 40.9723 78.5673 39.4821 80.0568 38.5464C80.5312 38.2483 80.7156 38.2056 81.5338 38.2035C82.2078 38.2019 82.609 38.2658 82.9712 38.4325ZM57.6511 39.0326C59.0706 40.1574 59.1371 42.6673 57.7792 43.8736C57.1287 44.4516 56.4487 44.6853 55.534 44.6452L54.7252 44.6098L54.6931 41.7019L54.661 38.7941L54.9327 38.6791C55.082 38.6158 55.6378 38.5768 56.1676 38.5922C57.0648 38.6186 57.1665 38.6488 57.6511 39.0326ZM63.9487 55.7066C64.2781 55.7661 64.8171 55.8937 65.1465 55.99C66.1235 56.2758 66.6532 56.3921 67.6021 56.529C68.5543 56.6664 70.0613 56.9442 70.9561 57.1473C71.2526 57.2145 72.0072 57.3444 72.6331 57.4361C73.259 57.5276 74.2832 57.6854 74.909 57.7869C75.5349 57.8884 76.6938 58.0474 77.4844 58.1405C78.275 58.2336 79.38 58.3663 79.94 58.4355C80.5 58.5047 81.7398 58.6185 82.6951 58.6882C83.6504 58.7579 85.0788 58.8629 85.8694 58.9216C90.0684 59.2333 99.8909 59.1643 102.34 58.8059C102.768 58.7433 104.008 58.6339 105.095 58.5628C106.182 58.4917 107.368 58.3836 107.73 58.3223C108.093 58.2613 108.874 58.1572 109.467 58.0912C110.06 58.0252 111.057 57.8928 111.683 57.7968C112.309 57.7009 113.279 57.5604 113.839 57.4846C114.399 57.4089 115.154 57.2749 115.516 57.1871C116.213 57.0185 117.966 56.7021 118.87 56.5822C119.502 56.4984 120.695 56.2366 121.625 55.9777C121.988 55.8768 122.554 55.7502 122.883 55.6963C123.439 55.6054 123.406 55.5973 122.427 55.5843C121.847 55.5765 121.146 55.6203 120.87 55.6817C120.594 55.7431 119.317 55.9058 118.032 56.0433C116.747 56.1807 115.319 56.3465 114.857 56.4115C113.723 56.5714 109.95 56.8169 101.621 57.2728C98.0528 57.468 88.8206 57.4722 85.4502 57.28C84.0337 57.1992 81.8506 57.0787 80.5988 57.0123C76.4502 56.792 72.7035 56.5343 71.9144 56.4149C71.4862 56.3501 70.0577 56.1854 68.7401 56.0488C67.4224 55.9123 66.1145 55.7488 65.8336 55.6854C65.5526 55.622 64.8788 55.5765 64.3363 55.5843C63.3696 55.5982 63.3618 55.6007 63.9487 55.7066Z" fill="black"></path><path d="M89.1658 33.1989C89.4952 33.2952 90.0343 33.4227 90.3637 33.4823C90.9505 33.5882 90.9427 33.5907 89.9761 33.6046C89.4335 33.6124 88.7598 33.5668 88.4787 33.5035C88.1978 33.4401 86.8899 33.2766 85.5723 33.14C84.2546 33.0035 82.8262 32.8388 82.3979 32.774C81.6088 32.6546 77.8622 32.3969 73.7135 32.1766C72.4617 32.1101 70.2787 31.9896 68.8622 31.9089C65.4918 31.7166 56.2596 31.7208 52.6912 31.9161C44.3621 32.372 40.5891 32.6174 39.4549 32.7773C38.9937 32.8424 37.5652 33.0082 36.2805 33.1456C34.9958 33.2831 33.7187 33.4457 33.4425 33.5072C33.1662 33.5685 32.4655 33.6124 31.8853 33.6046C30.9067 33.5915 30.8737 33.5835 31.4292 33.4926C31.7586 33.4387 32.3246 33.3121 32.687 33.2112C33.6171 32.9522 34.8099 32.6905 35.442 32.6066C36.3462 32.4867 38.0996 32.1704 38.796 32.0017C39.1584 31.9139 39.913 31.78 40.473 31.7043C41.033 31.6285 42.0033 31.488 42.6292 31.392C43.2551 31.2961 44.2523 31.1637 44.8452 31.0977C45.4381 31.0317 46.2197 30.9276 46.5821 30.8665C46.9444 30.8053 48.1303 30.6971 49.2174 30.6261C50.3044 30.555 51.5442 30.4456 51.9724 30.3829C54.4215 30.0245 64.244 29.9555 68.4429 30.2672C69.2335 30.3259 70.662 30.431 71.6173 30.5007C72.5725 30.5704 73.8123 30.6842 74.3723 30.7533C74.9323 30.8226 76.0373 30.9553 76.8279 31.0483C77.6185 31.1414 78.7774 31.3005 79.4033 31.402C80.0292 31.5034 81.0534 31.6613 81.6792 31.7528C82.3051 31.8444 83.0598 31.9744 83.3562 32.0416C84.251 32.2446 85.7581 32.5224 86.7102 32.6598C87.6592 32.7967 88.1889 32.913 89.1658 33.1989Z" fill="black"></path></g><defs><clipPath id="clip0_36_612"><rect width="100.5" height="29.1079" fill="white" transform="translate(24 30.0635)"></rect></clipPath></defs></svg> 